Jost-800-Heavy.ufo
<glyph name="numbersign" format="1">
  <advance width="685"/>
  <unicode hex="0023"/>
  <outline>
    <contour>
      <point x="75" y="404" type="line"/>
      <point x="75" y="541" type="line"/>
      <point x="651" y="541" type="line"/>
      <point x="651" y="404" type="line"/>
      <point x="491" y="404" type="line" smooth="yes"/>
      <point x="458" y="412" type="line" smooth="yes"/>
      <point x="250" y="412" type="line" smooth="yes"/>
      <point x="220" y="404" type="line" smooth="yes"/>
    </contour>
    <contour>
      <point x="35" y="164" type="line"/>
      <point x="35" y="301" type="line"/>
      <point x="179" y="301" type="line" smooth="yes"/>
      <point x="216" y="293" type="line" smooth="yes"/>
      <point x="455" y="293" type="line" smooth="yes"/>
      <point x="488" y="301" type="line" smooth="yes"/>
      <point x="611" y="301" type="line"/>
      <point x="611" y="164" type="line"/>
    </contour>
    <contour>
      <point x="479" y="700" type="line"/>
      <point x="627" y="700" type="line"/>
      <point x="457" y="0" type="line"/>
      <point x="309" y="0" type="line"/>
      <point x="364" y="223" type="line" smooth="yes"/>
      <point x="378" y="251" type="line" smooth="yes"/>
      <point x="428" y="454" type="line" smooth="yes"/>
      <point x="428" y="489" type="line" smooth="yes"/>
    </contour>
    <contour>
      <point x="229" y="700" type="line"/>
      <point x="376" y="700" type="line"/>
      <point x="325" y="490" type="line" smooth="yes"/>
      <point x="308" y="453" type="line" smooth="yes"/>
      <point x="260" y="254" type="line" smooth="yes"/>
      <point x="261" y="226" type="line" smooth="yes"/>
      <point x="206" y="0" type="line"/>
      <point x="59" y="0" type="line"/>
    </contour>
  </outline>
</glyph>
<glyph name="quotesingle" format="1">
  <advance width="313"/>
  <unicode hex="0027"/>
  <outline>
    <contour>
      <point x="98" y="700" type="line"/>
      <point x="278" y="700" type="line"/>
      <point x="168" y="376" type="line"/>
      <point x="56" y="376" type="line"/>
    </contour>
  </outline>
</glyph>
<glyph name="parenleft" format="1">
  <advance width="350"/>
  <unicode hex="0028"/>
  <outline>
    <contour>
      <point x="185" y="780" type="curve"/>
      <point x="340" y="780" type="line"/>
      <point x="270" y="630"/>
      <point x="228" y="460"/>
      <point x="228" y="290" type="curve" smooth="yes"/>
      <point x="228" y="120"/>
      <point x="270" y="-50"/>
      <point x="340" y="-200" type="curve"/>
      <point x="185" y="-200" type="line"/>
      <point x="105" y="-50"/>
      <point x="62" y="120"/>
      <point x="62" y="290" type="curve" smooth="yes"/>
      <point x="62" y="460"/>
      <point x="105" y="630"/>
    </contour>
  </outline>
</glyph>
<glyph name="asterisk" format="1">
  <advance width="592"/>
  <unicode hex="002A"/>
  <outline>
    <contour>
      <point x="506" y="605" type="line"/>
      <point x="556" y="454" type="line"/>
      <point x="309" y="413" type="line"/>
      <point x="283" y="492" type="line"/>
    </contour>
    <contour>
      <point x="506" y="299" type="line"/>
      <point x="377" y="206" type="line"/>
      <point x="263" y="429" type="line"/>
      <point x="329" y="477" type="line"/>
    </contour>
    <contour>
      <point x="215" y="206" type="line"/>
      <point x="86" y="299" type="line"/>
      <point x="263" y="477" type="line"/>
      <point x="329" y="429" type="line"/>
    </contour>
    <contour>
      <point x="36" y="454" type="line"/>
      <point x="86" y="605" type="line"/>
      <point x="309" y="492" type="line"/>
      <point x="283" y="413" type="line"/>
    </contour>
    <contour>
      <point x="217" y="700" type="line"/>
      <point x="375" y="700" type="line"/>
      <point x="337" y="453" type="line"/>
      <point x="255" y="453" type="line"/>
    </contour>
  </outline>
</glyph>
<glyph name="hyphen" format="1">
  <advance width="225"/>
  <unicode hex="002D"/>
  <outline>
    <contour>
      <point x="5" y="164" type="line"/>
      <point x="5" y="311" type="line"/>
      <point x="221" y="311" type="line"/>
      <point x="221" y="164" type="line"/>
    </contour>
  </outline>
</glyph>
<glyph name="period" format="1">
  <advance width="328"/>
  <unicode hex="002E"/>
  <outline>
    <contour>
      <point x="59" y="76" type="curve" smooth="yes"/>
      <point x="59" y="133"/>
      <point x="103" y="180"/>
      <point x="165" y="180" type="curve" smooth="yes"/>
      <point x="227" y="180"/>
      <point x="270" y="133"/>
      <point x="270" y="76" type="curve" smooth="yes"/>
      <point x="270" y="19"/>
      <point x="227" y="-27"/>
      <point x="165" y="-27" type="curve" smooth="yes"/>
      <point x="103" y="-27"/>
      <point x="59" y="19"/>
    </contour>
  </outline>
</glyph>
<glyph name="slash" format="1">
  <advance width="635"/>
  <unicode hex="002F"/>
  <outline>
    <contour>
      <point x="456" y="700" type="line"/>
      <point x="621" y="700" type="line"/>
      <point x="188" y="-150" type="line"/>
      <point x="15" y="-150" type="line"/>
    </contour>
  </outline>
</glyph>
<glyph name="one" format="1">
  <advance width="526"/>
  <unicode hex="0031"/>
  <outline>
    <contour>
      <point x="64" y="479" type="line"/>
      <point x="64" y="644" type="line"/>
      <point x="429" y="714" type="line"/>
      <point x="429" y="0" type="line"/>
      <point x="243" y="0" type="line"/>
      <point x="243" y="521" type="line"/>
    </contour>
  </outline>
</glyph>
<glyph name="three" format="1">
  <advance width="642"/>
  <unicode hex="0033"/>
  <outline>
    <contour>
      <point x="281" y="337" type="curve"/>
      <point x="281" y="419" type="line"/>
      <point x="355" y="419"/>
      <point x="407" y="459"/>
      <point x="407" y="505" type="curve" smooth="yes"/>
      <point x="407" y="539"/>
      <point x="384" y="562"/>
      <point x="336" y="562" type="curve" smooth="yes"/>
      <point x="287" y="562"/>
      <point x="252" y="531"/>
      <point x="252" y="486" type="curve"/>
      <point x="74" y="486" type="line"/>
      <point x="74" y="615"/>
      <point x="177" y="714"/>
      <point x="336" y="714" type="curve" smooth="yes"/>
      <point x="504" y="714"/>
      <point x="598" y="629"/>
      <point x="598" y="518" type="curve" smooth="yes"/>
      <point x="598" y="391"/>
      <point x="456" y="337"/>
    </contour>
    <contour>
      <point x="327" y="-18" type="curve" smooth="yes"/>
      <point x="148" y="-18"/>
      <point x="44" y="104"/>
      <point x="44" y="233" type="curve"/>
      <point x="235" y="233" type="line"/>
      <point x="235" y="163"/>
      <point x="283" y="135"/>
      <point x="335" y="135" type="curve" smooth="yes"/>
      <point x="387" y="135"/>
      <point x="427" y="155"/>
      <point x="427" y="211" type="curve" smooth="yes"/>
      <point x="427" y="261"/>
      <point x="387" y="301"/>
      <point x="281" y="301" type="curve"/>
      <point x="281" y="395" type="line"/>
      <point x="481" y="395"/>
      <point x="618" y="336"/>
      <point x="618" y="193" type="curve" smooth="yes"/>
      <point x="618" y="70"/>
      <point x="512" y="-18"/>
    </contour>
  </outline>
</glyph>
<glyph name="six" format="1">
  <advance width="696"/>
  <unicode hex="0036"/>
  <outline>
    <contour>
      <point x="242" y="250" type="curve" smooth="yes"/>
      <point x="242" y="186"/>
      <point x="288" y="146"/>
      <point x="348" y="146" type="curve" smooth="yes"/>
      <point x="408" y="146"/>
      <point x="455" y="186"/>
      <point x="455" y="250" type="curve" smooth="yes"/>
      <point x="455" y="314"/>
      <point x="408" y="356"/>
      <point x="348" y="356" type="curve" smooth="yes"/>
      <point x="288" y="356"/>
      <point x="242" y="314"/>
    </contour>
    <contour>
      <point x="334" y="696" type="line"/>
      <point x="580" y="696" type="line"/>
      <point x="351" y="454" type="line"/>
      <point x="308" y="433" type="line"/>
      <point x="349" y="470"/>
      <point x="377" y="478"/>
      <point x="428" y="478" type="curve" smooth="yes"/>
      <point x="530" y="478"/>
      <point x="647" y="395"/>
      <point x="647" y="250" type="curve" smooth="yes"/>
      <point x="647" y="70"/>
      <point x="511" y="-18"/>
      <point x="348" y="-18" type="curve" smooth="yes"/>
      <point x="185" y="-18"/>
      <point x="50" y="70"/>
      <point x="50" y="250" type="curve" smooth="yes"/>
      <point x="50" y="331"/>
      <point x="91" y="398"/>
      <point x="142" y="460" type="curve" smooth="yes"/>
    </contour>
  </outline>
</glyph>
<glyph name="seven" format="1">
  <advance width="625"/>
  <unicode hex="0037"/>
  <outline>
    <contour>
      <point x="30" y="519" type="line"/>
      <point x="30" y="700" type="line"/>
      <point x="625" y="700" type="line"/>
      <point x="286" y="0" type="line"/>
      <point x="76" y="0" type="line"/>
      <point x="341" y="519" type="line"/>
    </contour>
  </outline>
</glyph>
<glyph name="eight" format="1">
  <advance width="650"/>
  <unicode hex="0038"/>
  <outline>
    <contour>
      <point x="76" y="531" type="curve" smooth="yes"/>
      <point x="76" y="654"/>
      <point x="191" y="718"/>
      <point x="325" y="718" type="curve" smooth="yes"/>
      <point x="459" y="718"/>
      <point x="575" y="654"/>
      <point x="575" y="531" type="curve" smooth="yes"/>
      <point x="575" y="398"/>
      <point x="440" y="339"/>
      <point x="325" y="339" type="curve" smooth="yes"/>
      <point x="210" y="339"/>
      <point x="76" y="398"/>
    </contour>
    <contour>
      <point x="258" y="513" type="curve" smooth="yes"/>
      <point x="258" y="471"/>
      <point x="285" y="442"/>
      <point x="325" y="442" type="curve" smooth="yes"/>
      <point x="365" y="442"/>
      <point x="393" y="471"/>
      <point x="393" y="513" type="curve" smooth="yes"/>
      <point x="393" y="555"/>
      <point x="366" y="583"/>
      <point x="325" y="583" type="curve" smooth="yes"/>
      <point x="284" y="583"/>
      <point x="258" y="555"/>
    </contour>
    <contour>
      <point x="51" y="190" type="curve" smooth="yes"/>
      <point x="51" y="343"/>
      <point x="210" y="398"/>
      <point x="325" y="398" type="curve" smooth="yes"/>
      <point x="440" y="398"/>
      <point x="600" y="343"/>
      <point x="600" y="190" type="curve" smooth="yes"/>
      <point x="600" y="57"/>
      <point x="466" y="-18"/>
      <point x="325" y="-18" type="curve" smooth="yes"/>
      <point x="184" y="-18"/>
      <point x="51" y="57"/>
    </contour>
    <contour>
      <point x="245" y="220" type="curve" smooth="yes"/>
      <point x="245" y="166"/>
      <point x="279" y="138"/>
      <point x="325" y="138" type="curve" smooth="yes"/>
      <point x="371" y="138"/>
      <point x="406" y="166"/>
      <point x="406" y="220" type="curve" smooth="yes"/>
      <point x="406" y="264"/>
      <point x="371" y="299"/>
      <point x="325" y="299" type="curve" smooth="yes"/>
      <point x="279" y="299"/>
      <point x="245" y="264"/>
    </contour>
  </outline>
</glyph>
<glyph name="nine" format="1">
  <advance width="696"/>
  <unicode hex="0039"/>
  <outline>
    <contour>
      <point x="455" y="450" type="curve" smooth="yes"/>
      <point x="455" y="514"/>
      <point x="408" y="554"/>
      <point x="348" y="554" type="curve" smooth="yes"/>
      <point x="288" y="554"/>
      <point x="242" y="514"/>
      <point x="242" y="450" type="curve" smooth="yes"/>
      <point x="242" y="386"/>
      <point x="288" y="344"/>
      <point x="348" y="344" type="curve" smooth="yes"/>
      <point x="408" y="344"/>
      <point x="455" y="386"/>
    </contour>
    <contour>
      <point x="363" y="4" type="line"/>
      <point x="117" y="4" type="line"/>
      <point x="346" y="246" type="line"/>
      <point x="389" y="267" type="line"/>
      <point x="348" y="230"/>
      <point x="320" y="222"/>
      <point x="269" y="222" type="curve" smooth="yes"/>
      <point x="167" y="222"/>
      <point x="50" y="305"/>
      <point x="50" y="450" type="curve" smooth="yes"/>
      <point x="50" y="630"/>
      <point x="185" y="718"/>
      <point x="348" y="718" type="curve" smooth="yes"/>
      <point x="511" y="718"/>
      <point x="647" y="630"/>
      <point x="647" y="450" type="curve" smooth="yes"/>
      <point x="647" y="369"/>
      <point x="606" y="302"/>
      <point x="555" y="240" type="curve" smooth="yes"/>
    </contour>
  </outline>
</glyph>
<glyph name="colon" format="1">
  <advance width="329"/>
  <unicode hex="003A"/>
  <outline>
    <contour>
      <point x="58" y="76" type="curve" smooth="yes"/>
      <point x="58" y="132"/>
      <point x="102" y="180"/>
      <point x="164" y="180" type="curve" smooth="yes"/>
      <point x="226" y="180"/>
      <point x="271" y="132"/>
      <point x="271" y="76" type="curve" smooth="yes"/>
      <point x="271" y="20"/>
      <point x="226" y="-27"/>
      <point x="164" y="-27" type="curve" smooth="yes"/>
      <point x="102" y="-27"/>
      <point x="58" y="20"/>
    </contour>
    <contour>
      <point x="58" y="448" type="curve" smooth="yes"/>
      <point x="58" y="504"/>
      <point x="102" y="552"/>
      <point x="164" y="552" type="curve" smooth="yes"/>
      <point x="226" y="552"/>
      <point x="271" y="504"/>
      <point x="271" y="448" type="curve" smooth="yes"/>
      <point x="271" y="392"/>
      <point x="226" y="345"/>
      <point x="164" y="345" type="curve" smooth="yes"/>
      <point x="102" y="345"/>
      <point x="58" y="392"/>
    </contour>
  </outline>
</glyph>
<glyph name="semicolon" format="1">
  <advance width="411"/>
  <unicode hex="003B"/>
  <outline>
    <contour>
      <point x="117" y="440" type="curve" smooth="yes"/>
      <point x="117" y="497"/>
      <point x="161" y="544"/>
      <point x="223" y="544" type="curve" smooth="yes"/>
      <point x="285" y="544"/>
      <point x="329" y="497"/>
      <point x="329" y="440" type="curve" smooth="yes"/>
      <point x="329" y="383"/>
      <point x="285" y="337"/>
      <point x="223" y="337" type="curve" smooth="yes"/>
      <point x="161" y="337"/>
      <point x="117" y="383"/>
    </contour>
    <contour>
      <point x="140" y="110" type="line"/>
      <point x="313" y="77" type="line"/>
      <point x="183" y="-173" type="line"/>
      <point x="52" y="-149" type="line"/>
    </contour>
  </outline>
</glyph>
<glyph name="less" format="1">
  <advance width="640"/>
  <unicode hex="003C"/>
  <outline>
    <contour>
      <point x="305" y="269" type="line"/>
      <point x="575" y="164" type="line"/>
      <point x="575" y="-5" type="line"/>
      <point x="65" y="207" type="line"/>
      <point x="65" y="324" type="line"/>
      <point x="575" y="536" type="line"/>
      <point x="575" y="368" type="line"/>
    </contour>
  </outline>
</glyph>
<glyph name="greater" format="1">
  <advance width="640"/>
  <unicode hex="003E"/>
  <outline>
    <contour>
      <point x="335" y="262" type="line"/>
      <point x="65" y="368" type="line"/>
      <point x="65" y="536" type="line"/>
      <point x="575" y="324" type="line"/>
      <point x="575" y="207" type="line"/>
      <point x="65" y="-5" type="line"/>
      <point x="65" y="164" type="line"/>
    </contour>
  </outline>
</glyph>
<glyph name="question" format="1">
  <advance width="647"/>
  <unicode hex="003F"/>
  <outline>
    <contour>
      <point x="422" y="500" type="curve" smooth="yes"/>
      <point x="422" y="550"/>
      <point x="385" y="579"/>
      <point x="319" y="579" type="curve" smooth="yes"/>
      <point x="260" y="579"/>
      <point x="196" y="549"/>
      <point x="157" y="491" type="curve"/>
      <point x="44" y="588" type="line"/>
      <point x="122" y="674"/>
      <point x="210" y="722"/>
      <point x="329" y="722" type="curve" smooth="yes"/>
      <point x="462" y="722"/>
      <point x="596" y="643"/>
      <point x="596" y="500" type="curve" smooth="yes"/>
      <point x="596" y="376"/>
      <point x="486" y="305"/>
      <point x="381" y="284" type="curve"/>
      <point x="377" y="210" type="line"/>
      <point x="236" y="210" type="line"/>
      <point x="216" y="389" type="line"/>
      <point x="250" y="389" type="line" smooth="yes"/>
      <point x="370" y="389"/>
      <point x="422" y="456"/>
    </contour>
    <contour>
      <point x="201" y="64" type="curve" smooth="yes"/>
      <point x="201" y="113"/>
      <point x="244" y="155"/>
      <point x="306" y="155" type="curve" smooth="yes"/>
      <point x="368" y="155"/>
      <point x="412" y="113"/>
      <point x="412" y="64" type="curve" smooth="yes"/>
      <point x="412" y="15"/>
      <point x="368" y="-27"/>
      <point x="306" y="-27" type="curve" smooth="yes"/>
      <point x="244" y="-27"/>
      <point x="201" y="15"/>
    </contour>
  </outline>
</glyph>
<glyph name="at" format="1">
  <advance width="770"/>
  <unicode hex="0040"/>
  <outline>
    <contour>
      <point x="331" y="320" type="curve" smooth="yes"/>
      <point x="331" y="280"/>
      <point x="344" y="258"/>
      <point x="365" y="258" type="curve" smooth="yes"/>
      <point x="395" y="258"/>
      <point x="426" y="304"/>
      <point x="426" y="362" type="curve" smooth="yes"/>
      <point x="426" y="406"/>
      <point x="413" y="424"/>
      <point x="391" y="424" type="curve" smooth="yes"/>
      <point x="356" y="424"/>
      <point x="331" y="374"/>
    </contour>
    <contour>
      <point x="198" y="311" type="curve" smooth="yes"/>
      <point x="198" y="450"/>
      <point x="277" y="530"/>
      <point x="354" y="530" type="curve" smooth="yes"/>
      <point x="423" y="530"/>
      <point x="477" y="457"/>
      <point x="477" y="370" type="curve" smooth="yes"/>
      <point x="477" y="231"/>
      <point x="407" y="152"/>
      <point x="328" y="152" type="curve" smooth="yes"/>
      <point x="245" y="152"/>
      <point x="198" y="212"/>
    </contour>
    <contour>
      <point x="15" y="320" type="curve" smooth="yes"/>
      <point x="15" y="547"/>
      <point x="183" y="726"/>
      <point x="415" y="726" type="curve" smooth="yes"/>
      <point x="629" y="726"/>
      <point x="755" y="557"/>
      <point x="755" y="390" type="curve" smooth="yes"/>
      <point x="755" y="212"/>
      <point x="659" y="142"/>
      <point x="560" y="142" type="curve" smooth="yes"/>
      <point x="491" y="142"/>
      <point x="432" y="196"/>
      <point x="442" y="262" type="curve"/>
      <point x="427" y="302" type="line"/>
      <point x="447" y="520" type="line"/>
      <point x="575" y="520" type="line"/>
      <point x="553" y="313" type="line" smooth="yes"/>
      <point x="552" y="306"/>
      <point x="551" y="294"/>
      <point x="551" y="286" type="curve" smooth="yes"/>
      <point x="551" y="262"/>
      <point x="557" y="248"/>
      <point x="574" y="248" type="curve" smooth="yes"/>
      <point x="596" y="248"/>
      <point x="633" y="272"/>
      <point x="633" y="390" type="curve" smooth="yes"/>
      <point x="633" y="515"/>
      <point x="559" y="617"/>
      <point x="415" y="617" type="curve" smooth="yes"/>
      <point x="243" y="617"/>
      <point x="137" y="495"/>
      <point x="137" y="320" type="curve" smooth="yes"/>
      <point x="137" y="173"/>
      <point x="215" y="79"/>
      <point x="381" y="79" type="curve" smooth="yes"/>
      <point x="451" y="79"/>
      <point x="505" y="96"/>
      <point x="561" y="122" type="curve"/>
      <point x="599" y="22" type="line"/>
      <point x="539" y="-11"/>
      <point x="463" y="-30"/>
      <point x="365" y="-30" type="curve" smooth="yes"/>
      <point x="135" y="-30"/>
      <point x="15" y="121"/>
    </contour>
  </outline>
</glyph>
<glyph name="E" format="1">
  <advance width="619"/>
  <unicode hex="0045"/>
  <outline>
    <contour>
      <point x="204" y="0" type="line"/>
      <point x="204" y="158" type="line"/>
      <point x="558" y="158" type="line"/>
      <point x="558" y="0" type="line"/>
    </contour>
    <contour>
      <point x="204" y="542" type="line"/>
      <point x="204" y="700" type="line"/>
      <point x="558" y="700" type="line"/>
      <point x="558" y="542" type="line"/>
    </contour>
    <contour>
      <point x="204" y="288" type="line"/>
      <point x="204" y="440" type="line"/>
      <point x="538" y="440" type="line"/>
      <point x="538" y="288" type="line"/>
    </contour>
    <contour>
      <point x="72" y="700" type="line"/>
      <point x="258" y="700" type="line"/>
      <point x="258" y="0" type="line"/>
      <point x="72" y="0" type="line"/>
    </contour>
  </outline>
</glyph>
<glyph name="H" format="1">
  <advance width="808"/>
  <unicode hex="0048"/>
  <outline>
    <contour>
      <point x="118" y="279" type="line"/>
      <point x="118" y="452" type="line"/>
      <point x="664" y="452" type="line"/>
      <point x="664" y="279" type="line"/>
    </contour>
    <contour>
      <point x="542" y="700" type="line"/>
      <point x="736" y="700" type="line"/>
      <point x="736" y="0" type="line"/>
      <point x="542" y="0" type="line"/>
    </contour>
    <contour>
      <point x="72" y="700" type="line"/>
      <point x="266" y="700" type="line"/>
      <point x="266" y="0" type="line"/>
      <point x="72" y="0" type="line"/>
    </contour>
  </outline>
</glyph>
<glyph name="K" format="1">
  <advance width="739"/>
  <unicode hex="004B"/>
  <outline>
    <contour>
      <point x="72" y="700" type="line"/>
      <point x="274" y="700" type="line"/>
      <point x="274" y="0" type="line"/>
      <point x="72" y="0" type="line"/>
    </contour>
    <contour>
      <point x="500" y="700" type="line"/>
      <point x="727" y="700" type="line"/>
      <point x="449" y="372" type="line"/>
      <point x="742" y="0" type="line"/>
      <point x="507" y="0" type="line"/>
      <point x="218" y="366" type="line"/>
    </contour>
  </outline>
</glyph>
<glyph name="M" format="1">
  <advance width="915"/>
  <unicode hex="004D"/>
  <outline>
    <contour>
      <point x="618" y="480" type="line"/>
      <point x="762" y="735" type="line"/>
      <point x="884" y="0" type="line"/>
      <point x="676" y="0" type="line"/>
    </contour>
    <contour>
      <point x="154" y="735" type="line"/>
      <point x="298" y="480" type="line"/>
      <point x="238" y="0" type="line"/>
      <point x="32" y="0" type="line"/>
    </contour>
    <contour>
      <point x="762" y="735" type="line"/>
      <point x="762" y="490" type="line"/>
      <point x="458" y="65" type="line"/>
      <point x="154" y="490" type="line"/>
      <point x="154" y="735" type="line"/>
      <point x="458" y="332" type="line"/>
    </contour>
  </outline>
</glyph>
<glyph name="N" format="1">
  <advance width="798"/>
  <unicode hex="004E"/>
  <outline>
    <contour>
      <point x="541" y="700" type="line"/>
      <point x="727" y="700" type="line"/>
      <point x="727" y="-35" type="line"/>
      <point x="258" y="356" type="line"/>
      <point x="258" y="0" type="line"/>
      <point x="72" y="0" type="line"/>
      <point x="72" y="735" type="line"/>
      <point x="541" y="344" type="line"/>
    </contour>
  </outline>
</glyph>
<glyph name="O" format="1">
  <advance width="830"/>
  <unicode hex="004F"/>
  <outline>
    <contour>
      <point x="238" y="350" type="curve" smooth="yes"/>
      <point x="238" y="236"/>
      <point x="306" y="158"/>
      <point x="415" y="158" type="curve" smooth="yes"/>
      <point x="524" y="158"/>
      <point x="593" y="236"/>
      <point x="593" y="350" type="curve" smooth="yes"/>
      <point x="593" y="464"/>
      <point x="528" y="542"/>
      <point x="415" y="542" type="curve" smooth="yes"/>
      <point x="306" y="542"/>
      <point x="238" y="464"/>
    </contour>
    <contour>
      <point x="32" y="350" type="curve" smooth="yes"/>
      <point x="32" y="570"/>
      <point x="199" y="718"/>
      <point x="415" y="718" type="curve" smooth="yes"/>
      <point x="635" y="718"/>
      <point x="798" y="570"/>
      <point x="798" y="350" type="curve" smooth="yes"/>
      <point x="798" y="130"/>
      <point x="639" y="-26"/>
      <point x="415" y="-26" type="curve" smooth="yes"/>
      <point x="191" y="-26"/>
      <point x="32" y="130"/>
    </contour>
  </outline>
</glyph>
<glyph name="W" format="1">
  <advance width="1087"/>
  <unicode hex="0057"/>
  <outline>
    <contour>
      <point x="389" y="180" type="line"/>
      <point x="314" y="-44" type="line"/>
      <point x="2" y="700" type="line"/>
      <point x="235" y="700" type="line"/>
    </contour>
    <contour>
      <point x="774" y="-44" type="line"/>
      <point x="698" y="180" type="line"/>
      <point x="852" y="700" type="line"/>
      <point x="1086" y="700" type="line"/>
    </contour>
    <contour>
      <point x="314" y="-44" type="line"/>
      <point x="294" y="206" type="line"/>
      <point x="544" y="735" type="line"/>
      <point x="792" y="206" type="line"/>
      <point x="774" y="-44" type="line"/>
      <point x="544" y="342" type="line"/>
    </contour>
  </outline>
</glyph>
<glyph name="bracketleft" format="1">
  <advance width="380"/>
  <unicode hex="005B"/>
  <outline>
    <contour>
      <point x="260" y="632" type="line"/>
      <point x="260" y="-72" type="line"/>
      <point x="361" y="-72" type="line"/>
      <point x="361" y="-220" type="line"/>
      <point x="88" y="-220" type="line"/>
      <point x="88" y="780" type="line"/>
      <point x="361" y="780" type="line"/>
      <point x="361" y="632" type="line"/>
    </contour>
  </outline>
</glyph>
<glyph name="backslash" format="1">
  <advance width="555"/>
  <unicode hex="005C"/>
  <outline>
    <contour>
      <point x="15" y="700" type="line"/>
      <point x="181" y="700" type="line"/>
      <point x="540" y="0" type="line"/>
      <point x="375" y="0" type="line"/>
    </contour>
  </outline>
</glyph>
<glyph name="bracketright" format="1">
  <advance width="380"/>
  <unicode hex="005D"/>
  <outline>
    <contour>
      <point x="121" y="-72" type="line"/>
      <point x="121" y="632" type="line"/>
      <point x="20" y="632" type="line"/>
      <point x="20" y="780" type="line"/>
      <point x="293" y="780" type="line"/>
      <point x="293" y="-220" type="line"/>
      <point x="20" y="-220" type="line"/>
      <point x="20" y="-72" type="line"/>
    </contour>
  </outline>
</glyph>
<glyph name="asciicircum" format="1">
  <advance width="510"/>
  <unicode hex="005E"/>
  <outline>
    <contour>
      <point x="255" y="569" type="line"/>
      <point x="185" y="444" type="line"/>
      <point x="33" y="444" type="line"/>
      <point x="203" y="710" type="line"/>
      <point x="307" y="710" type="line"/>
      <point x="477" y="444" type="line"/>
      <point x="325" y="444" type="line"/>
    </contour>
  </outline>
</glyph>
<glyph name="underscore" format="1">
  <advance width="540"/>
  <unicode hex="005F"/>
  <outline>
    <contour>
      <point x="0" y="-160" type="line"/>
      <point x="0" y="-51" type="line"/>
      <point x="540" y="-51" type="line"/>
      <point x="540" y="-160" type="line"/>
    </contour>
  </outline>
</glyph>
<glyph name="grave" format="1">
  <advance width="375"/>
  <unicode hex="0060"/>
  <outline>
    <contour>
      <point x="47" y="652" type="line"/>
      <point x="174" y="708" type="line"/>
      <point x="324" y="548" type="line"/>
      <point x="227" y="502" type="line"/>
    </contour>
  </outline>
</glyph>
<glyph name="b" format="1">
  <advance width="630"/>
  <unicode hex="0062"/>
  <outline>
    <contour>
      <point x="227" y="780" type="line"/>
      <point x="227" y="0" type="line"/>
      <point x="54" y="0" type="line"/>
      <point x="54" y="780" type="line"/>
    </contour>
    <contour>
      <point x="600" y="230" type="curve" smooth="yes"/>
      <point x="600" y="73"/>
      <point x="493" y="-10"/>
      <point x="384" y="-10" type="curve" smooth="yes"/>
      <point x="269" y="-10"/>
      <point x="183" y="81"/>
      <point x="183" y="230" type="curve" smooth="yes"/>
      <point x="183" y="379"/>
      <point x="269" y="470"/>
      <point x="384" y="470" type="curve" smooth="yes"/>
      <point x="493" y="470"/>
      <point x="600" y="387"/>
    </contour>
    <contour>
      <point x="418" y="230" type="curve" smooth="yes"/>
      <point x="418" y="292"/>
      <point x="374" y="335"/>
      <point x="321" y="335" type="curve" smooth="yes"/>
      <point x="275" y="335"/>
      <point x="227" y="296"/>
      <point x="227" y="230" type="curve" smooth="yes"/>
      <point x="227" y="164"/>
      <point x="275" y="125"/>
      <point x="321" y="125" type="curve" smooth="yes"/>
      <point x="374" y="125"/>
      <point x="418" y="168"/>
    </contour>
  </outline>
</glyph>
<glyph name="c" format="1">
  <advance width="497"/>
  <unicode hex="0063"/>
  <outline>
    <contour>
      <point x="208" y="230" type="curve" smooth="yes"/>
      <point x="208" y="162"/>
      <point x="258" y="124"/>
      <point x="320" y="124" type="curve" smooth="yes"/>
      <point x="370" y="124"/>
      <point x="419" y="145"/>
      <point x="448" y="188" type="curve"/>
      <point x="448" y="26" type="line"/>
      <point x="416" y="4"/>
      <point x="375" y="-10"/>
      <point x="304" y="-10" type="curve" smooth="yes"/>
      <point x="145" y="-10"/>
      <point x="30" y="83"/>
      <point x="30" y="230" type="curve" smooth="yes"/>
      <point x="30" y="377"/>
      <point x="145" y="470"/>
      <point x="304" y="470" type="curve" smooth="yes"/>
      <point x="375" y="470"/>
      <point x="416" y="453"/>
      <point x="448" y="435" type="curve"/>
      <point x="448" y="273" type="line"/>
      <point x="419" y="316"/>
      <point x="362" y="336"/>
      <point x="320" y="336" type="curve" smooth="yes"/>
      <point x="258" y="336"/>
      <point x="208" y="290"/>
    </contour>
  </outline>
</glyph>
<glyph name="e" format="1">
  <advance width="586"/>
  <unicode hex="0065"/>
  <outline>
    <contour>
      <point x="96" y="194" type="line"/>
      <point x="96" y="286" type="line"/>
      <point x="533" y="286" type="line"/>
      <point x="548" y="194" type="line"/>
    </contour>
    <contour>
      <point x="380" y="242" type="line" smooth="yes"/>
      <point x="380" y="317"/>
      <point x="356" y="354"/>
      <point x="296" y="354" type="curve" smooth="yes"/>
      <point x="238" y="354"/>
      <point x="202" y="319"/>
      <point x="202" y="252" type="curve"/>
      <point x="200" y="230" type="line"/>
      <point x="200" y="145"/>
      <point x="246" y="112"/>
      <point x="300" y="112" type="curve" smooth="yes"/>
      <point x="346" y="112"/>
      <point x="381" y="128"/>
      <point x="397" y="162" type="curve"/>
      <point x="549" y="126" type="line"/>
      <point x="508" y="45"/>
      <point x="437" y="-10"/>
      <point x="301" y="-10" type="curve" smooth="yes"/>
      <point x="129" y="-10"/>
      <point x="34" y="91"/>
      <point x="34" y="230" type="curve" smooth="yes"/>
      <point x="34" y="247"/>
      <point x="35" y="264"/>
      <point x="38" y="280" type="curve" smooth="yes"/>
      <point x="57" y="393"/>
      <point x="150" y="470"/>
      <point x="300" y="470" type="curve" smooth="yes"/>
      <point x="456" y="470"/>
      <point x="550" y="383"/>
      <point x="550" y="238" type="curve" smooth="yes"/>
      <point x="550" y="230"/>
      <point x="550" y="212"/>
      <point x="548" y="194" type="curve"/>
      <point x="380" y="214" type="line"/>
    </contour>
  </outline>
</glyph>
<glyph name="j" format="1">
  <advance width="278"/>
  <unicode hex="006A"/>
  <outline>
    <contour>
      <point x="40" y="627" type="curve" smooth="yes"/>
      <point x="40" y="681"/>
      <point x="84" y="717"/>
      <point x="138" y="717" type="curve" smooth="yes"/>
      <point x="192" y="717"/>
      <point x="236" y="681"/>
      <point x="236" y="627" type="curve" smooth="yes"/>
      <point x="236" y="573"/>
      <point x="192" y="537"/>
      <point x="138" y="537" type="curve" smooth="yes"/>
      <point x="84" y="537"/>
      <point x="40" y="573"/>
    </contour>
    <contour>
      <point x="-38" y="-66" type="line"/>
      <point x="-24" y="-82"/>
      <point x="-10" y="-91"/>
      <point x="8" y="-91" type="curve" smooth="yes"/>
      <point x="38" y="-91"/>
      <point x="56" y="-72"/>
      <point x="56" y="-30" type="curve" smooth="yes"/>
      <point x="56" y="460" type="line"/>
      <point x="221" y="460" type="line"/>
      <point x="221" y="-76" type="line" smooth="yes"/>
      <point x="221" y="-176"/>
      <point x="160" y="-244"/>
      <point x="36" y="-244" type="curve" smooth="yes"/>
      <point x="-40" y="-244"/>
      <point x="-80" y="-210"/>
      <point x="-104" y="-190" type="curve"/>
    </contour>
  </outline>
</glyph>
<glyph name="m" format="1">
  <advance width="832"/>
  <unicode hex="006D"/>
  <outline>
    <contour>
      <point x="326" y="280" type="line" smooth="yes"/>
      <point x="326" y="328"/>
      <point x="313" y="356"/>
      <point x="276" y="356" type="curve" smooth="yes"/>
      <point x="242" y="356"/>
      <point x="220" y="330"/>
      <point x="220" y="280" type="curve"/>
      <point x="194" y="272" type="line"/>
      <point x="194" y="381"/>
      <point x="244" y="471"/>
      <point x="355" y="471" type="curve" smooth="yes"/>
      <point x="466" y="471"/>
      <point x="499" y="417"/>
      <point x="499" y="306" type="curve" smooth="yes"/>
      <point x="499" y="0" type="line"/>
      <point x="326" y="0" type="line"/>
    </contour>
    <contour>
      <point x="220" y="460" type="line"/>
      <point x="220" y="0" type="line"/>
      <point x="55" y="0" type="line"/>
      <point x="55" y="460" type="line"/>
    </contour>
    <contour>
      <point x="778" y="298" type="curve" smooth="yes"/>
      <point x="778" y="0" type="line"/>
      <point x="605" y="0" type="line"/>
      <point x="605" y="280" type="line" smooth="yes"/>
      <point x="605" y="328"/>
      <point x="592" y="356"/>
      <point x="555" y="356" type="curve" smooth="yes"/>
      <point x="521" y="356"/>
      <point x="499" y="330"/>
      <point x="499" y="280" type="curve"/>
      <point x="445" y="272" type="line"/>
      <point x="445" y="381"/>
      <point x="523" y="471"/>
      <point x="634" y="471" type="curve" smooth="yes"/>
      <point x="745" y="471"/>
      <point x="778" y="409"/>
    </contour>
  </outline>
</glyph>
<glyph name="n" format="1">
  <advance width="590"/>
  <unicode hex="006E"/>
  <outline>
    <contour>
      <point x="228" y="460" type="line"/>
      <point x="228" y="0" type="line"/>
      <point x="55" y="0" type="line"/>
      <point x="55" y="460" type="line"/>
    </contour>
    <contour>
      <point x="354" y="280" type="line" smooth="yes"/>
      <point x="354" y="328"/>
      <point x="341" y="355"/>
      <point x="296" y="355" type="curve" smooth="yes"/>
      <point x="254" y="355"/>
      <point x="228" y="330"/>
      <point x="228" y="280" type="curve"/>
      <point x="202" y="272" type="line"/>
      <point x="202" y="381"/>
      <point x="250" y="470"/>
      <point x="370" y="470" type="curve" smooth="yes"/>
      <point x="490" y="470"/>
      <point x="536" y="408"/>
      <point x="536" y="298" type="curve" smooth="yes"/>
      <point x="536" y="0" type="line"/>
      <point x="354" y="0" type="line"/>
    </contour>
  </outline>
</glyph>
<glyph name="r" format="1">
  <advance width="431"/>
  <unicode hex="0072"/>
  <outline>
    <contour>
      <point x="224" y="460" type="line"/>
      <point x="224" y="0" type="line"/>
      <point x="55" y="0" type="line"/>
      <point x="55" y="460" type="line"/>
    </contour>
    <contour>
      <point x="354" y="283" type="line"/>
      <point x="340" y="299"/>
      <point x="323" y="310"/>
      <point x="297" y="310" type="curve" smooth="yes"/>
      <point x="257" y="310"/>
      <point x="224" y="277"/>
      <point x="224" y="211" type="curve"/>
      <point x="188" y="280" type="line"/>
      <point x="188" y="389"/>
      <point x="264" y="472"/>
      <point x="345" y="472" type="curve" smooth="yes"/>
      <point x="378" y="472"/>
      <point x="413" y="455"/>
      <point x="427" y="432" type="curve"/>
    </contour>
  </outline>
</glyph>
<glyph name="s" format="1">
  <advance width="472"/>
  <unicode hex="0073"/>
  <outline>
    <contour>
      <point x="98" y="178" type="line"/>
      <point x="168" y="122"/>
      <point x="218" y="106"/>
      <point x="242" y="106" type="curve" smooth="yes"/>
      <point x="262" y="106"/>
      <point x="278" y="112"/>
      <point x="278" y="130" type="curve" smooth="yes"/>
      <point x="278" y="160"/>
      <point x="204" y="166"/>
      <point x="150" y="192" type="curve" smooth="yes"/>
      <point x="90" y="221"/>
      <point x="42" y="251"/>
      <point x="42" y="332" type="curve" smooth="yes"/>
      <point x="42" y="424"/>
      <point x="126" y="470"/>
      <point x="232" y="470" type="curve" smooth="yes"/>
      <point x="324" y="470"/>
      <point x="388" y="432"/>
      <point x="442" y="388" type="curve"/>
      <point x="374" y="288" type="line"/>
      <point x="336" y="327"/>
      <point x="277" y="352"/>
      <point x="240" y="352" type="curve" smooth="yes"/>
      <point x="216" y="352"/>
      <point x="203" y="346"/>
      <point x="203" y="330" type="curve" smooth="yes"/>
      <point x="203" y="300"/>
      <point x="264" y="292"/>
      <point x="324" y="270" type="curve" smooth="yes"/>
      <point x="389" y="246"/>
      <point x="450" y="214"/>
      <point x="450" y="130" type="curve" smooth="yes"/>
      <point x="450" y="22"/>
      <point x="376" y="-22"/>
      <point x="260" y="-22" type="curve" smooth="yes"/>
      <point x="168" y="-22"/>
      <point x="95" y="6"/>
      <point x="20" y="76" type="curve"/>
    </contour>
  </outline>
</glyph>
<glyph name="u" format="1">
  <advance width="589"/>
  <unicode hex="0075"/>
  <outline>
    <contour>
      <point x="362" y="0" type="line"/>
      <point x="362" y="460" type="line"/>
      <point x="535" y="460" type="line"/>
      <point x="535" y="0" type="line"/>
    </contour>
    <contour>
      <point x="236" y="180" type="line" smooth="yes"/>
      <point x="236" y="132"/>
      <point x="248" y="104"/>
      <point x="293" y="104" type="curve" smooth="yes"/>
      <point x="335" y="104"/>
      <point x="362" y="130"/>
      <point x="362" y="180" type="curve"/>
      <point x="388" y="188" type="line"/>
      <point x="388" y="79"/>
      <point x="340" y="-11"/>
      <point x="221" y="-11" type="curve" smooth="yes"/>
      <point x="102" y="-11"/>
      <point x="55" y="51"/>
      <point x="55" y="162" type="curve" smooth="yes"/>
      <point x="55" y="460" type="line"/>
      <point x="236" y="460" type="line"/>
    </contour>
  </outline>
</glyph>
<glyph name="v" format="1">
  <advance width="552"/>
  <unicode hex="0076"/>
  <outline>
    <contour>
      <point x="-4" y="460" type="line"/>
      <point x="179" y="460" type="line"/>
      <point x="276" y="225" type="line"/>
      <point x="374" y="460" type="line"/>
      <point x="557" y="460" type="line"/>
      <point x="276" y="-59" type="line"/>
    </contour>
  </outline>
</glyph>
<glyph name="x" format="1">
  <advance width="564"/>
  <unicode hex="0078"/>
  <outline>
    <contour>
      <point x="364" y="460" type="line"/>
      <point x="555" y="460" type="line"/>
      <point x="373" y="236" type="line"/>
      <point x="565" y="0" type="line"/>
      <point x="374" y="0" type="line"/>
      <point x="286" y="122" type="line"/>
      <point x="199" y="0" type="line"/>
      <point x="0" y="0" type="line"/>
      <point x="195" y="236" type="line"/>
      <point x="10" y="460" type="line"/>
      <point x="209" y="460" type="line"/>
      <point x="286" y="351" type="line"/>
    </contour>
  </outline>
</glyph>
<glyph name="z" format="1">
  <advance width="540"/>
  <unicode hex="007A"/>
  <outline>
    <contour>
      <point x="244" y="304" type="line"/>
      <point x="61" y="304" type="line"/>
      <point x="61" y="460" type="line"/>
      <point x="526" y="460" type="line"/>
      <point x="313" y="156" type="line"/>
      <point x="490" y="156" type="line"/>
      <point x="490" y="0" type="line"/>
      <point x="15" y="0" type="line"/>
    </contour>
  </outline>
</glyph>
<glyph name="braceleft" format="1">
  <advance width="424"/>
  <unicode hex="007B"/>
  <outline>
    <contour>
      <point x="292" y="595" type="curve" smooth="yes"/>
      <point x="292" y="490" type="line" smooth="yes"/>
      <point x="292" y="401"/>
      <point x="288" y="280"/>
      <point x="138" y="280" type="curve"/>
      <point x="138" y="300" type="line"/>
      <point x="288" y="300"/>
      <point x="292" y="179"/>
      <point x="292" y="90" type="curve" smooth="yes"/>
      <point x="292" y="-15" type="line" smooth="yes"/>
      <point x="292" y="-41"/>
      <point x="310" y="-65"/>
      <point x="340" y="-65" type="curve" smooth="yes"/>
      <point x="374" y="-65" type="line"/>
      <point x="374" y="-200" type="line"/>
      <point x="274" y="-200" type="line" smooth="yes"/>
      <point x="181" y="-200"/>
      <point x="98" y="-159"/>
      <point x="98" y="-60" type="curve" smooth="yes"/>
      <point x="98" y="118" type="line" smooth="yes"/>
      <point x="98" y="194"/>
      <point x="80" y="218"/>
      <point x="34" y="228" type="curve"/>
      <point x="34" y="352" type="line"/>
      <point x="80" y="362"/>
      <point x="98" y="386"/>
      <point x="98" y="462" type="curve" smooth="yes"/>
      <point x="98" y="640" type="line" smooth="yes"/>
      <point x="98" y="739"/>
      <point x="181" y="780"/>
      <point x="274" y="780" type="curve" smooth="yes"/>
      <point x="374" y="780" type="line"/>
      <point x="374" y="645" type="line"/>
      <point x="340" y="645" type="line" smooth="yes"/>
      <point x="310" y="645"/>
      <point x="292" y="621"/>
    </contour>
  </outline>
</glyph>
<glyph name="braceright" format="1">
  <advance width="424"/>
  <unicode hex="007D"/>
  <outline>
    <contour>
      <point x="134" y="-15" type="curve" smooth="yes"/>
      <point x="134" y="90" type="line" smooth="yes"/>
      <point x="134" y="179"/>
      <point x="138" y="300"/>
      <point x="288" y="300" type="curve"/>
      <point x="288" y="280" type="line"/>
      <point x="138" y="280"/>
      <point x="134" y="401"/>
      <point x="134" y="490" type="curve" smooth="yes"/>
      <point x="134" y="595" type="line" smooth="yes"/>
      <point x="134" y="621"/>
      <point x="116" y="645"/>
      <point x="86" y="645" type="curve" smooth="yes"/>
      <point x="52" y="645" type="line"/>
      <point x="52" y="780" type="line"/>
      <point x="152" y="780" type="line" smooth="yes"/>
      <point x="245" y="780"/>
      <point x="328" y="739"/>
      <point x="328" y="640" type="curve" smooth="yes"/>
      <point x="328" y="462" type="line" smooth="yes"/>
      <point x="328" y="386"/>
      <point x="346" y="362"/>
      <point x="392" y="352" type="curve"/>
      <point x="392" y="228" type="line"/>
      <point x="346" y="218"/>
      <point x="328" y="194"/>
      <point x="328" y="118" type="curve" smooth="yes"/>
      <point x="328" y="-60" type="line" smooth="yes"/>
      <point x="328" y="-159"/>
      <point x="245" y="-200"/>
      <point x="152" y="-200" type="curve" smooth="yes"/>
      <point x="52" y="-200" type="line"/>
      <point x="52" y="-65" type="line"/>
      <point x="86" y="-65" type="line" smooth="yes"/>
      <point x="116" y="-65"/>
      <point x="134" y="-41"/>
    </contour>
  </outline>
</glyph>
<glyph name="exclamdown" format="1">
  <advance width="356"/>
  <unicode hex="00A1"/>
  <outline>
    <contour>
      <point x="285" y="-225" type="line"/>
      <point x="72" y="-225" type="line"/>
      <point x="108" y="235" type="line"/>
      <point x="249" y="235" type="line"/>
    </contour>
    <contour>
      <point x="284" y="407" type="curve" smooth="yes"/>
      <point x="284" y="350"/>
      <point x="240" y="312"/>
      <point x="178" y="312" type="curve" smooth="yes"/>
      <point x="116" y="312"/>
      <point x="72" y="350"/>
      <point x="72" y="407" type="curve" smooth="yes"/>
      <point x="72" y="464"/>
      <point x="116" y="502"/>
      <point x="178" y="502" type="curve" smooth="yes"/>
      <point x="240" y="502"/>
      <point x="284" y="464"/>
    </contour>
  </outline>
</glyph>
<glyph name="sterling" format="1">
  <advance width="620"/>
  <unicode hex="00A3"/>
  <outline>
    <contour>
      <point x="67" y="370" type="line"/>
      <point x="452" y="370" type="line"/>
      <point x="452" y="262" type="line"/>
      <point x="67" y="262" type="line"/>
    </contour>
    <contour>
      <point x="430" y="462" type="line"/>
      <point x="426" y="510"/>
      <point x="408" y="561"/>
      <point x="338" y="561" type="curve" smooth="yes"/>
      <point x="294" y="561"/>
      <point x="256" y="540"/>
      <point x="256" y="488" type="curve" smooth="yes"/>
      <point x="256" y="412"/>
      <point x="347" y="384"/>
      <point x="347" y="272" type="curve" smooth="yes"/>
      <point x="347" y="166"/>
      <point x="210" y="70"/>
      <point x="136" y="50" type="curve"/>
      <point x="203" y="158" type="line"/>
      <point x="546" y="158" type="line"/>
      <point x="546" y="0" type="line"/>
      <point x="48" y="0" type="line"/>
      <point x="146" y="102"/>
      <point x="180" y="194"/>
      <point x="180" y="298" type="curve" smooth="yes"/>
      <point x="180" y="392"/>
      <point x="76" y="410"/>
      <point x="76" y="522" type="curve" smooth="yes"/>
      <point x="76" y="641"/>
      <point x="194" y="710"/>
      <point x="330" y="710" type="curve" smooth="yes"/>
      <point x="488" y="710"/>
      <point x="581" y="608"/>
      <point x="586" y="520" type="curve"/>
    </contour>
  </outline>
</glyph>
<glyph name="currency" format="1">
  <advance width="575"/>
  <unicode hex="00A4"/>
  <outline>
    <contour>
      <point x="19" y="503" type="line"/>
      <point x="85" y="569" type="line"/>
      <point x="186" y="467" type="line"/>
      <point x="121" y="402" type="line"/>
    </contour>
    <contour>
      <point x="85" y="31" type="line"/>
      <point x="19" y="97" type="line"/>
      <point x="121" y="198" type="line"/>
      <point x="186" y="133" type="line"/>
    </contour>
    <contour>
      <point x="455" y="402" type="line"/>
      <point x="389" y="467" type="line"/>
      <point x="491" y="569" type="line"/>
      <point x="557" y="503" type="line"/>
    </contour>
    <contour>
      <point x="389" y="133" type="line"/>
      <point x="455" y="198" type="line"/>
      <point x="557" y="97" type="line"/>
      <point x="491" y="31" type="line"/>
    </contour>
    <contour>
      <point x="50" y="300" type="curve" smooth="yes"/>
      <point x="50" y="439"/>
      <point x="153" y="540"/>
      <point x="288" y="540" type="curve" smooth="yes"/>
      <point x="423" y="540"/>
      <point x="526" y="439"/>
      <point x="526" y="300" type="curve" smooth="yes"/>
      <point x="526" y="161"/>
      <point x="423" y="60"/>
      <point x="288" y="60" type="curve" smooth="yes"/>
      <point x="153" y="60"/>
      <point x="50" y="161"/>
    </contour>
    <contour>
      <point x="204" y="300" type="curve" smooth="yes"/>
      <point x="204" y="248"/>
      <point x="238" y="216"/>
      <point x="288" y="216" type="curve" smooth="yes"/>
      <point x="338" y="216"/>
      <point x="373" y="248"/>
      <point x="373" y="300" type="curve" smooth="yes"/>
      <point x="373" y="352"/>
      <point x="338" y="384"/>
      <point x="288" y="384" type="curve" smooth="yes"/>
      <point x="238" y="384"/>
      <point x="204" y="352"/>
    </contour>
  </outline>
</glyph>
<glyph name="yen" format="1">
  <advance width="695"/>
  <unicode hex="00A5"/>
  <outline>
    <contour>
      <point x="45" y="258" type="line"/>
      <point x="45" y="365" type="line"/>
      <point x="647" y="365" type="line"/>
      <point x="647" y="258" type="line"/>
    </contour>
    <contour>
      <point x="45" y="108" type="line"/>
      <point x="45" y="215" type="line"/>
      <point x="647" y="215" type="line"/>
      <point x="647" y="108" type="line"/>
    </contour>
    <contour>
      <point x="471" y="700" type="line"/>
      <point x="694" y="700" type="line"/>
      <point x="447" y="282" type="line"/>
      <point x="447" y="0" type="line"/>
      <point x="248" y="0" type="line"/>
      <point x="248" y="279" type="line"/>
      <point x="-1" y="700" type="line"/>
      <point x="223" y="700" type="line"/>
      <point x="346" y="455" type="line"/>
    </contour>
  </outline>
</glyph>
<glyph name="brokenbar" format="1">
  <advance width="375"/>
  <unicode hex="00A6"/>
  <outline>
    <contour>
      <point x="100" y="695" type="line"/>
      <point x="276" y="695" type="line"/>
      <point x="276" y="423" type="line"/>
      <point x="100" y="423" type="line"/>
    </contour>
    <contour>
      <point x="276" y="277" type="line"/>
      <point x="276" y="5" type="line"/>
      <point x="100" y="5" type="line"/>
      <point x="100" y="277" type="line"/>
    </contour>
  </outline>
</glyph>
<glyph name="section" format="1">
  <advance width="628"/>
  <unicode hex="00A7"/>
  <outline>
    <contour>
      <point x="428" y="540" type="line"/>
      <point x="398" y="568"/>
      <point x="348" y="588"/>
      <point x="320" y="588" type="curve" smooth="yes"/>
      <point x="288" y="588"/>
      <point x="275" y="577"/>
      <point x="275" y="563" type="curve" smooth="yes"/>
      <point x="275" y="540"/>
      <point x="317" y="537"/>
      <point x="372" y="523" type="curve" smooth="yes"/>
      <point x="452" y="503"/>
      <point x="511" y="456"/>
      <point x="511" y="380" type="curve" smooth="yes"/>
      <point x="511" y="275"/>
      <point x="397" y="226"/>
      <point x="286" y="226" type="curve"/>
      <point x="286" y="269" type="line"/>
      <point x="320" y="277"/>
      <point x="358" y="298"/>
      <point x="358" y="338" type="curve" smooth="yes"/>
      <point x="358" y="393"/>
      <point x="283" y="410"/>
      <point x="231" y="430" type="curve" smooth="yes"/>
      <point x="175" y="452"/>
      <point x="111" y="489"/>
      <point x="111" y="575" type="curve" smooth="yes"/>
      <point x="111" y="677"/>
      <point x="214" y="728"/>
      <point x="308" y="728" type="curve" smooth="yes"/>
      <point x="390" y="728"/>
      <point x="471" y="694"/>
      <point x="502" y="656" type="curve"/>
    </contour>
    <contour>
      <point x="138" y="178" type="line"/>
      <point x="199" y="130"/>
      <point x="265" y="114"/>
      <point x="297" y="114" type="curve" smooth="yes"/>
      <point x="331" y="114"/>
      <point x="344" y="124"/>
      <point x="344" y="140" type="curve" smooth="yes"/>
      <point x="344" y="166"/>
      <point x="305" y="174"/>
      <point x="249" y="188" type="curve" smooth="yes"/>
      <point x="169" y="207"/>
      <point x="92" y="249"/>
      <point x="92" y="326" type="curve" smooth="yes"/>
      <point x="92" y="426"/>
      <point x="212" y="480"/>
      <point x="326" y="480" type="curve"/>
      <point x="326" y="438" type="line"/>
      <point x="290" y="426"/>
      <point x="254" y="410"/>
      <point x="254" y="369" type="curve" smooth="yes"/>
      <point x="254" y="311"/>
      <point x="339" y="303"/>
      <point x="390" y="282" type="curve" smooth="yes"/>
      <point x="455" y="255"/>
      <point x="517" y="214"/>
      <point x="517" y="130" type="curve" smooth="yes"/>
      <point x="517" y="22"/>
      <point x="407" y="-26"/>
      <point x="308" y="-26" type="curve" smooth="yes"/>
      <point x="190" y="-26"/>
      <point x="118" y="12"/>
      <point x="64" y="62" type="curve"/>
    </contour>
  </outline>
</glyph>
<glyph name="copyright" format="1">
  <advance width="800"/>
  <unicode hex="00A9"/>
  <outline>
    <contour>
      <point x="304" y="350" type="curve" smooth="yes"/>
      <point x="304" y="279"/>
      <point x="356" y="239"/>
      <point x="421" y="239" type="curve" smooth="yes"/>
      <point x="480" y="239"/>
      <point x="516" y="266"/>
      <point x="543" y="293" type="curve"/>
      <point x="543" y="170" type="line"/>
      <point x="510" y="145"/>
      <point x="474" y="129"/>
      <point x="413" y="129" type="curve" smooth="yes"/>
      <point x="273" y="129"/>
      <point x="176" y="218"/>
      <point x="176" y="350" type="curve" smooth="yes"/>
      <point x="176" y="482"/>
      <point x="273" y="571"/>
      <point x="413" y="571" type="curve" smooth="yes"/>
      <point x="474" y="571"/>
      <point x="510" y="555"/>
      <point x="543" y="530" type="curve"/>
      <point x="543" y="407" type="line"/>
      <point x="516" y="434"/>
      <point x="480" y="461"/>
      <point x="421" y="461" type="curve" smooth="yes"/>
      <point x="356" y="461"/>
      <point x="304" y="421"/>
    </contour>
    <contour>
      <point x="95" y="350" type="curve" smooth="yes"/>
      <point x="95" y="172"/>
      <point x="227" y="40"/>
      <point x="400" y="40" type="curve" smooth="yes"/>
      <point x="573" y="40"/>
      <point x="705" y="172"/>
      <point x="705" y="350" type="curve" smooth="yes"/>
      <point x="705" y="528"/>
      <point x="573" y="660"/>
      <point x="400" y="660" type="curve" smooth="yes"/>
      <point x="227" y="660"/>
      <point x="95" y="528"/>
    </contour>
    <contour>
      <point x="40" y="350" type="curve" smooth="yes"/>
      <point x="40" y="559"/>
      <point x="196" y="710"/>
      <point x="400" y="710" type="curve" smooth="yes"/>
      <point x="604" y="710"/>
      <point x="760" y="559"/>
      <point x="760" y="350" type="curve" smooth="yes"/>
      <point x="760" y="141"/>
      <point x="604" y="-10"/>
      <point x="400" y="-10" type="curve" smooth="yes"/>
      <point x="196" y="-10"/>
      <point x="40" y="141"/>
    </contour>
  </outline>
</glyph>
<glyph name="logicalnot" format="1">
  <advance width="659"/>
  <unicode hex="00AC"/>
  <outline>
    <contour>
      <point x="65" y="264" type="line"/>
      <point x="65" y="412" type="line"/>
      <point x="595" y="412" type="line"/>
      <point x="595" y="264" type="line"/>
    </contour>
    <contour>
      <point x="480" y="375" type="line"/>
      <point x="595" y="375" type="line"/>
      <point x="595" y="175" type="line"/>
      <point x="480" y="175" type="line"/>
    </contour>
  </outline>
</glyph>
<glyph name="macron" format="1">
  <advance width="538"/>
  <unicode hex="00AF"/>
  <outline>
    <contour>
      <point x="80" y="564" type="line"/>
      <point x="80" y="712" type="line"/>
      <point x="458" y="712" type="line"/>
      <point x="458" y="564" type="line"/>
    </contour>
  </outline>
</glyph>
<glyph name="degree" format="1">
  <advance width="301"/>
  <unicode hex="00B0"/>
  <outline>
    <contour>
      <point x="16" y="596" type="curve" smooth="yes"/>
      <point x="16" y="669"/>
      <point x="72" y="720"/>
      <point x="150" y="720" type="curve" smooth="yes"/>
      <point x="228" y="720"/>
      <point x="286" y="669"/>
      <point x="286" y="596" type="curve" smooth="yes"/>
      <point x="286" y="523"/>
      <point x="228" y="472"/>
      <point x="150" y="472" type="curve" smooth="yes"/>
      <point x="72" y="472"/>
      <point x="16" y="523"/>
    </contour>
    <contour>
      <point x="100" y="596" type="curve" smooth="yes"/>
      <point x="100" y="564"/>
      <point x="121" y="545"/>
      <point x="150" y="545" type="curve" smooth="yes"/>
      <point x="179" y="545"/>
      <point x="201" y="564"/>
      <point x="201" y="596" type="curve" smooth="yes"/>
      <point x="201" y="628"/>
      <point x="179" y="648"/>
      <point x="150" y="648" type="curve" smooth="yes"/>
      <point x="121" y="648"/>
      <point x="100" y="628"/>
    </contour>
  </outline>
</glyph>
<glyph name="uni00B2" format="1">
  <advance width="426"/>
  <unicode hex="00B2"/>
  <outline>
    <contour>
      <point x="25" y="282" type="line"/>
      <point x="209" y="470" type="line" smooth="yes"/>
      <point x="244" y="508"/>
      <point x="266" y="533"/>
      <point x="266" y="566" type="curve" smooth="yes"/>
      <point x="266" y="590"/>
      <point x="251" y="613"/>
      <point x="216" y="613" type="curve" smooth="yes"/>
      <point x="181" y="613"/>
      <point x="158" y="583"/>
      <point x="158" y="543" type="curve"/>
      <point x="44" y="543" type="line"/>
      <point x="44" y="632"/>
      <point x="104" y="711"/>
      <point x="220" y="711" type="curve" smooth="yes"/>
      <point x="327" y="711"/>
      <point x="386" y="641"/>
      <point x="386" y="573" type="curve" smooth="yes"/>
      <point x="386" y="528"/>
      <point x="361" y="491"/>
      <point x="324" y="461" type="curve" smooth="yes"/>
      <point x="238" y="388" type="line"/>
      <point x="399" y="388" type="line"/>
      <point x="399" y="282" type="line"/>
    </contour>
  </outline>
</glyph>
<glyph name="uni00B3" format="1">
  <advance width="380"/>
  <unicode hex="00B3"/>
  <outline>
    <contour>
      <point x="158" y="482" type="curve"/>
      <point x="158" y="531" type="line"/>
      <point x="202" y="531"/>
      <point x="233" y="555"/>
      <point x="233" y="583" type="curve" smooth="yes"/>
      <point x="233" y="604"/>
      <point x="219" y="617"/>
      <point x="190" y="617" type="curve" smooth="yes"/>
      <point x="161" y="617"/>
      <point x="140" y="599"/>
      <point x="140" y="572" type="curve"/>
      <point x="33" y="572" type="line"/>
      <point x="33" y="649"/>
      <point x="95" y="708"/>
      <point x="191" y="708" type="curve" smooth="yes"/>
      <point x="292" y="708"/>
      <point x="348" y="657"/>
      <point x="348" y="591" type="curve" smooth="yes"/>
      <point x="348" y="515"/>
      <point x="263" y="482"/>
    </contour>
    <contour>
      <point x="186" y="269" type="curve" smooth="yes"/>
      <point x="78" y="269"/>
      <point x="15" y="343"/>
      <point x="15" y="420" type="curve"/>
      <point x="130" y="420" type="line"/>
      <point x="130" y="378"/>
      <point x="160" y="361"/>
      <point x="191" y="361" type="curve" smooth="yes"/>
      <point x="222" y="361"/>
      <point x="245" y="373"/>
      <point x="245" y="407" type="curve" smooth="yes"/>
      <point x="245" y="437"/>
      <point x="222" y="460"/>
      <point x="158" y="460" type="curve"/>
      <point x="158" y="517" type="line"/>
      <point x="278" y="517"/>
      <point x="360" y="481"/>
      <point x="360" y="396" type="curve" smooth="yes"/>
      <point x="360" y="323"/>
      <point x="297" y="269"/>
    </contour>
  </outline>
</glyph>
<glyph name="periodcentered" format="1">
  <advance width="328"/>
  <unicode hex="00B7"/>
  <outline>
    <contour>
      <point x="59" y="276" type="curve" smooth="yes"/>
      <point x="59" y="333"/>
      <point x="103" y="380"/>
      <point x="165" y="380" type="curve" smooth="yes"/>
      <point x="227" y="380"/>
      <point x="270" y="333"/>
      <point x="270" y="276" type="curve" smooth="yes"/>
      <point x="270" y="219"/>
      <point x="227" y="173"/>
      <point x="165" y="173" type="curve" smooth="yes"/>
      <point x="103" y="173"/>
      <point x="59" y="219"/>
    </contour>
  </outline>
</glyph>
<glyph name="cedilla" format="1">
  <advance width="406"/>
  <unicode hex="00B8"/>
  <outline>
    <contour>
      <point x="180" y="75" type="line"/>
      <point x="305" y="70" type="line"/>
      <point x="212" y="-55" type="line"/>
      <point x="225" y="-52"/>
      <point x="240" y="-50"/>
      <point x="256" y="-50" type="curve" smooth="yes"/>
      <point x="298" y="-50"/>
      <point x="353" y="-84"/>
      <point x="353" y="-155" type="curve" smooth="yes"/>
      <point x="353" y="-231"/>
      <point x="281" y="-268"/>
      <point x="215" y="-268" type="curve" smooth="yes"/>
      <point x="154" y="-268"/>
      <point x="107" y="-259"/>
      <point x="55" y="-229" type="curve"/>
      <point x="104" y="-152" type="line"/>
      <point x="131" y="-171"/>
      <point x="171" y="-177"/>
      <point x="189" y="-177" type="curve" smooth="yes"/>
      <point x="223" y="-177"/>
      <point x="245" y="-168"/>
      <point x="245" y="-144" type="curve" smooth="yes"/>
      <point x="245" y="-117"/>
      <point x="211" y="-113"/>
      <point x="181" y="-113" type="curve" smooth="yes"/>
      <point x="171" y="-113"/>
      <point x="131" y="-114"/>
      <point x="92" y="-128" type="curve"/>
    </contour>
  </outline>
</glyph>
<glyph name="uni00B9" format="1">
  <advance width="485"/>
  <unicode hex="00B9"/>
  <outline>
    <contour>
      <point x="128" y="561" type="line"/>
      <point x="128" y="660" type="line"/>
      <point x="347" y="702" type="line"/>
      <point x="347" y="274" type="line"/>
      <point x="235" y="274" type="line"/>
      <point x="235" y="587" type="line"/>
    </contour>
  </outline>
</glyph>
<glyph name="guillemotright" format="1">
  <advance width="550"/>
  <unicode hex="00BB"/>
  <outline>
    <contour>
      <point x="416" y="275" type="line"/>
      <point x="527" y="255" type="line"/>
      <point x="353" y="-4" type="line"/>
      <point x="246" y="65" type="line"/>
    </contour>
    <contour>
      <point x="527" y="255" type="line"/>
      <point x="416" y="225" type="line"/>
      <point x="246" y="445" type="line"/>
      <point x="353" y="514" type="line"/>
    </contour>
    <contour>
      <point x="200" y="275" type="line"/>
      <point x="310" y="255" type="line"/>
      <point x="136" y="-4" type="line"/>
      <point x="30" y="65" type="line"/>
    </contour>
    <contour>
      <point x="310" y="255" type="line"/>
      <point x="200" y="225" type="line"/>
      <point x="30" y="445" type="line"/>
      <point x="136" y="514" type="line"/>
    </contour>
  </outline>
</glyph>
<glyph name="onequarter" format="1">
  <advance width="842"/>
  <unicode hex="00BC"/>
  <outline>
    <contour>
      <point x="634" y="700" type="line"/>
      <point x="739" y="700" type="line"/>
      <point x="219" y="0" type="line"/>
      <point x="114" y="0" type="line"/>
    </contour>
    <contour>
      <point x="22" y="561" type="line"/>
      <point x="22" y="660" type="line"/>
      <point x="241" y="702" type="line"/>
      <point x="241" y="274" type="line"/>
      <point x="129" y="274" type="line"/>
      <point x="129" y="587" type="line"/>
    </contour>
    <contour>
      <point x="409" y="72" type="line"/>
      <point x="505" y="153" type="line"/>
      <point x="691" y="153" type="line" smooth="yes"/>
      <point x="701" y="170" type="line" smooth="yes"/>
      <point x="814" y="170" type="line"/>
      <point x="814" y="72" type="line"/>
    </contour>
    <contour>
      <point x="526" y="111" type="line"/>
      <point x="409" y="72" type="line"/>
      <point x="657" y="420" type="line"/>
      <point x="748" y="420" type="line"/>
      <point x="748" y="0" type="line"/>
      <point x="627" y="0" type="line"/>
      <point x="627" y="94" type="line" smooth="yes"/>
      <point x="641" y="100" type="line" smooth="yes"/>
      <point x="641" y="264" type="line"/>
    </contour>
  </outline>
</glyph>
<glyph name="onehalf" format="1">
  <advance width="915"/>
  <unicode hex="00BD"/>
  <outline>
    <contour>
      <point x="634" y="700" type="line"/>
      <point x="739" y="700" type="line"/>
      <point x="219" y="0" type="line"/>
      <point x="114" y="0" type="line"/>
    </contour>
    <contour>
      <point x="22" y="561" type="line"/>
      <point x="22" y="660" type="line"/>
      <point x="241" y="702" type="line"/>
      <point x="241" y="274" type="line"/>
      <point x="129" y="274" type="line"/>
      <point x="129" y="587" type="line"/>
    </contour>
    <contour>
      <point x="509" y="2" type="line"/>
      <point x="693" y="190" type="line" smooth="yes"/>
      <point x="728" y="228"/>
      <point x="750" y="253"/>
      <point x="750" y="286" type="curve" smooth="yes"/>
      <point x="750" y="310"/>
      <point x="735" y="333"/>
      <point x="700" y="333" type="curve" smooth="yes"/>
      <point x="665" y="333"/>
      <point x="642" y="303"/>
      <point x="642" y="263" type="curve"/>
      <point x="528" y="263" type="line"/>
      <point x="528" y="352"/>
      <point x="588" y="431"/>
      <point x="704" y="431" type="curve" smooth="yes"/>
      <point x="811" y="431"/>
      <point x="870" y="361"/>
      <point x="870" y="293" type="curve" smooth="yes"/>
      <point x="870" y="248"/>
      <point x="846" y="211"/>
      <point x="809" y="181" type="curve" smooth="yes"/>
      <point x="721" y="108" type="line"/>
      <point x="883" y="108" type="line"/>
      <point x="883" y="2" type="line"/>
    </contour>
  </outline>
</glyph>
<glyph name="threequarters" format="1">
  <advance width="896"/>
  <unicode hex="00BE"/>
  <outline>
    <contour>
      <point x="697" y="700" type="line"/>
      <point x="802" y="700" type="line"/>
      <point x="282" y="0" type="line"/>
      <point x="177" y="0" type="line"/>
    </contour>
    <contour>
      <point x="167" y="482" type="curve"/>
      <point x="167" y="531" type="line"/>
      <point x="211" y="531"/>
      <point x="242" y="555"/>
      <point x="242" y="583" type="curve" smooth="yes"/>
      <point x="242" y="604"/>
      <point x="228" y="617"/>
      <point x="199" y="617" type="curve" smooth="yes"/>
      <point x="170" y="617"/>
      <point x="149" y="599"/>
      <point x="149" y="572" type="curve"/>
      <point x="42" y="572" type="line"/>
      <point x="42" y="649"/>
      <point x="104" y="708"/>
      <point x="200" y="708" type="curve" smooth="yes"/>
      <point x="301" y="708"/>
      <point x="357" y="657"/>
      <point x="357" y="591" type="curve" smooth="yes"/>
      <point x="357" y="515"/>
      <point x="272" y="482"/>
    </contour>
    <contour>
      <point x="195" y="269" type="curve" smooth="yes"/>
      <point x="87" y="269"/>
      <point x="24" y="343"/>
      <point x="24" y="420" type="curve"/>
      <point x="139" y="420" type="line"/>
      <point x="139" y="378"/>
      <point x="169" y="361"/>
      <point x="200" y="361" type="curve" smooth="yes"/>
      <point x="231" y="361"/>
      <point x="254" y="373"/>
      <point x="254" y="407" type="curve" smooth="yes"/>
      <point x="254" y="437"/>
      <point x="231" y="460"/>
      <point x="167" y="460" type="curve"/>
      <point x="167" y="517" type="line"/>
      <point x="287" y="517"/>
      <point x="369" y="481"/>
      <point x="369" y="396" type="curve" smooth="yes"/>
      <point x="369" y="323"/>
      <point x="306" y="269"/>
    </contour>
    <contour>
      <point x="464" y="72" type="line"/>
      <point x="559" y="153" type="line"/>
      <point x="746" y="153" type="line" smooth="yes"/>
      <point x="756" y="170" type="line" smooth="yes"/>
      <point x="869" y="170" type="line"/>
      <point x="869" y="72" type="line"/>
    </contour>
    <contour>
      <point x="581" y="111" type="line"/>
      <point x="464" y="72" type="line"/>
      <point x="712" y="420" type="line"/>
      <point x="803" y="420" type="line"/>
      <point x="803" y="0" type="line"/>
      <point x="682" y="0" type="line"/>
      <point x="682" y="94" type="line" smooth="yes"/>
      <point x="696" y="100" type="line" smooth="yes"/>
      <point x="696" y="264" type="line"/>
    </contour>
  </outline>
</glyph>
<glyph name="questiondown" format="1">
  <advance width="647"/>
  <unicode hex="00BF"/>
  <outline>
    <contour>
      <point x="226" y="200" type="curve" smooth="yes"/>
      <point x="226" y="150"/>
      <point x="262" y="121"/>
      <point x="328" y="121" type="curve" smooth="yes"/>
      <point x="387" y="121"/>
      <point x="451" y="151"/>
      <point x="490" y="209" type="curve"/>
      <point x="604" y="112" type="line"/>
      <point x="526" y="26"/>
      <point x="437" y="-22"/>
      <point x="318" y="-22" type="curve" smooth="yes"/>
      <point x="185" y="-22"/>
      <point x="52" y="57"/>
      <point x="52" y="200" type="curve" smooth="yes"/>
      <point x="52" y="324"/>
      <point x="162" y="395"/>
      <point x="267" y="416" type="curve"/>
      <point x="271" y="490" type="line"/>
      <point x="412" y="490" type="line"/>
      <point x="432" y="311" type="line"/>
      <point x="398" y="311" type="line" smooth="yes"/>
      <point x="278" y="311"/>
      <point x="226" y="244"/>
    </contour>
    <contour>
      <point x="447" y="636" type="curve" smooth="yes"/>
      <point x="447" y="587"/>
      <point x="403" y="545"/>
      <point x="341" y="545" type="curve" smooth="yes"/>
      <point x="279" y="545"/>
      <point x="235" y="587"/>
      <point x="235" y="636" type="curve" smooth="yes"/>
      <point x="235" y="685"/>
      <point x="279" y="727"/>
      <point x="341" y="727" type="curve" smooth="yes"/>
      <point x="403" y="727"/>
      <point x="447" y="685"/>
    </contour>
  </outline>
</glyph>
<glyph name="Agrave" format="1">
  <advance width="757"/>
  <unicode hex="00C0"/>
  <outline>
    <contour>
      <point x="196" y="112" type="line"/>
      <point x="202" y="256" type="line"/>
      <point x="560" y="256" type="line"/>
      <point x="566" y="112" type="line"/>
    </contour>
    <contour>
      <point x="379" y="412" type="line"/>
      <point x="287" y="203" type="line"/>
      <point x="299" y="159" type="line"/>
      <point x="218" y="0" type="line"/>
      <point x="-4" y="0" type="line"/>
      <point x="379" y="747" type="line"/>
      <point x="760" y="0" type="line"/>
      <point x="540" y="0" type="line"/>
      <point x="460" y="152" type="line"/>
      <point x="471" y="202" type="line"/>
    </contour>
    <contour>
      <point x="208" y="957" type="line"/>
      <point x="336" y="1014" type="line"/>
      <point x="486" y="854" type="line"/>
      <point x="388" y="807" type="line"/>
    </contour>
  </outline>
</glyph>
<glyph name="Aacute" format="1">
  <advance width="756"/>
  <unicode hex="00C1"/>
  <outline>
    <contour>
      <point x="195" y="113" type="line"/>
      <point x="201" y="256" type="line"/>
      <point x="560" y="256" type="line"/>
      <point x="565" y="113" type="line"/>
    </contour>
    <contour>
      <point x="378" y="413" type="line"/>
      <point x="286" y="204" type="line"/>
      <point x="299" y="160" type="line"/>
      <point x="217" y="0" type="line"/>
      <point x="-3" y="0" type="line"/>
      <point x="378" y="747" type="line"/>
      <point x="760" y="0" type="line"/>
      <point x="540" y="0" type="line"/>
      <point x="460" y="153" type="line"/>
      <point x="471" y="203" type="line"/>
    </contour>
    <contour>
      <point x="545" y="957" type="line"/>
      <point x="365" y="807" type="line"/>
      <point x="267" y="853" type="line"/>
      <point x="417" y="1013" type="line"/>
    </contour>
  </outline>
</glyph>
<glyph name="Acircumflex" format="1">
  <advance width="756"/>
  <unicode hex="00C2"/>
  <outline>
    <contour>
      <point x="195" y="113" type="line"/>
      <point x="201" y="256" type="line"/>
      <point x="560" y="256" type="line"/>
      <point x="565" y="113" type="line"/>
    </contour>
    <contour>
      <point x="378" y="413" type="line"/>
      <point x="286" y="204" type="line"/>
      <point x="299" y="160" type="line"/>
      <point x="217" y="0" type="line"/>
      <point x="-3" y="0" type="line"/>
      <point x="378" y="747" type="line"/>
      <point x="760" y="0" type="line"/>
      <point x="540" y="0" type="line"/>
      <point x="460" y="153" type="line"/>
      <point x="471" y="203" type="line"/>
    </contour>
    <contour>
      <point x="378" y="882" type="line"/>
      <point x="293" y="799" type="line"/>
      <point x="170" y="880" type="line"/>
      <point x="378" y="1020" type="line"/>
      <point x="587" y="880" type="line"/>
      <point x="464" y="799" type="line"/>
    </contour>
  </outline>
</glyph>
<glyph name="Aring" format="1">
  <advance width="756"/>
  <unicode hex="00C5"/>
  <outline>
    <contour>
      <point x="195" y="113" type="line"/>
      <point x="201" y="256" type="line"/>
      <point x="560" y="256" type="line"/>
      <point x="565" y="113" type="line"/>
    </contour>
    <contour>
      <point x="378" y="413" type="line"/>
      <point x="286" y="204" type="line"/>
      <point x="299" y="160" type="line"/>
      <point x="217" y="0" type="line"/>
      <point x="-3" y="0" type="line"/>
      <point x="378" y="747" type="line"/>
      <point x="760" y="0" type="line"/>
      <point x="540" y="0" type="line"/>
      <point x="460" y="153" type="line"/>
      <point x="471" y="203" type="line"/>
    </contour>
    <contour>
      <point x="247" y="801" type="curve" smooth="yes"/>
      <point x="247" y="872"/>
      <point x="303" y="922"/>
      <point x="378" y="922" type="curve" smooth="yes"/>
      <point x="453" y="922"/>
      <point x="510" y="872"/>
      <point x="510" y="801" type="curve" smooth="yes"/>
      <point x="510" y="730"/>
      <point x="453" y="681"/>
      <point x="378" y="681" type="curve" smooth="yes"/>
      <point x="303" y="681"/>
      <point x="247" y="730"/>
    </contour>
    <contour>
      <point x="333" y="801" type="curve" smooth="yes"/>
      <point x="333" y="772"/>
      <point x="353" y="756"/>
      <point x="378" y="756" type="curve" smooth="yes"/>
      <point x="403" y="756"/>
      <point x="423" y="772"/>
      <point x="423" y="801" type="curve" smooth="yes"/>
      <point x="423" y="830"/>
      <point x="403" y="848"/>
      <point x="378" y="848" type="curve" smooth="yes"/>
      <point x="353" y="848"/>
      <point x="333" y="830"/>
    </contour>
  </outline>
</glyph>
<glyph name="Egrave" format="1">
  <advance width="619"/>
  <unicode hex="00C8"/>
  <outline>
    <contour>
      <point x="204" y="0" type="line"/>
      <point x="204" y="158" type="line"/>
      <point x="558" y="158" type="line"/>
      <point x="558" y="0" type="line"/>
    </contour>
    <contour>
      <point x="204" y="542" type="line"/>
      <point x="204" y="700" type="line"/>
      <point x="558" y="700" type="line"/>
      <point x="558" y="542" type="line"/>
    </contour>
    <contour>
      <point x="204" y="288" type="line"/>
      <point x="204" y="440" type="line"/>
      <point x="538" y="440" type="line"/>
      <point x="538" y="288" type="line"/>
    </contour>
    <contour>
      <point x="72" y="700" type="line"/>
      <point x="258" y="700" type="line"/>
      <point x="258" y="0" type="line"/>
      <point x="72" y="0" type="line"/>
    </contour>
    <contour>
      <point x="144" y="936" type="line"/>
      <point x="271" y="992" type="line"/>
      <point x="421" y="832" type="line"/>
      <point x="324" y="786" type="line"/>
    </contour>
  </outline>
</glyph>
<glyph name="Edieresis" format="1">
  <advance width="619"/>
  <unicode hex="00CB"/>
  <outline>
    <contour>
      <point x="204" y="0" type="line"/>
      <point x="204" y="158" type="line"/>
      <point x="558" y="158" type="line"/>
      <point x="558" y="0" type="line"/>
    </contour>
    <contour>
      <point x="204" y="542" type="line"/>
      <point x="204" y="700" type="line"/>
      <point x="558" y="700" type="line"/>
      <point x="558" y="542" type="line"/>
    </contour>
    <contour>
      <point x="204" y="288" type="line"/>
      <point x="204" y="440" type="line"/>
      <point x="538" y="440" type="line"/>
      <point x="538" y="288" type="line"/>
    </contour>
    <contour>
      <point x="72" y="700" type="line"/>
      <point x="258" y="700" type="line"/>
      <point x="258" y="0" type="line"/>
      <point x="72" y="0" type="line"/>
    </contour>
    <contour>
      <point x="339" y="886" type="curve" smooth="yes"/>
      <point x="339" y="942"/>
      <point x="383" y="990"/>
      <point x="445" y="990" type="curve" smooth="yes"/>
      <point x="507" y="990"/>
      <point x="552" y="942"/>
      <point x="552" y="886" type="curve" smooth="yes"/>
      <point x="552" y="830"/>
      <point x="507" y="782"/>
      <point x="445" y="782" type="curve" smooth="yes"/>
      <point x="383" y="782"/>
      <point x="339" y="830"/>
    </contour>
    <contour>
      <point x="82" y="886" type="curve" smooth="yes"/>
      <point x="82" y="942"/>
      <point x="126" y="990"/>
      <point x="188" y="990" type="curve" smooth="yes"/>
      <point x="250" y="990"/>
      <point x="294" y="942"/>
      <point x="294" y="886" type="curve" smooth="yes"/>
      <point x="294" y="830"/>
      <point x="250" y="782"/>
      <point x="188" y="782" type="curve" smooth="yes"/>
      <point x="126" y="782"/>
      <point x="82" y="830"/>
    </contour>
  </outline>
</glyph>
<glyph name="Iacute" format="1">
  <advance width="342"/>
  <unicode hex="00CD"/>
  <outline>
    <contour>
      <point x="72" y="700" type="line"/>
      <point x="270" y="700" type="line"/>
      <point x="270" y="0" type="line"/>
      <point x="72" y="0" type="line"/>
    </contour>
    <contour>
      <point x="330" y="936" type="line"/>
      <point x="150" y="786" type="line"/>
      <point x="52" y="832" type="line"/>
      <point x="202" y="992" type="line"/>
    </contour>
  </outline>
</glyph>
<glyph name="Icircumflex" format="1">
  <advance width="341"/>
  <unicode hex="00CE"/>
  <outline>
    <contour>
      <point x="72" y="700" type="line"/>
      <point x="270" y="700" type="line"/>
      <point x="270" y="0" type="line"/>
      <point x="72" y="0" type="line"/>
    </contour>
    <contour>
      <point x="162" y="889" type="line"/>
      <point x="52" y="794" type="line"/>
      <point x="2" y="834" type="line"/>
      <point x="162" y="974" type="line"/>
      <point x="322" y="834" type="line"/>
      <point x="272" y="794" type="line"/>
    </contour>
  </outline>
</glyph>
<glyph name="Idieresis" format="1">
  <advance width="342"/>
  <unicode hex="00CF"/>
  <outline>
    <contour>
      <point x="72" y="700" type="line"/>
      <point x="270" y="700" type="line"/>
      <point x="270" y="0" type="line"/>
      <point x="72" y="0" type="line"/>
    </contour>
    <contour>
      <point x="194" y="882" type="curve" smooth="yes"/>
      <point x="194" y="938"/>
      <point x="238" y="986"/>
      <point x="300" y="986" type="curve" smooth="yes"/>
      <point x="362" y="986"/>
      <point x="406" y="938"/>
      <point x="406" y="882" type="curve" smooth="yes"/>
      <point x="406" y="826"/>
      <point x="362" y="778"/>
      <point x="300" y="778" type="curve" smooth="yes"/>
      <point x="238" y="778"/>
      <point x="194" y="826"/>
    </contour>
    <contour>
      <point x="-63" y="882" type="curve" smooth="yes"/>
      <point x="-63" y="938"/>
      <point x="-19" y="986"/>
      <point x="43" y="986" type="curve" smooth="yes"/>
      <point x="105" y="986"/>
      <point x="150" y="938"/>
      <point x="150" y="882" type="curve" smooth="yes"/>
      <point x="150" y="826"/>
      <point x="105" y="778"/>
      <point x="43" y="778" type="curve" smooth="yes"/>
      <point x="-19" y="778"/>
      <point x="-63" y="826"/>
    </contour>
  </outline>
</glyph>
<glyph name="Eth" format="1">
  <advance width="748"/>
  <unicode hex="00D0"/>
  <outline>
    <contour>
      <point x="6" y="300" type="line"/>
      <point x="6" y="408" type="line"/>
      <point x="370" y="408" type="line"/>
      <point x="370" y="300" type="line"/>
    </contour>
    <contour>
      <point x="72" y="700" type="line"/>
      <point x="273" y="700" type="line"/>
      <point x="273" y="0" type="line"/>
      <point x="72" y="0" type="line"/>
    </contour>
    <contour>
      <point x="334" y="0" type="curve" smooth="yes"/>
      <point x="204" y="0" type="line"/>
      <point x="204" y="170" type="line"/>
      <point x="326" y="170" type="line" smooth="yes"/>
      <point x="419" y="170"/>
      <point x="515" y="203"/>
      <point x="515" y="350" type="curve" smooth="yes"/>
      <point x="515" y="497"/>
      <point x="419" y="530"/>
      <point x="326" y="530" type="curve" smooth="yes"/>
      <point x="204" y="530" type="line"/>
      <point x="204" y="700" type="line"/>
      <point x="334" y="700" type="line" smooth="yes"/>
      <point x="570" y="700"/>
      <point x="717" y="567"/>
      <point x="717" y="350" type="curve" smooth="yes"/>
      <point x="717" y="133"/>
      <point x="570" y="0"/>
    </contour>
  </outline>
</glyph>
<glyph name="Ntilde" format="1">
  <advance width="799"/>
  <unicode hex="00D1"/>
  <outline>
    <contour>
      <point x="76" y="500" type="line"/>
      <point x="72" y="735" type="line"/>
      <point x="722" y="200" type="line"/>
      <point x="728" y="-35" type="line"/>
    </contour>
    <contour>
      <point x="541" y="700" type="line"/>
      <point x="728" y="700" type="line"/>
      <point x="728" y="-35" type="line"/>
      <point x="541" y="172" type="line"/>
    </contour>
    <contour>
      <point x="72" y="735" type="line"/>
      <point x="258" y="528" type="line"/>
      <point x="258" y="0" type="line"/>
      <point x="72" y="0" type="line"/>
    </contour>
    <contour>
      <point x="225" y="854" type="line"/>
      <point x="235" y="903"/>
      <point x="284" y="936"/>
      <point x="329" y="936" type="curve" smooth="yes"/>
      <point x="394" y="936"/>
      <point x="399" y="888"/>
      <point x="453" y="888" type="curve" smooth="yes"/>
      <point x="472" y="888"/>
      <point x="489" y="904"/>
      <point x="509" y="936" type="curve"/>
      <point x="555" y="894" type="line"/>
      <point x="539" y="857"/>
      <point x="499" y="820"/>
      <point x="449" y="820" type="curve" smooth="yes"/>
      <point x="394" y="820"/>
      <point x="373" y="868"/>
      <point x="328" y="868" type="curve" smooth="yes"/>
      <point x="287" y="868"/>
      <point x="278" y="831"/>
      <point x="278" y="816" type="curve"/>
    </contour>
  </outline>
</glyph>
<glyph name="Ograve" format="1">
  <advance width="830"/>
  <unicode hex="00D2"/>
  <outline>
    <contour>
      <point x="238" y="350" type="curve" smooth="yes"/>
      <point x="238" y="236"/>
      <point x="307" y="159"/>
      <point x="415" y="159" type="curve" smooth="yes"/>
      <point x="523" y="159"/>
      <point x="592" y="236"/>
      <point x="592" y="350" type="curve" smooth="yes"/>
      <point x="592" y="464"/>
      <point x="527" y="541"/>
      <point x="415" y="541" type="curve" smooth="yes"/>
      <point x="307" y="541"/>
      <point x="238" y="464"/>
    </contour>
    <contour>
      <point x="32" y="350" type="curve" smooth="yes"/>
      <point x="32" y="570"/>
      <point x="199" y="718"/>
      <point x="415" y="718" type="curve" smooth="yes"/>
      <point x="635" y="718"/>
      <point x="799" y="570"/>
      <point x="799" y="350" type="curve" smooth="yes"/>
      <point x="799" y="130"/>
      <point x="639" y="-26"/>
      <point x="415" y="-26" type="curve" smooth="yes"/>
      <point x="191" y="-26"/>
      <point x="32" y="130"/>
    </contour>
    <contour>
      <point x="258" y="936" type="line"/>
      <point x="386" y="992" type="line"/>
      <point x="536" y="832" type="line"/>
      <point x="438" y="786" type="line"/>
    </contour>
  </outline>
</glyph>
<glyph name="Oacute" format="1">
  <advance width="830"/>
  <unicode hex="00D3"/>
  <outline>
    <contour>
      <point x="238" y="350" type="curve" smooth="yes"/>
      <point x="238" y="236"/>
      <point x="307" y="159"/>
      <point x="415" y="159" type="curve" smooth="yes"/>
      <point x="523" y="159"/>
      <point x="592" y="236"/>
      <point x="592" y="350" type="curve" smooth="yes"/>
      <point x="592" y="464"/>
      <point x="527" y="541"/>
      <point x="415" y="541" type="curve" smooth="yes"/>
      <point x="307" y="541"/>
      <point x="238" y="464"/>
    </contour>
    <contour>
      <point x="32" y="350" type="curve" smooth="yes"/>
      <point x="32" y="570"/>
      <point x="199" y="718"/>
      <point x="415" y="718" type="curve" smooth="yes"/>
      <point x="635" y="718"/>
      <point x="799" y="570"/>
      <point x="799" y="350" type="curve" smooth="yes"/>
      <point x="799" y="130"/>
      <point x="639" y="-26"/>
      <point x="415" y="-26" type="curve" smooth="yes"/>
      <point x="191" y="-26"/>
      <point x="32" y="130"/>
    </contour>
    <contour>
      <point x="592" y="936" type="line"/>
      <point x="412" y="786" type="line"/>
      <point x="314" y="832" type="line"/>
      <point x="464" y="992" type="line"/>
    </contour>
  </outline>
</glyph>
<glyph name="Ocircumflex" format="1">
  <advance width="830"/>
  <unicode hex="00D4"/>
  <outline>
    <contour>
      <point x="238" y="350" type="curve" smooth="yes"/>
      <point x="238" y="236"/>
      <point x="306" y="158"/>
      <point x="415" y="158" type="curve" smooth="yes"/>
      <point x="524" y="158"/>
      <point x="593" y="236"/>
      <point x="593" y="350" type="curve" smooth="yes"/>
      <point x="593" y="464"/>
      <point x="528" y="542"/>
      <point x="415" y="542" type="curve" smooth="yes"/>
      <point x="306" y="542"/>
      <point x="238" y="464"/>
    </contour>
    <contour>
      <point x="32" y="350" type="curve" smooth="yes"/>
      <point x="32" y="570"/>
      <point x="199" y="718"/>
      <point x="415" y="718" type="curve" smooth="yes"/>
      <point x="635" y="718"/>
      <point x="798" y="570"/>
      <point x="798" y="350" type="curve" smooth="yes"/>
      <point x="798" y="130"/>
      <point x="639" y="-26"/>
      <point x="415" y="-26" type="curve" smooth="yes"/>
      <point x="191" y="-26"/>
      <point x="32" y="130"/>
    </contour>
    <contour>
      <point x="427" y="889" type="line"/>
      <point x="317" y="794" type="line"/>
      <point x="267" y="834" type="line"/>
      <point x="427" y="974" type="line"/>
      <point x="587" y="834" type="line"/>
      <point x="537" y="794" type="line"/>
    </contour>
  </outline>
</glyph>
<glyph name="Odieresis" format="1">
  <advance width="830"/>
  <unicode hex="00D6"/>
  <outline>
    <contour>
      <point x="238" y="350" type="curve" smooth="yes"/>
      <point x="238" y="236"/>
      <point x="307" y="159"/>
      <point x="415" y="159" type="curve" smooth="yes"/>
      <point x="523" y="159"/>
      <point x="592" y="236"/>
      <point x="592" y="350" type="curve" smooth="yes"/>
      <point x="592" y="464"/>
      <point x="527" y="541"/>
      <point x="415" y="541" type="curve" smooth="yes"/>
      <point x="307" y="541"/>
      <point x="238" y="464"/>
    </contour>
    <contour>
      <point x="32" y="350" type="curve" smooth="yes"/>
      <point x="32" y="570"/>
      <point x="199" y="718"/>
      <point x="415" y="718" type="curve" smooth="yes"/>
      <point x="635" y="718"/>
      <point x="799" y="570"/>
      <point x="799" y="350" type="curve" smooth="yes"/>
      <point x="799" y="130"/>
      <point x="639" y="-26"/>
      <point x="415" y="-26" type="curve" smooth="yes"/>
      <point x="191" y="-26"/>
      <point x="32" y="130"/>
    </contour>
    <contour>
      <point x="450" y="816" type="curve" smooth="yes"/>
      <point x="450" y="872"/>
      <point x="494" y="920"/>
      <point x="556" y="920" type="curve" smooth="yes"/>
      <point x="618" y="920"/>
      <point x="662" y="872"/>
      <point x="662" y="816" type="curve" smooth="yes"/>
      <point x="662" y="760"/>
      <point x="618" y="713"/>
      <point x="556" y="713" type="curve" smooth="yes"/>
      <point x="494" y="713"/>
      <point x="450" y="760"/>
    </contour>
    <contour>
      <point x="193" y="816" type="curve" smooth="yes"/>
      <point x="193" y="872"/>
      <point x="237" y="920"/>
      <point x="299" y="920" type="curve" smooth="yes"/>
      <point x="361" y="920"/>
      <point x="405" y="872"/>
      <point x="405" y="816" type="curve" smooth="yes"/>
      <point x="405" y="760"/>
      <point x="361" y="713"/>
      <point x="299" y="713" type="curve" smooth="yes"/>
      <point x="237" y="713"/>
      <point x="193" y="760"/>
    </contour>
  </outline>
</glyph>
<glyph name="Yacute" format="1">
  <advance width="689"/>
  <unicode hex="00DD"/>
  <outline>
    <contour>
      <point x="515" y="928" type="line"/>
      <point x="335" y="778" type="line"/>
      <point x="238" y="824" type="line"/>
      <point x="388" y="984" type="line"/>
    </contour>
    <contour>
      <point x="468" y="700" type="line"/>
      <point x="692" y="700" type="line"/>
      <point x="444" y="280" type="line"/>
      <point x="444" y="0" type="line"/>
      <point x="246" y="0" type="line"/>
      <point x="246" y="278" type="line"/>
      <point x="-3" y="700" type="line"/>
      <point x="221" y="700" type="line"/>
      <point x="345" y="455" type="line"/>
    </contour>
  </outline>
</glyph>
<glyph name="Thorn" format="1">
  <advance width="630"/>
  <unicode hex="00DE"/>
  <outline>
    <contour>
      <point x="80" y="700" type="line"/>
      <point x="246" y="700" type="line"/>
      <point x="246" y="0" type="line"/>
      <point x="80" y="0" type="line"/>
    </contour>
    <contour>
      <point x="187" y="436" type="line"/>
      <point x="187" y="584" type="line"/>
      <point x="322" y="584" type="line" smooth="yes"/>
      <point x="513" y="584"/>
      <point x="605" y="499"/>
      <point x="605" y="354" type="curve" smooth="yes"/>
      <point x="605" y="209"/>
      <point x="513" y="124"/>
      <point x="322" y="124" type="curve" smooth="yes"/>
      <point x="187" y="124" type="line"/>
      <point x="187" y="272" type="line"/>
      <point x="322" y="272" type="line" smooth="yes"/>
      <point x="395" y="272"/>
      <point x="435" y="292"/>
      <point x="435" y="354" type="curve" smooth="yes"/>
      <point x="435" y="416"/>
      <point x="395" y="436"/>
      <point x="322" y="436" type="curve" smooth="yes"/>
    </contour>
  </outline>
</glyph>
<glyph name="acircumflex" format="1">
  <advance width="562"/>
  <unicode hex="00E2"/>
  <outline>
    <contour>
      <point x="196" y="138" type="curve" smooth="yes"/>
      <point x="196" y="109"/>
      <point x="220" y="98"/>
      <point x="252" y="98" type="curve" smooth="yes"/>
      <point x="300" y="98"/>
      <point x="345" y="118"/>
      <point x="345" y="188" type="curve"/>
      <point x="361" y="130" type="line"/>
      <point x="361" y="41"/>
      <point x="287" y="-10"/>
      <point x="192" y="-10" type="curve" smooth="yes"/>
      <point x="88" y="-10"/>
      <point x="22" y="41"/>
      <point x="22" y="129" type="curve" smooth="yes"/>
      <point x="22" y="219"/>
      <point x="102" y="277"/>
      <point x="222" y="277" type="curve" smooth="yes"/>
      <point x="286" y="277"/>
      <point x="356" y="255"/>
      <point x="378" y="232" type="curve"/>
      <point x="378" y="152" type="line"/>
      <point x="347" y="176"/>
      <point x="316" y="188"/>
      <point x="266" y="188" type="curve" smooth="yes"/>
      <point x="223" y="188"/>
      <point x="196" y="168"/>
    </contour>
    <contour>
      <point x="120" y="308" type="curve"/>
      <point x="64" y="422" type="line"/>
      <point x="122" y="447"/>
      <point x="201" y="474"/>
      <point x="284" y="474" type="curve" smooth="yes"/>
      <point x="414" y="474"/>
      <point x="510" y="420"/>
      <point x="510" y="322" type="curve" smooth="yes"/>
      <point x="510" y="0" type="line"/>
      <point x="345" y="0" type="line"/>
      <point x="345" y="283" type="line" smooth="yes"/>
      <point x="345" y="320"/>
      <point x="318" y="346"/>
      <point x="268" y="346" type="curve" smooth="yes"/>
      <point x="202" y="346"/>
      <point x="142" y="320"/>
    </contour>
    <contour>
      <point x="284" y="616" type="line"/>
      <point x="199" y="534" type="line"/>
      <point x="76" y="614" type="line"/>
      <point x="284" y="754" type="line"/>
      <point x="494" y="614" type="line"/>
      <point x="370" y="534" type="line"/>
    </contour>
  </outline>
</glyph>
<glyph name="atilde" format="1">
  <advance width="561"/>
  <unicode hex="00E3"/>
  <outline>
    <contour>
      <point x="196" y="138" type="curve" smooth="yes"/>
      <point x="196" y="109"/>
      <point x="220" y="97"/>
      <point x="252" y="97" type="curve" smooth="yes"/>
      <point x="300" y="97"/>
      <point x="345" y="118"/>
      <point x="345" y="188" type="curve"/>
      <point x="361" y="130" type="line"/>
      <point x="361" y="41"/>
      <point x="287" y="-10"/>
      <point x="192" y="-10" type="curve" smooth="yes"/>
      <point x="89" y="-10"/>
      <point x="22" y="41"/>
      <point x="22" y="129" type="curve" smooth="yes"/>
      <point x="22" y="220"/>
      <point x="103" y="277"/>
      <point x="222" y="277" type="curve" smooth="yes"/>
      <point x="286" y="277"/>
      <point x="356" y="254"/>
      <point x="378" y="231" type="curve"/>
      <point x="378" y="153" type="line"/>
      <point x="347" y="177"/>
      <point x="316" y="189"/>
      <point x="266" y="189" type="curve" smooth="yes"/>
      <point x="223" y="189"/>
      <point x="196" y="168"/>
    </contour>
    <contour>
      <point x="119" y="309" type="curve"/>
      <point x="64" y="422" type="line"/>
      <point x="122" y="447"/>
      <point x="201" y="474"/>
      <point x="284" y="474" type="curve" smooth="yes"/>
      <point x="413" y="474"/>
      <point x="510" y="419"/>
      <point x="510" y="322" type="curve" smooth="yes"/>
      <point x="510" y="0" type="line"/>
      <point x="345" y="0" type="line"/>
      <point x="345" y="283" type="line" smooth="yes"/>
      <point x="345" y="320"/>
      <point x="318" y="346"/>
      <point x="268" y="346" type="curve" smooth="yes"/>
      <point x="202" y="346"/>
      <point x="141" y="321"/>
    </contour>
    <contour>
      <point x="79" y="608" type="line"/>
      <point x="89" y="657"/>
      <point x="134" y="706"/>
      <point x="203" y="706" type="curve" smooth="yes"/>
      <point x="270" y="706"/>
      <point x="286" y="653"/>
      <point x="343" y="653" type="curve" smooth="yes"/>
      <point x="370" y="653"/>
      <point x="391" y="675"/>
      <point x="411" y="707" type="curve"/>
      <point x="490" y="624" type="line"/>
      <point x="474" y="587"/>
      <point x="413" y="535"/>
      <point x="347" y="535" type="curve" smooth="yes"/>
      <point x="292" y="535"/>
      <point x="253" y="590"/>
      <point x="202" y="590" type="curve" smooth="yes"/>
      <point x="165" y="590"/>
      <point x="156" y="554"/>
      <point x="156" y="539" type="curve"/>
    </contour>
  </outline>
</glyph>
<glyph name="adieresis" format="1">
  <advance width="561"/>
  <unicode hex="00E4"/>
  <outline>
    <contour>
      <point x="196" y="138" type="curve" smooth="yes"/>
      <point x="196" y="109"/>
      <point x="220" y="97"/>
      <point x="252" y="97" type="curve" smooth="yes"/>
      <point x="300" y="97"/>
      <point x="345" y="118"/>
      <point x="345" y="188" type="curve"/>
      <point x="361" y="130" type="line"/>
      <point x="361" y="41"/>
      <point x="287" y="-10"/>
      <point x="192" y="-10" type="curve" smooth="yes"/>
      <point x="89" y="-10"/>
      <point x="22" y="41"/>
      <point x="22" y="129" type="curve" smooth="yes"/>
      <point x="22" y="220"/>
      <point x="103" y="277"/>
      <point x="222" y="277" type="curve" smooth="yes"/>
      <point x="286" y="277"/>
      <point x="356" y="254"/>
      <point x="378" y="231" type="curve"/>
      <point x="378" y="153" type="line"/>
      <point x="347" y="177"/>
      <point x="316" y="189"/>
      <point x="266" y="189" type="curve" smooth="yes"/>
      <point x="223" y="189"/>
      <point x="196" y="168"/>
    </contour>
    <contour>
      <point x="119" y="309" type="curve"/>
      <point x="64" y="422" type="line"/>
      <point x="122" y="447"/>
      <point x="201" y="474"/>
      <point x="284" y="474" type="curve" smooth="yes"/>
      <point x="413" y="474"/>
      <point x="510" y="419"/>
      <point x="510" y="322" type="curve" smooth="yes"/>
      <point x="510" y="0" type="line"/>
      <point x="345" y="0" type="line"/>
      <point x="345" y="283" type="line" smooth="yes"/>
      <point x="345" y="320"/>
      <point x="318" y="346"/>
      <point x="268" y="346" type="curve" smooth="yes"/>
      <point x="202" y="346"/>
      <point x="141" y="321"/>
    </contour>
    <contour>
      <point x="315" y="624" type="curve" smooth="yes"/>
      <point x="315" y="678"/>
      <point x="359" y="713"/>
      <point x="413" y="713" type="curve" smooth="yes"/>
      <point x="467" y="713"/>
      <point x="510" y="678"/>
      <point x="510" y="624" type="curve" smooth="yes"/>
      <point x="510" y="570"/>
      <point x="467" y="534"/>
      <point x="413" y="534" type="curve" smooth="yes"/>
      <point x="359" y="534"/>
      <point x="315" y="570"/>
    </contour>
    <contour>
      <point x="58" y="624" type="curve" smooth="yes"/>
      <point x="58" y="678"/>
      <point x="102" y="713"/>
      <point x="156" y="713" type="curve" smooth="yes"/>
      <point x="210" y="713"/>
      <point x="254" y="678"/>
      <point x="254" y="624" type="curve" smooth="yes"/>
      <point x="254" y="570"/>
      <point x="210" y="534"/>
      <point x="156" y="534" type="curve" smooth="yes"/>
      <point x="102" y="534"/>
      <point x="58" y="570"/>
    </contour>
  </outline>
</glyph>
<glyph name="ae" format="1">
  <advance width="916"/>
  <unicode hex="00E6"/>
  <outline>
    <contour>
      <point x="196" y="138" type="curve" smooth="yes"/>
      <point x="196" y="109"/>
      <point x="220" y="97"/>
      <point x="252" y="97" type="curve" smooth="yes"/>
      <point x="300" y="97"/>
      <point x="345" y="118"/>
      <point x="345" y="188" type="curve"/>
      <point x="423" y="130" type="line"/>
      <point x="423" y="41"/>
      <point x="355" y="-10"/>
      <point x="220" y="-10" type="curve" smooth="yes"/>
      <point x="97" y="-10"/>
      <point x="22" y="41"/>
      <point x="22" y="129" type="curve" smooth="yes"/>
      <point x="22" y="220"/>
      <point x="103" y="277"/>
      <point x="222" y="277" type="curve" smooth="yes"/>
      <point x="286" y="277"/>
      <point x="356" y="254"/>
      <point x="378" y="231" type="curve"/>
      <point x="378" y="153" type="line"/>
      <point x="347" y="177"/>
      <point x="316" y="189"/>
      <point x="266" y="189" type="curve" smooth="yes"/>
      <point x="223" y="189"/>
      <point x="196" y="168"/>
    </contour>
    <contour>
      <point x="119" y="309" type="curve"/>
      <point x="64" y="422" type="line"/>
      <point x="122" y="447"/>
      <point x="201" y="474"/>
      <point x="284" y="474" type="curve" smooth="yes"/>
      <point x="413" y="474"/>
      <point x="449" y="419"/>
      <point x="449" y="322" type="curve" smooth="yes"/>
      <point x="449" y="130" type="line"/>
      <point x="345" y="130" type="line"/>
      <point x="345" y="281" type="line" smooth="yes"/>
      <point x="345" y="318"/>
      <point x="318" y="346"/>
      <point x="268" y="346" type="curve" smooth="yes"/>
      <point x="202" y="346"/>
      <point x="141" y="321"/>
    </contour>
    <contour>
      <point x="422" y="194" type="line"/>
      <point x="422" y="283" type="line"/>
      <point x="866" y="283" type="line"/>
      <point x="881" y="194" type="line"/>
    </contour>
    <contour>
      <point x="701" y="242" type="line" smooth="yes"/>
      <point x="701" y="320"/>
      <point x="679" y="360"/>
      <point x="621" y="360" type="curve" smooth="yes"/>
      <point x="565" y="360"/>
      <point x="533" y="322"/>
      <point x="533" y="252" type="curve"/>
      <point x="531" y="230" type="line"/>
      <point x="531" y="140"/>
      <point x="575" y="109"/>
      <point x="625" y="109" type="curve" smooth="yes"/>
      <point x="676" y="109"/>
      <point x="712" y="128"/>
      <point x="731" y="162" type="curve"/>
      <point x="887" y="131" type="line"/>
      <point x="841" y="45"/>
      <point x="767" y="-10"/>
      <point x="632" y="-10" type="curve" smooth="yes"/>
      <point x="451" y="-10"/>
      <point x="399" y="91"/>
      <point x="399" y="230" type="curve" smooth="yes"/>
      <point x="399" y="247"/>
      <point x="402" y="263"/>
      <point x="405" y="279" type="curve" smooth="yes"/>
      <point x="424" y="392"/>
      <point x="509" y="470"/>
      <point x="652" y="470" type="curve" smooth="yes"/>
      <point x="794" y="470"/>
      <point x="883" y="383"/>
      <point x="883" y="238" type="curve" smooth="yes"/>
      <point x="883" y="230"/>
      <point x="883" y="213"/>
      <point x="881" y="194" type="curve"/>
      <point x="701" y="214" type="line"/>
    </contour>
  </outline>
</glyph>
<glyph name="ccedilla" format="1">
  <advance width="497"/>
  <unicode hex="00E7"/>
  <outline>
    <contour>
      <point x="208" y="230" type="curve" smooth="yes"/>
      <point x="208" y="162"/>
      <point x="258" y="124"/>
      <point x="320" y="124" type="curve" smooth="yes"/>
      <point x="370" y="124"/>
      <point x="419" y="145"/>
      <point x="448" y="188" type="curve"/>
      <point x="448" y="26" type="line"/>
      <point x="416" y="4"/>
      <point x="375" y="-10"/>
      <point x="304" y="-10" type="curve" smooth="yes"/>
      <point x="145" y="-10"/>
      <point x="30" y="83"/>
      <point x="30" y="230" type="curve" smooth="yes"/>
      <point x="30" y="377"/>
      <point x="145" y="470"/>
      <point x="304" y="470" type="curve" smooth="yes"/>
      <point x="375" y="470"/>
      <point x="416" y="453"/>
      <point x="448" y="435" type="curve"/>
      <point x="448" y="273" type="line"/>
      <point x="419" y="316"/>
      <point x="362" y="336"/>
      <point x="320" y="336" type="curve" smooth="yes"/>
      <point x="258" y="336"/>
      <point x="208" y="290"/>
    </contour>
    <contour>
      <point x="231" y="61" type="line"/>
      <point x="356" y="57" type="line"/>
      <point x="263" y="-68" type="line"/>
      <point x="276" y="-65"/>
      <point x="291" y="-64"/>
      <point x="307" y="-64" type="curve" smooth="yes"/>
      <point x="349" y="-64"/>
      <point x="405" y="-97"/>
      <point x="405" y="-168" type="curve" smooth="yes"/>
      <point x="405" y="-244"/>
      <point x="332" y="-282"/>
      <point x="266" y="-282" type="curve" smooth="yes"/>
      <point x="205" y="-282"/>
      <point x="158" y="-272"/>
      <point x="106" y="-242" type="curve"/>
      <point x="155" y="-165" type="line"/>
      <point x="182" y="-184"/>
      <point x="223" y="-191"/>
      <point x="241" y="-191" type="curve" smooth="yes"/>
      <point x="275" y="-191"/>
      <point x="296" y="-181"/>
      <point x="296" y="-157" type="curve" smooth="yes"/>
      <point x="296" y="-130"/>
      <point x="262" y="-126"/>
      <point x="232" y="-126" type="curve" smooth="yes"/>
      <point x="222" y="-126"/>
      <point x="182" y="-127"/>
      <point x="143" y="-141" type="curve"/>
    </contour>
  </outline>
</glyph>
<glyph name="igrave" format="1">
  <advance width="281"/>
  <unicode hex="00EC"/>
  <outline>
    <contour>
      <point x="56" y="460" type="line"/>
      <point x="224" y="460" type="line"/>
      <point x="224" y="0" type="line"/>
      <point x="56" y="0" type="line"/>
    </contour>
    <contour>
      <point x="-46" y="684" type="line"/>
      <point x="82" y="740" type="line"/>
      <point x="232" y="580" type="line"/>
      <point x="134" y="534" type="line"/>
    </contour>
  </outline>
</glyph>
<glyph name="iacute" format="1">
  <advance width="280"/>
  <unicode hex="00ED"/>
  <outline>
    <contour>
      <point x="57" y="460" type="line"/>
      <point x="223" y="460" type="line"/>
      <point x="223" y="0" type="line"/>
      <point x="57" y="0" type="line"/>
    </contour>
    <contour>
      <point x="316" y="685" type="line"/>
      <point x="136" y="535" type="line"/>
      <point x="38" y="581" type="line"/>
      <point x="188" y="741" type="line"/>
    </contour>
  </outline>
</glyph>
<glyph name="icircumflex" format="1">
  <advance width="281"/>
  <unicode hex="00EE"/>
  <outline>
    <contour>
      <point x="56" y="460" type="line"/>
      <point x="224" y="460" type="line"/>
      <point x="224" y="0" type="line"/>
      <point x="56" y="0" type="line"/>
    </contour>
    <contour>
      <point x="140" y="616" type="line"/>
      <point x="54" y="532" type="line"/>
      <point x="-69" y="614" type="line"/>
      <point x="140" y="754" type="line"/>
      <point x="348" y="614" type="line"/>
      <point x="226" y="532" type="line"/>
    </contour>
  </outline>
</glyph>
<glyph name="idieresis" format="1">
  <advance width="280"/>
  <unicode hex="00EF"/>
  <outline>
    <contour>
      <point x="57" y="460" type="line"/>
      <point x="223" y="460" type="line"/>
      <point x="223" y="0" type="line"/>
      <point x="57" y="0" type="line"/>
    </contour>
    <contour>
      <point x="171" y="626" type="curve" smooth="yes"/>
      <point x="171" y="680"/>
      <point x="215" y="716"/>
      <point x="269" y="716" type="curve" smooth="yes"/>
      <point x="323" y="716"/>
      <point x="367" y="680"/>
      <point x="367" y="626" type="curve" smooth="yes"/>
      <point x="367" y="572"/>
      <point x="323" y="536"/>
      <point x="269" y="536" type="curve" smooth="yes"/>
      <point x="215" y="536"/>
      <point x="171" y="572"/>
    </contour>
    <contour>
      <point x="-85" y="626" type="curve" smooth="yes"/>
      <point x="-85" y="680"/>
      <point x="-42" y="716"/>
      <point x="12" y="716" type="curve" smooth="yes"/>
      <point x="66" y="716"/>
      <point x="110" y="680"/>
      <point x="110" y="626" type="curve" smooth="yes"/>
      <point x="110" y="572"/>
      <point x="66" y="536"/>
      <point x="12" y="536" type="curve" smooth="yes"/>
      <point x="-42" y="536"/>
      <point x="-85" y="572"/>
    </contour>
  </outline>
</glyph>
<glyph name="eth" format="1">
  <advance width="697"/>
  <unicode hex="00F0"/>
  <outline>
    <contour>
      <point x="454" y="250" type="curve" smooth="yes"/>
      <point x="454" y="314"/>
      <point x="409" y="356"/>
      <point x="349" y="356" type="curve" smooth="yes"/>
      <point x="289" y="356"/>
      <point x="244" y="314"/>
      <point x="244" y="250" type="curve" smooth="yes"/>
      <point x="244" y="186"/>
      <point x="289" y="146"/>
      <point x="349" y="146" type="curve" smooth="yes"/>
      <point x="409" y="146"/>
      <point x="454" y="186"/>
    </contour>
    <contour>
      <point x="364" y="696" type="line"/>
      <point x="555" y="460" type="line" smooth="yes"/>
      <point x="607" y="398"/>
      <point x="648" y="332"/>
      <point x="648" y="250" type="curve" smooth="yes"/>
      <point x="648" y="70"/>
      <point x="513" y="-18"/>
      <point x="349" y="-18" type="curve" smooth="yes"/>
      <point x="185" y="-18"/>
      <point x="50" y="70"/>
      <point x="50" y="250" type="curve" smooth="yes"/>
      <point x="50" y="396"/>
      <point x="167" y="478"/>
      <point x="269" y="478" type="curve" smooth="yes"/>
      <point x="321" y="478"/>
      <point x="349" y="470"/>
      <point x="390" y="433" type="curve"/>
      <point x="346" y="454" type="line"/>
      <point x="117" y="696" type="line"/>
    </contour>
    <contour>
      <point x="130" y="520" type="line"/>
      <point x="130" y="602" type="line"/>
      <point x="610" y="602" type="line"/>
      <point x="610" y="520" type="line"/>
    </contour>
  </outline>
</glyph>
<glyph name="ntilde" format="1">
  <advance width="589"/>
  <unicode hex="00F1"/>
  <outline>
    <contour>
      <point x="228" y="460" type="line"/>
      <point x="228" y="0" type="line"/>
      <point x="55" y="0" type="line"/>
      <point x="55" y="460" type="line"/>
    </contour>
    <contour>
      <point x="354" y="280" type="line" smooth="yes"/>
      <point x="354" y="328"/>
      <point x="341" y="356"/>
      <point x="296" y="356" type="curve" smooth="yes"/>
      <point x="254" y="356"/>
      <point x="228" y="330"/>
      <point x="228" y="280" type="curve"/>
      <point x="200" y="272" type="line"/>
      <point x="200" y="381"/>
      <point x="250" y="471"/>
      <point x="369" y="471" type="curve" smooth="yes"/>
      <point x="488" y="471"/>
      <point x="535" y="409"/>
      <point x="535" y="298" type="curve" smooth="yes"/>
      <point x="535" y="0" type="line"/>
      <point x="354" y="0" type="line"/>
    </contour>
    <contour>
      <point x="90" y="605" type="line"/>
      <point x="100" y="654"/>
      <point x="144" y="703"/>
      <point x="213" y="703" type="curve" smooth="yes"/>
      <point x="280" y="703"/>
      <point x="297" y="650"/>
      <point x="354" y="650" type="curve" smooth="yes"/>
      <point x="381" y="650"/>
      <point x="402" y="672"/>
      <point x="422" y="704" type="curve"/>
      <point x="501" y="621" type="line"/>
      <point x="485" y="584"/>
      <point x="424" y="532"/>
      <point x="358" y="532" type="curve" smooth="yes"/>
      <point x="303" y="532"/>
      <point x="264" y="587"/>
      <point x="213" y="587" type="curve" smooth="yes"/>
      <point x="176" y="587"/>
      <point x="166" y="551"/>
      <point x="166" y="536" type="curve"/>
    </contour>
  </outline>
</glyph>
<glyph name="oacute" format="1">
  <advance width="602"/>
  <unicode hex="00F3"/>
  <outline>
    <contour>
      <point x="31" y="230" type="curve" smooth="yes"/>
      <point x="31" y="378"/>
      <point x="147" y="470"/>
      <point x="302" y="470" type="curve" smooth="yes"/>
      <point x="457" y="470"/>
      <point x="572" y="378"/>
      <point x="572" y="230" type="curve" smooth="yes"/>
      <point x="572" y="82"/>
      <point x="457" y="-10"/>
      <point x="302" y="-10" type="curve" smooth="yes"/>
      <point x="147" y="-10"/>
      <point x="31" y="82"/>
    </contour>
    <contour>
      <point x="210" y="230" type="curve" smooth="yes"/>
      <point x="210" y="166"/>
      <point x="252" y="130"/>
      <point x="302" y="130" type="curve" smooth="yes"/>
      <point x="352" y="130"/>
      <point x="394" y="166"/>
      <point x="394" y="230" type="curve" smooth="yes"/>
      <point x="394" y="294"/>
      <point x="352" y="331"/>
      <point x="302" y="331" type="curve" smooth="yes"/>
      <point x="252" y="331"/>
      <point x="210" y="294"/>
    </contour>
    <contour>
      <point x="462" y="684" type="line"/>
      <point x="282" y="534" type="line"/>
      <point x="184" y="580" type="line"/>
      <point x="334" y="740" type="line"/>
    </contour>
  </outline>
</glyph>
<glyph name="otilde" format="1">
  <advance width="602"/>
  <unicode hex="00F5"/>
  <outline>
    <contour>
      <point x="31" y="230" type="curve" smooth="yes"/>
      <point x="31" y="377"/>
      <point x="146" y="471"/>
      <point x="301" y="471" type="curve" smooth="yes"/>
      <point x="456" y="471"/>
      <point x="571" y="377"/>
      <point x="571" y="230" type="curve" smooth="yes"/>
      <point x="571" y="83"/>
      <point x="456" y="-10"/>
      <point x="301" y="-10" type="curve" smooth="yes"/>
      <point x="146" y="-10"/>
      <point x="31" y="83"/>
    </contour>
    <contour>
      <point x="209" y="230" type="curve" smooth="yes"/>
      <point x="209" y="166"/>
      <point x="251" y="130"/>
      <point x="301" y="130" type="curve" smooth="yes"/>
      <point x="351" y="130"/>
      <point x="394" y="166"/>
      <point x="394" y="230" type="curve" smooth="yes"/>
      <point x="394" y="294"/>
      <point x="351" y="331"/>
      <point x="301" y="331" type="curve" smooth="yes"/>
      <point x="251" y="331"/>
      <point x="209" y="294"/>
    </contour>
    <contour>
      <point x="96" y="605" type="line"/>
      <point x="106" y="654"/>
      <point x="151" y="703"/>
      <point x="220" y="703" type="curve" smooth="yes"/>
      <point x="287" y="703"/>
      <point x="303" y="650"/>
      <point x="360" y="650" type="curve" smooth="yes"/>
      <point x="387" y="650"/>
      <point x="408" y="672"/>
      <point x="428" y="704" type="curve"/>
      <point x="507" y="621" type="line"/>
      <point x="491" y="584"/>
      <point x="430" y="532"/>
      <point x="364" y="532" type="curve" smooth="yes"/>
      <point x="309" y="532"/>
      <point x="270" y="587"/>
      <point x="219" y="587" type="curve" smooth="yes"/>
      <point x="182" y="587"/>
      <point x="173" y="551"/>
      <point x="173" y="536" type="curve"/>
    </contour>
  </outline>
</glyph>
<glyph name="divide" format="1">
  <advance width="644"/>
  <unicode hex="00F7"/>
  <outline>
    <contour>
      <point x="216" y="583" type="curve" smooth="yes"/>
      <point x="216" y="640"/>
      <point x="260" y="686"/>
      <point x="322" y="686" type="curve" smooth="yes"/>
      <point x="384" y="686"/>
      <point x="428" y="640"/>
      <point x="428" y="583" type="curve" smooth="yes"/>
      <point x="428" y="526"/>
      <point x="384" y="480"/>
      <point x="322" y="480" type="curve" smooth="yes"/>
      <point x="260" y="480"/>
      <point x="216" y="526"/>
    </contour>
    <contour>
      <point x="216" y="106" type="curve" smooth="yes"/>
      <point x="216" y="163"/>
      <point x="260" y="210"/>
      <point x="322" y="210" type="curve" smooth="yes"/>
      <point x="384" y="210"/>
      <point x="428" y="163"/>
      <point x="428" y="106" type="curve" smooth="yes"/>
      <point x="428" y="49"/>
      <point x="384" y="3"/>
      <point x="322" y="3" type="curve" smooth="yes"/>
      <point x="260" y="3"/>
      <point x="216" y="49"/>
    </contour>
    <contour>
      <point x="16" y="269" type="line"/>
      <point x="16" y="422" type="line"/>
      <point x="629" y="422" type="line"/>
      <point x="629" y="269" type="line"/>
    </contour>
  </outline>
</glyph>
<glyph name="oslash" format="1">
  <advance width="546"/>
  <unicode hex="00F8"/>
  <outline>
    <contour>
      <point x="31" y="230" type="curve" smooth="yes"/>
      <point x="31" y="386"/>
      <point x="150" y="470"/>
      <point x="302" y="470" type="curve" smooth="yes"/>
      <point x="454" y="470"/>
      <point x="572" y="386"/>
      <point x="572" y="230" type="curve" smooth="yes"/>
      <point x="572" y="74"/>
      <point x="454" y="-10"/>
      <point x="302" y="-10" type="curve" smooth="yes"/>
      <point x="150" y="-10"/>
      <point x="31" y="74"/>
    </contour>
    <contour>
      <point x="194" y="230" type="curve" smooth="yes"/>
      <point x="194" y="158"/>
      <point x="244" y="122"/>
      <point x="302" y="122" type="curve" smooth="yes"/>
      <point x="360" y="122"/>
      <point x="410" y="158"/>
      <point x="410" y="230" type="curve" smooth="yes"/>
      <point x="410" y="294"/>
      <point x="360" y="338"/>
      <point x="302" y="338" type="curve" smooth="yes"/>
      <point x="244" y="338"/>
      <point x="194" y="294"/>
    </contour>
    <contour>
      <point x="460" y="508" type="line"/>
      <point x="522" y="472" type="line"/>
      <point x="132" y="-52" type="line"/>
      <point x="70" y="-16" type="line"/>
    </contour>
  </outline>
</glyph>
<glyph name="uacute" format="1">
  <advance width="590"/>
  <unicode hex="00FA"/>
  <outline>
    <contour>
      <point x="362" y="0" type="line"/>
      <point x="362" y="460" type="line"/>
      <point x="536" y="460" type="line"/>
      <point x="536" y="0" type="line"/>
    </contour>
    <contour>
      <point x="236" y="180" type="line" smooth="yes"/>
      <point x="236" y="132"/>
      <point x="249" y="105"/>
      <point x="294" y="105" type="curve" smooth="yes"/>
      <point x="336" y="105"/>
      <point x="362" y="130"/>
      <point x="362" y="180" type="curve"/>
      <point x="390" y="188" type="line"/>
      <point x="390" y="79"/>
      <point x="341" y="-10"/>
      <point x="221" y="-10" type="curve" smooth="yes"/>
      <point x="101" y="-10"/>
      <point x="55" y="52"/>
      <point x="55" y="162" type="curve" smooth="yes"/>
      <point x="55" y="460" type="line"/>
      <point x="236" y="460" type="line"/>
    </contour>
    <contour>
      <point x="447" y="684" type="line"/>
      <point x="267" y="534" type="line"/>
      <point x="170" y="580" type="line"/>
      <point x="320" y="740" type="line"/>
    </contour>
  </outline>
</glyph>
<glyph name="udieresis" format="1">
  <advance width="589"/>
  <unicode hex="00FC"/>
  <outline>
    <contour>
      <point x="362" y="0" type="line"/>
      <point x="362" y="460" type="line"/>
      <point x="535" y="460" type="line"/>
      <point x="535" y="0" type="line"/>
    </contour>
    <contour>
      <point x="236" y="180" type="line" smooth="yes"/>
      <point x="236" y="132"/>
      <point x="248" y="104"/>
      <point x="293" y="104" type="curve" smooth="yes"/>
      <point x="335" y="104"/>
      <point x="362" y="130"/>
      <point x="362" y="180" type="curve"/>
      <point x="390" y="188" type="line"/>
      <point x="390" y="79"/>
      <point x="340" y="-11"/>
      <point x="221" y="-11" type="curve" smooth="yes"/>
      <point x="102" y="-11"/>
      <point x="55" y="51"/>
      <point x="55" y="162" type="curve" smooth="yes"/>
      <point x="55" y="460" type="line"/>
      <point x="236" y="460" type="line"/>
    </contour>
    <contour>
      <point x="326" y="624" type="curve" smooth="yes"/>
      <point x="326" y="678"/>
      <point x="369" y="714"/>
      <point x="423" y="714" type="curve" smooth="yes"/>
      <point x="477" y="714"/>
      <point x="521" y="678"/>
      <point x="521" y="624" type="curve" smooth="yes"/>
      <point x="521" y="570"/>
      <point x="477" y="535"/>
      <point x="423" y="535" type="curve" smooth="yes"/>
      <point x="369" y="535"/>
      <point x="326" y="570"/>
    </contour>
    <contour>
      <point x="69" y="624" type="curve" smooth="yes"/>
      <point x="69" y="678"/>
      <point x="113" y="714"/>
      <point x="167" y="714" type="curve" smooth="yes"/>
      <point x="221" y="714"/>
      <point x="265" y="678"/>
      <point x="265" y="624" type="curve" smooth="yes"/>
      <point x="265" y="570"/>
      <point x="221" y="535"/>
      <point x="167" y="535" type="curve" smooth="yes"/>
      <point x="113" y="535"/>
      <point x="69" y="570"/>
    </contour>
  </outline>
</glyph>
<glyph name="yacute" format="1">
  <advance width="544"/>
  <unicode hex="00FD"/>
  <outline>
    <contour>
      <point x="557" y="460" type="line"/>
      <point x="257" y="-220" type="line"/>
      <point x="86" y="-220" type="line"/>
      <point x="194" y="29" type="line"/>
      <point x="-12" y="460" type="line"/>
      <point x="176" y="460" type="line"/>
      <point x="325" y="88" type="line"/>
      <point x="234" y="89" type="line"/>
      <point x="382" y="460" type="line"/>
    </contour>
    <contour>
      <point x="443" y="685" type="line"/>
      <point x="263" y="535" type="line"/>
      <point x="165" y="581" type="line"/>
      <point x="315" y="741" type="line"/>
    </contour>
  </outline>
</glyph>
<glyph name="ydieresis" format="1">
  <advance width="545"/>
  <unicode hex="00FF"/>
  <outline>
    <contour>
      <point x="558" y="460" type="line"/>
      <point x="258" y="-220" type="line"/>
      <point x="86" y="-220" type="line"/>
      <point x="194" y="28" type="line"/>
      <point x="-12" y="460" type="line"/>
      <point x="176" y="460" type="line"/>
      <point x="326" y="88" type="line"/>
      <point x="234" y="88" type="line"/>
      <point x="382" y="460" type="line"/>
    </contour>
    <contour>
      <point x="295" y="634" type="curve" smooth="yes"/>
      <point x="295" y="690"/>
      <point x="339" y="738"/>
      <point x="401" y="738" type="curve" smooth="yes"/>
      <point x="463" y="738"/>
      <point x="508" y="690"/>
      <point x="508" y="634" type="curve" smooth="yes"/>
      <point x="508" y="578"/>
      <point x="463" y="530"/>
      <point x="401" y="530" type="curve" smooth="yes"/>
      <point x="339" y="530"/>
      <point x="295" y="578"/>
    </contour>
    <contour>
      <point x="38" y="634" type="curve" smooth="yes"/>
      <point x="38" y="690"/>
      <point x="82" y="738"/>
      <point x="144" y="738" type="curve" smooth="yes"/>
      <point x="206" y="738"/>
      <point x="250" y="690"/>
      <point x="250" y="634" type="curve" smooth="yes"/>
      <point x="250" y="578"/>
      <point x="206" y="530"/>
      <point x="144" y="530" type="curve" smooth="yes"/>
      <point x="82" y="530"/>
      <point x="38" y="578"/>
    </contour>
  </outline>
</glyph>
<glyph name="Amacron" format="1">
  <advance width="757"/>
  <unicode hex="0100"/>
  <outline>
    <contour>
      <point x="196" y="112" type="line"/>
      <point x="202" y="256" type="line"/>
      <point x="560" y="256" type="line"/>
      <point x="566" y="112" type="line"/>
    </contour>
    <contour>
      <point x="379" y="412" type="line"/>
      <point x="287" y="203" type="line"/>
      <point x="299" y="159" type="line"/>
      <point x="218" y="0" type="line"/>
      <point x="-4" y="0" type="line"/>
      <point x="379" y="747" type="line"/>
      <point x="760" y="0" type="line"/>
      <point x="540" y="0" type="line"/>
      <point x="460" y="152" type="line"/>
      <point x="471" y="202" type="line"/>
    </contour>
    <contour>
      <point x="190" y="807" type="line"/>
      <point x="190" y="956" type="line"/>
      <point x="568" y="956" type="line"/>
      <point x="568" y="807" type="line"/>
    </contour>
  </outline>
</glyph>
<glyph name="Abreve" format="1">
  <advance width="756"/>
  <unicode hex="0102"/>
  <outline>
    <contour>
      <point x="195" y="113" type="line"/>
      <point x="201" y="256" type="line"/>
      <point x="560" y="256" type="line"/>
      <point x="565" y="113" type="line"/>
    </contour>
    <contour>
      <point x="378" y="413" type="line"/>
      <point x="286" y="204" type="line"/>
      <point x="299" y="160" type="line"/>
      <point x="217" y="0" type="line"/>
      <point x="-3" y="0" type="line"/>
      <point x="378" y="747" type="line"/>
      <point x="760" y="0" type="line"/>
      <point x="540" y="0" type="line"/>
      <point x="460" y="153" type="line"/>
      <point x="471" y="203" type="line"/>
    </contour>
    <contour>
      <point x="212" y="955" type="curve"/>
      <point x="320" y="955" type="line"/>
      <point x="320" y="917"/>
      <point x="348" y="900"/>
      <point x="378" y="900" type="curve" smooth="yes"/>
      <point x="408" y="900"/>
      <point x="437" y="917"/>
      <point x="437" y="955" type="curve"/>
      <point x="544" y="955" type="line"/>
      <point x="544" y="870"/>
      <point x="483" y="807"/>
      <point x="378" y="807" type="curve" smooth="yes"/>
      <point x="273" y="807"/>
      <point x="212" y="870"/>
    </contour>
  </outline>
</glyph>
<glyph name="aogonek" format="1">
  <advance width="562"/>
  <unicode hex="0105"/>
  <outline>
    <contour>
      <point x="196" y="138" type="curve" smooth="yes"/>
      <point x="196" y="109"/>
      <point x="220" y="98"/>
      <point x="252" y="98" type="curve" smooth="yes"/>
      <point x="300" y="98"/>
      <point x="345" y="118"/>
      <point x="345" y="188" type="curve"/>
      <point x="361" y="130" type="line"/>
      <point x="361" y="41"/>
      <point x="287" y="-10"/>
      <point x="192" y="-10" type="curve" smooth="yes"/>
      <point x="88" y="-10"/>
      <point x="22" y="41"/>
      <point x="22" y="129" type="curve" smooth="yes"/>
      <point x="22" y="219"/>
      <point x="102" y="277"/>
      <point x="222" y="277" type="curve" smooth="yes"/>
      <point x="286" y="277"/>
      <point x="356" y="255"/>
      <point x="378" y="232" type="curve"/>
      <point x="378" y="152" type="line"/>
      <point x="347" y="176"/>
      <point x="316" y="188"/>
      <point x="266" y="188" type="curve" smooth="yes"/>
      <point x="223" y="188"/>
      <point x="196" y="168"/>
    </contour>
    <contour>
      <point x="120" y="308" type="curve"/>
      <point x="64" y="422" type="line"/>
      <point x="122" y="447"/>
      <point x="201" y="474"/>
      <point x="284" y="474" type="curve" smooth="yes"/>
      <point x="414" y="474"/>
      <point x="510" y="420"/>
      <point x="510" y="322" type="curve" smooth="yes"/>
      <point x="510" y="0" type="line"/>
      <point x="345" y="0" type="line"/>
      <point x="345" y="283" type="line" smooth="yes"/>
      <point x="345" y="320"/>
      <point x="318" y="346"/>
      <point x="268" y="346" type="curve" smooth="yes"/>
      <point x="202" y="346"/>
      <point x="142" y="320"/>
    </contour>
    <contour>
      <point x="486" y="-104" type="curve"/>
      <point x="519" y="-178" type="line"/>
      <point x="504" y="-198"/>
      <point x="475" y="-218"/>
      <point x="415" y="-218" type="curve" smooth="yes"/>
      <point x="355" y="-218"/>
      <point x="300" y="-186"/>
      <point x="300" y="-118" type="curve"/>
      <point x="404" y="-90" type="line"/>
      <point x="404" y="-112"/>
      <point x="414" y="-124"/>
      <point x="436" y="-124" type="curve" smooth="yes"/>
      <point x="454" y="-124"/>
      <point x="472" y="-117"/>
    </contour>
    <contour>
      <point x="404" y="-90" type="curve"/>
      <point x="300" y="-118" type="line"/>
      <point x="300" y="-50"/>
      <point x="370" y="-8"/>
      <point x="440" y="28" type="curve"/>
      <point x="481" y="2" type="line"/>
      <point x="429" y="-28"/>
      <point x="404" y="-62"/>
    </contour>
  </outline>
</glyph>
<glyph name="Cdotaccent" format="1">
  <advance width="705"/>
  <unicode hex="010A"/>
  <outline>
    <contour>
      <point x="246" y="350" type="curve" smooth="yes"/>
      <point x="246" y="232"/>
      <point x="334" y="166"/>
      <point x="440" y="166" type="curve" smooth="yes"/>
      <point x="539" y="166"/>
      <point x="599" y="210"/>
      <point x="644" y="256" type="curve"/>
      <point x="644" y="50" type="line"/>
      <point x="588" y="10"/>
      <point x="528" y="-18"/>
      <point x="426" y="-18" type="curve" smooth="yes"/>
      <point x="192" y="-18"/>
      <point x="32" y="129"/>
      <point x="32" y="350" type="curve" smooth="yes"/>
      <point x="32" y="571"/>
      <point x="192" y="718"/>
      <point x="426" y="718" type="curve" smooth="yes"/>
      <point x="528" y="718"/>
      <point x="588" y="690"/>
      <point x="644" y="650" type="curve"/>
      <point x="644" y="444" type="line"/>
      <point x="599" y="490"/>
      <point x="539" y="534"/>
      <point x="440" y="534" type="curve" smooth="yes"/>
      <point x="334" y="534"/>
      <point x="246" y="468"/>
    </contour>
    <contour>
      <point x="320" y="882" type="curve" smooth="yes"/>
      <point x="320" y="938"/>
      <point x="364" y="986"/>
      <point x="426" y="986" type="curve" smooth="yes"/>
      <point x="488" y="986"/>
      <point x="532" y="938"/>
      <point x="532" y="882" type="curve" smooth="yes"/>
      <point x="532" y="826"/>
      <point x="488" y="778"/>
      <point x="426" y="778" type="curve" smooth="yes"/>
      <point x="364" y="778"/>
      <point x="320" y="826"/>
    </contour>
  </outline>
</glyph>
<glyph name="cdotaccent" format="1">
  <advance width="498"/>
  <unicode hex="010B"/>
  <outline>
    <contour>
      <point x="208" y="230" type="curve" smooth="yes"/>
      <point x="208" y="162"/>
      <point x="258" y="124"/>
      <point x="320" y="124" type="curve" smooth="yes"/>
      <point x="370" y="124"/>
      <point x="418" y="144"/>
      <point x="448" y="188" type="curve"/>
      <point x="448" y="26" type="line"/>
      <point x="416" y="4"/>
      <point x="376" y="-10"/>
      <point x="304" y="-10" type="curve" smooth="yes"/>
      <point x="144" y="-10"/>
      <point x="30" y="82"/>
      <point x="30" y="230" type="curve" smooth="yes"/>
      <point x="30" y="378"/>
      <point x="144" y="470"/>
      <point x="304" y="470" type="curve" smooth="yes"/>
      <point x="376" y="470"/>
      <point x="416" y="454"/>
      <point x="448" y="436" type="curve"/>
      <point x="448" y="273" type="line"/>
      <point x="418" y="317"/>
      <point x="362" y="336"/>
      <point x="320" y="336" type="curve" smooth="yes"/>
      <point x="258" y="336"/>
      <point x="208" y="290"/>
    </contour>
    <contour>
      <point x="174" y="651" type="curve" smooth="yes"/>
      <point x="174" y="707"/>
      <point x="218" y="754"/>
      <point x="280" y="754" type="curve" smooth="yes"/>
      <point x="342" y="754"/>
      <point x="386" y="707"/>
      <point x="386" y="651" type="curve" smooth="yes"/>
      <point x="386" y="595"/>
      <point x="342" y="547"/>
      <point x="280" y="547" type="curve" smooth="yes"/>
      <point x="218" y="547"/>
      <point x="174" y="595"/>
    </contour>
  </outline>
</glyph>
<glyph name="dcaron" format="1">
  <advance width="630"/>
  <unicode hex="010F"/>
  <outline>
    <contour>
      <point x="404" y="780" type="line"/>
      <point x="578" y="780" type="line"/>
      <point x="578" y="0" type="line"/>
      <point x="404" y="0" type="line"/>
    </contour>
    <contour>
      <point x="31" y="230" type="curve" smooth="yes"/>
      <point x="31" y="388"/>
      <point x="138" y="470"/>
      <point x="246" y="470" type="curve" smooth="yes"/>
      <point x="361" y="470"/>
      <point x="448" y="379"/>
      <point x="448" y="230" type="curve" smooth="yes"/>
      <point x="448" y="81"/>
      <point x="361" y="-10"/>
      <point x="246" y="-10" type="curve" smooth="yes"/>
      <point x="138" y="-10"/>
      <point x="31" y="72"/>
    </contour>
    <contour>
      <point x="214" y="230" type="curve" smooth="yes"/>
      <point x="214" y="168"/>
      <point x="258" y="126"/>
      <point x="310" y="126" type="curve" smooth="yes"/>
      <point x="356" y="126"/>
      <point x="404" y="164"/>
      <point x="404" y="230" type="curve" smooth="yes"/>
      <point x="404" y="296"/>
      <point x="356" y="334"/>
      <point x="310" y="334" type="curve" smooth="yes"/>
      <point x="258" y="334"/>
      <point x="214" y="292"/>
    </contour>
    <contour>
      <point x="696" y="780" type="line"/>
      <point x="868" y="747" type="line"/>
      <point x="738" y="497" type="line"/>
      <point x="608" y="521" type="line"/>
    </contour>
  </outline>
</glyph>
<glyph name="Emacron" format="1">
  <advance width="619"/>
  <unicode hex="0112"/>
  <outline>
    <contour>
      <point x="204" y="0" type="line"/>
      <point x="204" y="158" type="line"/>
      <point x="558" y="158" type="line"/>
      <point x="558" y="0" type="line"/>
    </contour>
    <contour>
      <point x="204" y="542" type="line"/>
      <point x="204" y="700" type="line"/>
      <point x="558" y="700" type="line"/>
      <point x="558" y="542" type="line"/>
    </contour>
    <contour>
      <point x="204" y="288" type="line"/>
      <point x="204" y="440" type="line"/>
      <point x="538" y="440" type="line"/>
      <point x="538" y="288" type="line"/>
    </contour>
    <contour>
      <point x="72" y="700" type="line"/>
      <point x="258" y="700" type="line"/>
      <point x="258" y="0" type="line"/>
      <point x="72" y="0" type="line"/>
    </contour>
    <contour>
      <point x="125" y="778" type="line"/>
      <point x="125" y="926" type="line"/>
      <point x="504" y="926" type="line"/>
      <point x="504" y="778" type="line"/>
    </contour>
  </outline>
</glyph>
<glyph name="Ebreve" format="1">
  <advance width="619"/>
  <unicode hex="0114"/>
  <outline>
    <contour>
      <point x="204" y="0" type="line"/>
      <point x="204" y="158" type="line"/>
      <point x="558" y="158" type="line"/>
      <point x="558" y="0" type="line"/>
    </contour>
    <contour>
      <point x="204" y="542" type="line"/>
      <point x="204" y="700" type="line"/>
      <point x="558" y="700" type="line"/>
      <point x="558" y="542" type="line"/>
    </contour>
    <contour>
      <point x="204" y="288" type="line"/>
      <point x="204" y="440" type="line"/>
      <point x="538" y="440" type="line"/>
      <point x="538" y="288" type="line"/>
    </contour>
    <contour>
      <point x="72" y="700" type="line"/>
      <point x="258" y="700" type="line"/>
      <point x="258" y="0" type="line"/>
      <point x="72" y="0" type="line"/>
    </contour>
    <contour>
      <point x="148" y="926" type="curve"/>
      <point x="256" y="926" type="line"/>
      <point x="256" y="888"/>
      <point x="284" y="872"/>
      <point x="314" y="872" type="curve" smooth="yes"/>
      <point x="344" y="872"/>
      <point x="373" y="888"/>
      <point x="373" y="926" type="curve"/>
      <point x="480" y="926" type="line"/>
      <point x="480" y="840"/>
      <point x="419" y="778"/>
      <point x="314" y="778" type="curve" smooth="yes"/>
      <point x="209" y="778"/>
      <point x="148" y="840"/>
    </contour>
  </outline>
</glyph>
<glyph name="Edotaccent" format="1">
  <advance width="619"/>
  <unicode hex="0116"/>
  <outline>
    <contour>
      <point x="204" y="0" type="line"/>
      <point x="204" y="158" type="line"/>
      <point x="558" y="158" type="line"/>
      <point x="558" y="0" type="line"/>
    </contour>
    <contour>
      <point x="204" y="542" type="line"/>
      <point x="204" y="700" type="line"/>
      <point x="558" y="700" type="line"/>
      <point x="558" y="542" type="line"/>
    </contour>
    <contour>
      <point x="204" y="288" type="line"/>
      <point x="204" y="440" type="line"/>
      <point x="538" y="440" type="line"/>
      <point x="538" y="288" type="line"/>
    </contour>
    <contour>
      <point x="72" y="700" type="line"/>
      <point x="258" y="700" type="line"/>
      <point x="258" y="0" type="line"/>
      <point x="72" y="0" type="line"/>
    </contour>
    <contour>
      <point x="208" y="882" type="curve" smooth="yes"/>
      <point x="208" y="938"/>
      <point x="252" y="986"/>
      <point x="314" y="986" type="curve" smooth="yes"/>
      <point x="376" y="986"/>
      <point x="420" y="938"/>
      <point x="420" y="882" type="curve" smooth="yes"/>
      <point x="420" y="826"/>
      <point x="376" y="778"/>
      <point x="314" y="778" type="curve" smooth="yes"/>
      <point x="252" y="778"/>
      <point x="208" y="826"/>
    </contour>
  </outline>
</glyph>
<glyph name="Eogonek" format="1">
  <advance width="619"/>
  <unicode hex="0118"/>
  <outline>
    <contour>
      <point x="204" y="0" type="line"/>
      <point x="204" y="158" type="line"/>
      <point x="558" y="158" type="line"/>
      <point x="558" y="0" type="line"/>
    </contour>
    <contour>
      <point x="204" y="542" type="line"/>
      <point x="204" y="700" type="line"/>
      <point x="558" y="700" type="line"/>
      <point x="558" y="542" type="line"/>
    </contour>
    <contour>
      <point x="204" y="288" type="line"/>
      <point x="204" y="440" type="line"/>
      <point x="538" y="440" type="line"/>
      <point x="538" y="288" type="line"/>
    </contour>
    <contour>
      <point x="72" y="700" type="line"/>
      <point x="258" y="700" type="line"/>
      <point x="258" y="0" type="line"/>
      <point x="72" y="0" type="line"/>
    </contour>
    <contour>
      <point x="527" y="-104" type="curve"/>
      <point x="560" y="-178" type="line"/>
      <point x="545" y="-198"/>
      <point x="516" y="-218"/>
      <point x="456" y="-218" type="curve" smooth="yes"/>
      <point x="396" y="-218"/>
      <point x="340" y="-186"/>
      <point x="340" y="-118" type="curve"/>
      <point x="445" y="-90" type="line"/>
      <point x="445" y="-112"/>
      <point x="455" y="-124"/>
      <point x="477" y="-124" type="curve" smooth="yes"/>
      <point x="495" y="-124"/>
      <point x="513" y="-117"/>
    </contour>
    <contour>
      <point x="445" y="-90" type="curve"/>
      <point x="340" y="-118" type="line"/>
      <point x="340" y="-50"/>
      <point x="411" y="-9"/>
      <point x="481" y="27" type="curve"/>
      <point x="522" y="2" type="line"/>
      <point x="470" y="-28"/>
      <point x="445" y="-62"/>
    </contour>
  </outline>
</glyph>
<glyph name="eogonek" format="1">
  <advance width="591"/>
  <unicode hex="0119"/>
  <outline>
    <contour>
      <point x="96" y="194" type="line"/>
      <point x="96" y="283" type="line"/>
      <point x="540" y="283" type="line"/>
      <point x="556" y="194" type="line"/>
    </contour>
    <contour>
      <point x="375" y="242" type="line" smooth="yes"/>
      <point x="375" y="320"/>
      <point x="354" y="360"/>
      <point x="296" y="360" type="curve" smooth="yes"/>
      <point x="240" y="360"/>
      <point x="208" y="322"/>
      <point x="208" y="252" type="curve"/>
      <point x="206" y="230" type="line"/>
      <point x="206" y="140"/>
      <point x="250" y="110"/>
      <point x="300" y="110" type="curve" smooth="yes"/>
      <point x="350" y="110"/>
      <point x="385" y="128"/>
      <point x="404" y="162" type="curve"/>
      <point x="562" y="132" type="line"/>
      <point x="516" y="46"/>
      <point x="442" y="-10"/>
      <point x="306" y="-10" type="curve" smooth="yes"/>
      <point x="124" y="-10"/>
      <point x="31" y="91"/>
      <point x="31" y="230" type="curve" smooth="yes"/>
      <point x="31" y="247"/>
      <point x="32" y="263"/>
      <point x="35" y="279" type="curve" smooth="yes"/>
      <point x="54" y="392"/>
      <point x="140" y="470"/>
      <point x="300" y="470" type="curve" smooth="yes"/>
      <point x="470" y="470"/>
      <point x="558" y="383"/>
      <point x="558" y="238" type="curve" smooth="yes"/>
      <point x="558" y="230"/>
      <point x="558" y="212"/>
      <point x="556" y="194" type="curve"/>
      <point x="375" y="214" type="line"/>
    </contour>
    <contour>
      <point x="344" y="-112" type="curve"/>
      <point x="376" y="-186" type="line"/>
      <point x="361" y="-206"/>
      <point x="332" y="-226"/>
      <point x="272" y="-226" type="curve" smooth="yes"/>
      <point x="212" y="-226"/>
      <point x="158" y="-194"/>
      <point x="158" y="-126" type="curve"/>
      <point x="262" y="-98" type="line"/>
      <point x="262" y="-120"/>
      <point x="272" y="-132"/>
      <point x="294" y="-132" type="curve" smooth="yes"/>
      <point x="312" y="-132"/>
      <point x="330" y="-125"/>
    </contour>
    <contour>
      <point x="262" y="-98" type="curve"/>
      <point x="158" y="-126" type="line"/>
      <point x="158" y="-58"/>
      <point x="228" y="-17"/>
      <point x="298" y="19" type="curve"/>
      <point x="338" y="-6" type="line"/>
      <point x="286" y="-36"/>
      <point x="262" y="-70"/>
    </contour>
  </outline>
</glyph>
<glyph name="Ecaron" format="1">
  <advance width="619"/>
  <unicode hex="011A"/>
  <outline>
    <contour>
      <point x="204" y="0" type="line"/>
      <point x="204" y="158" type="line"/>
      <point x="558" y="158" type="line"/>
      <point x="558" y="0" type="line"/>
    </contour>
    <contour>
      <point x="204" y="542" type="line"/>
      <point x="204" y="700" type="line"/>
      <point x="558" y="700" type="line"/>
      <point x="558" y="542" type="line"/>
    </contour>
    <contour>
      <point x="204" y="288" type="line"/>
      <point x="204" y="440" type="line"/>
      <point x="538" y="440" type="line"/>
      <point x="538" y="288" type="line"/>
    </contour>
    <contour>
      <point x="72" y="700" type="line"/>
      <point x="258" y="700" type="line"/>
      <point x="258" y="0" type="line"/>
      <point x="72" y="0" type="line"/>
    </contour>
    <contour>
      <point x="314" y="916" type="line"/>
      <point x="400" y="999" type="line"/>
      <point x="523" y="918" type="line"/>
      <point x="314" y="778" type="line"/>
      <point x="106" y="918" type="line"/>
      <point x="228" y="999" type="line"/>
    </contour>
  </outline>
</glyph>
<glyph name="gdotaccent" format="1">
  <advance width="622"/>
  <unicode hex="0121"/>
  <outline>
    <contour>
      <point x="41" y="-34" type="curve"/>
      <point x="207" y="-34" type="line"/>
      <point x="213" y="-88"/>
      <point x="250" y="-107"/>
      <point x="300" y="-107" type="curve" smooth="yes"/>
      <point x="362" y="-107"/>
      <point x="404" y="-66"/>
      <point x="404" y="10" type="curve" smooth="yes"/>
      <point x="404" y="460" type="line"/>
      <point x="569" y="460" type="line"/>
      <point x="569" y="10" type="line" smooth="yes"/>
      <point x="569" y="-173"/>
      <point x="455" y="-242"/>
      <point x="308" y="-242" type="curve" smooth="yes"/>
      <point x="125" y="-242"/>
      <point x="56" y="-157"/>
    </contour>
    <contour>
      <point x="31" y="238" type="curve" smooth="yes"/>
      <point x="31" y="395"/>
      <point x="138" y="470"/>
      <point x="247" y="470" type="curve" smooth="yes"/>
      <point x="362" y="470"/>
      <point x="448" y="387"/>
      <point x="448" y="238" type="curve" smooth="yes"/>
      <point x="448" y="89"/>
      <point x="362" y="6"/>
      <point x="247" y="6" type="curve" smooth="yes"/>
      <point x="138" y="6"/>
      <point x="31" y="81"/>
    </contour>
    <contour>
      <point x="213" y="238" type="curve" smooth="yes"/>
      <point x="213" y="176"/>
      <point x="256" y="142"/>
      <point x="309" y="142" type="curve" smooth="yes"/>
      <point x="355" y="142"/>
      <point x="404" y="172"/>
      <point x="404" y="238" type="curve" smooth="yes"/>
      <point x="404" y="304"/>
      <point x="355" y="335"/>
      <point x="309" y="335" type="curve" smooth="yes"/>
      <point x="256" y="335"/>
      <point x="213" y="300"/>
    </contour>
    <contour>
      <point x="217" y="628" type="curve" smooth="yes"/>
      <point x="217" y="682"/>
      <point x="261" y="718"/>
      <point x="315" y="718" type="curve" smooth="yes"/>
      <point x="369" y="718"/>
      <point x="413" y="682"/>
      <point x="413" y="628" type="curve" smooth="yes"/>
      <point x="413" y="574"/>
      <point x="369" y="538"/>
      <point x="315" y="538" type="curve" smooth="yes"/>
      <point x="261" y="538"/>
      <point x="217" y="574"/>
    </contour>
  </outline>
</glyph>
<glyph name="uni0122" format="1">
  <advance width="825"/>
  <unicode hex="0122"/>
  <outline>
    <contour>
      <point x="425" y="247" type="line"/>
      <point x="425" y="391" type="line"/>
      <point x="788" y="391" type="line"/>
      <point x="804" y="161"/>
      <point x="669" y="-26"/>
      <point x="423" y="-26" type="curve" smooth="yes"/>
      <point x="195" y="-26"/>
      <point x="32" y="125"/>
      <point x="32" y="350" type="curve" smooth="yes"/>
      <point x="32" y="575"/>
      <point x="203" y="718"/>
      <point x="431" y="718" type="curve" smooth="yes"/>
      <point x="584" y="718"/>
      <point x="687" y="644"/>
      <point x="755" y="547" type="curve"/>
      <point x="578" y="463" type="line"/>
      <point x="550" y="513"/>
      <point x="506" y="552"/>
      <point x="431" y="552" type="curve" smooth="yes"/>
      <point x="323" y="552"/>
      <point x="235" y="481"/>
      <point x="235" y="350" type="curve" smooth="yes"/>
      <point x="235" y="219"/>
      <point x="315" y="140"/>
      <point x="431" y="140" type="curve" smooth="yes"/>
      <point x="523" y="140"/>
      <point x="574" y="184"/>
      <point x="597" y="247" type="curve"/>
    </contour>
    <contour>
      <point x="341" y="-86" type="line"/>
      <point x="513" y="-119" type="line"/>
      <point x="383" y="-369" type="line"/>
      <point x="253" y="-345" type="line"/>
    </contour>
  </outline>
</glyph>
<glyph name="Hcircumflex" format="1">
  <advance width="808"/>
  <unicode hex="0124"/>
  <outline>
    <contour>
      <point x="118" y="279" type="line"/>
      <point x="118" y="452" type="line"/>
      <point x="664" y="452" type="line"/>
      <point x="664" y="279" type="line"/>
    </contour>
    <contour>
      <point x="542" y="700" type="line"/>
      <point x="736" y="700" type="line"/>
      <point x="736" y="0" type="line"/>
      <point x="542" y="0" type="line"/>
    </contour>
    <contour>
      <point x="72" y="700" type="line"/>
      <point x="266" y="700" type="line"/>
      <point x="266" y="0" type="line"/>
      <point x="72" y="0" type="line"/>
    </contour>
    <contour>
      <point x="404" y="861" type="line"/>
      <point x="318" y="778" type="line"/>
      <point x="196" y="859" type="line"/>
      <point x="404" y="999" type="line"/>
      <point x="613" y="859" type="line"/>
      <point x="490" y="778" type="line"/>
    </contour>
  </outline>
</glyph>
<glyph name="hcircumflex" format="1">
  <advance width="581"/>
  <unicode hex="0125"/>
  <outline>
    <contour>
      <point x="228" y="780" type="line"/>
      <point x="228" y="0" type="line"/>
      <point x="55" y="0" type="line"/>
      <point x="55" y="780" type="line"/>
    </contour>
    <contour>
      <point x="354" y="280" type="line" smooth="yes"/>
      <point x="354" y="328"/>
      <point x="341" y="356"/>
      <point x="296" y="356" type="curve" smooth="yes"/>
      <point x="254" y="356"/>
      <point x="228" y="330"/>
      <point x="228" y="280" type="curve"/>
      <point x="200" y="280" type="line"/>
      <point x="200" y="389"/>
      <point x="250" y="479"/>
      <point x="369" y="479" type="curve" smooth="yes"/>
      <point x="488" y="479"/>
      <point x="527" y="417"/>
      <point x="527" y="306" type="curve" smooth="yes"/>
      <point x="527" y="0" type="line"/>
      <point x="354" y="0" type="line"/>
    </contour>
    <contour>
      <point x="143" y="923" type="line"/>
      <point x="57" y="840" type="line"/>
      <point x="-66" y="920" type="line"/>
      <point x="143" y="1060" type="line"/>
      <point x="351" y="920" type="line"/>
      <point x="228" y="840" type="line"/>
    </contour>
  </outline>
</glyph>
<glyph name="Itilde" format="1">
  <advance width="341"/>
  <unicode hex="0128"/>
  <outline>
    <contour>
      <point x="72" y="700" type="line"/>
      <point x="270" y="700" type="line"/>
      <point x="270" y="0" type="line"/>
      <point x="72" y="0" type="line"/>
    </contour>
    <contour>
      <point x="-34" y="852" type="line"/>
      <point x="-24" y="901"/>
      <point x="21" y="950"/>
      <point x="90" y="950" type="curve" smooth="yes"/>
      <point x="157" y="950"/>
      <point x="172" y="897"/>
      <point x="229" y="897" type="curve" smooth="yes"/>
      <point x="256" y="897"/>
      <point x="278" y="919"/>
      <point x="298" y="951" type="curve"/>
      <point x="377" y="868" type="line"/>
      <point x="361" y="831"/>
      <point x="300" y="779"/>
      <point x="234" y="779" type="curve" smooth="yes"/>
      <point x="179" y="779"/>
      <point x="140" y="834"/>
      <point x="89" y="834" type="curve" smooth="yes"/>
      <point x="52" y="834"/>
      <point x="43" y="798"/>
      <point x="43" y="783" type="curve"/>
    </contour>
  </outline>
</glyph>
<glyph name="Ibreve" format="1">
  <advance width="342"/>
  <unicode hex="012C"/>
  <outline>
    <contour>
      <point x="72" y="700" type="line"/>
      <point x="270" y="700" type="line"/>
      <point x="270" y="0" type="line"/>
      <point x="72" y="0" type="line"/>
    </contour>
    <contour>
      <point x="5" y="926" type="curve"/>
      <point x="112" y="926" type="line"/>
      <point x="112" y="888"/>
      <point x="141" y="872"/>
      <point x="171" y="872" type="curve" smooth="yes"/>
      <point x="201" y="872"/>
      <point x="230" y="888"/>
      <point x="230" y="926" type="curve"/>
      <point x="337" y="926" type="line"/>
      <point x="337" y="840"/>
      <point x="276" y="778"/>
      <point x="171" y="778" type="curve" smooth="yes"/>
      <point x="66" y="778"/>
      <point x="5" y="840"/>
    </contour>
  </outline>
</glyph>
<glyph name="iogonek" format="1">
  <advance width="281"/>
  <unicode hex="012F"/>
  <outline>
    <contour>
      <point x="42" y="627" type="curve" smooth="yes"/>
      <point x="42" y="681"/>
      <point x="86" y="717"/>
      <point x="140" y="717" type="curve" smooth="yes"/>
      <point x="194" y="717"/>
      <point x="238" y="681"/>
      <point x="238" y="627" type="curve" smooth="yes"/>
      <point x="238" y="573"/>
      <point x="194" y="537"/>
      <point x="140" y="537" type="curve" smooth="yes"/>
      <point x="86" y="537"/>
      <point x="42" y="573"/>
    </contour>
    <contour>
      <point x="56" y="460" type="line"/>
      <point x="224" y="460" type="line"/>
      <point x="224" y="0" type="line"/>
      <point x="56" y="0" type="line"/>
    </contour>
    <contour>
      <point x="210" y="-106" type="curve"/>
      <point x="244" y="-180" type="line"/>
      <point x="229" y="-200"/>
      <point x="200" y="-220"/>
      <point x="140" y="-220" type="curve" smooth="yes"/>
      <point x="80" y="-220"/>
      <point x="24" y="-188"/>
      <point x="24" y="-120" type="curve"/>
      <point x="128" y="-92" type="line"/>
      <point x="128" y="-114"/>
      <point x="138" y="-126"/>
      <point x="160" y="-126" type="curve" smooth="yes"/>
      <point x="178" y="-126"/>
      <point x="196" y="-119"/>
    </contour>
    <contour>
      <point x="128" y="-92" type="curve"/>
      <point x="24" y="-120" type="line"/>
      <point x="24" y="-52"/>
      <point x="94" y="-12"/>
      <point x="164" y="24" type="curve"/>
      <point x="206" y="-0" type="line"/>
      <point x="154" y="-30"/>
      <point x="128" y="-64"/>
    </contour>
  </outline>
</glyph>
<glyph name="ij" format="1">
  <advance width="555"/>
  <unicode hex="0133"/>
  <outline>
    <contour>
      <point x="317" y="627" type="curve" smooth="yes"/>
      <point x="317" y="681"/>
      <point x="361" y="717"/>
      <point x="415" y="717" type="curve" smooth="yes"/>
      <point x="469" y="717"/>
      <point x="513" y="681"/>
      <point x="513" y="627" type="curve" smooth="yes"/>
      <point x="513" y="573"/>
      <point x="469" y="538"/>
      <point x="415" y="538" type="curve" smooth="yes"/>
      <point x="361" y="538"/>
      <point x="317" y="573"/>
    </contour>
    <contour>
      <point x="238" y="-66" type="line"/>
      <point x="251" y="-83"/>
      <point x="266" y="-92"/>
      <point x="284" y="-92" type="curve" smooth="yes"/>
      <point x="314" y="-92"/>
      <point x="332" y="-72"/>
      <point x="332" y="-30" type="curve" smooth="yes"/>
      <point x="332" y="460" type="line"/>
      <point x="497" y="460" type="line"/>
      <point x="497" y="-76" type="line" smooth="yes"/>
      <point x="497" y="-177"/>
      <point x="435" y="-244"/>
      <point x="311" y="-244" type="curve" smooth="yes"/>
      <point x="236" y="-244"/>
      <point x="195" y="-211"/>
      <point x="172" y="-191" type="curve"/>
    </contour>
    <contour>
      <point x="43" y="627" type="curve" smooth="yes"/>
      <point x="43" y="681"/>
      <point x="87" y="717"/>
      <point x="141" y="717" type="curve" smooth="yes"/>
      <point x="195" y="717"/>
      <point x="238" y="681"/>
      <point x="238" y="627" type="curve" smooth="yes"/>
      <point x="238" y="573"/>
      <point x="195" y="538"/>
      <point x="141" y="538" type="curve" smooth="yes"/>
      <point x="87" y="538"/>
      <point x="43" y="573"/>
    </contour>
    <contour>
      <point x="57" y="460" type="line"/>
      <point x="223" y="460" type="line"/>
      <point x="223" y="0" type="line"/>
      <point x="57" y="0" type="line"/>
    </contour>
  </outline>
</glyph>
<glyph name="Jcircumflex" format="1">
  <advance width="356"/>
  <unicode hex="0134"/>
  <outline>
    <contour>
      <point x="-73" y="-52" type="line"/>
      <point x="-51" y="-69"/>
      <point x="-20" y="-84"/>
      <point x="8" y="-84" type="curve" smooth="yes"/>
      <point x="38" y="-84"/>
      <point x="72" y="-64"/>
      <point x="72" y="-6" type="curve" smooth="yes"/>
      <point x="72" y="700" type="line"/>
      <point x="285" y="700" type="line"/>
      <point x="285" y="-52" type="line" smooth="yes"/>
      <point x="285" y="-193"/>
      <point x="165" y="-244"/>
      <point x="31" y="-244" type="curve" smooth="yes"/>
      <point x="-54" y="-244"/>
      <point x="-133" y="-214"/>
      <point x="-180" y="-186" type="curve"/>
    </contour>
    <contour>
      <point x="178" y="861" type="line"/>
      <point x="92" y="778" type="line"/>
      <point x="-30" y="858" type="line"/>
      <point x="178" y="998" type="line"/>
      <point x="386" y="858" type="line"/>
      <point x="264" y="778" type="line"/>
    </contour>
  </outline>
</glyph>
<glyph name="jcircumflex" format="1">
  <advance width="278"/>
  <unicode hex="0135"/>
  <outline>
    <contour>
      <point x="-38" y="-66" type="line"/>
      <point x="-25" y="-83"/>
      <point x="-10" y="-92"/>
      <point x="8" y="-92" type="curve" smooth="yes"/>
      <point x="38" y="-92"/>
      <point x="56" y="-72"/>
      <point x="56" y="-30" type="curve" smooth="yes"/>
      <point x="56" y="460" type="line"/>
      <point x="220" y="460" type="line"/>
      <point x="220" y="-76" type="line" smooth="yes"/>
      <point x="220" y="-177"/>
      <point x="159" y="-244"/>
      <point x="35" y="-244" type="curve" smooth="yes"/>
      <point x="-40" y="-244"/>
      <point x="-81" y="-211"/>
      <point x="-104" y="-191" type="curve"/>
    </contour>
    <contour>
      <point x="138" y="614" type="line"/>
      <point x="52" y="531" type="line"/>
      <point x="-71" y="611" type="line"/>
      <point x="138" y="751" type="line"/>
      <point x="346" y="611" type="line"/>
      <point x="224" y="531" type="line"/>
    </contour>
  </outline>
</glyph>
<glyph name="uni0137" format="1">
  <advance width="617"/>
  <unicode hex="0137"/>
  <outline>
    <contour>
      <point x="54" y="780" type="line"/>
      <point x="219" y="780" type="line"/>
      <point x="219" y="0" type="line"/>
      <point x="54" y="0" type="line"/>
    </contour>
    <contour>
      <point x="385" y="460" type="line"/>
      <point x="590" y="460" type="line"/>
      <point x="394" y="270" type="line"/>
      <point x="610" y="0" type="line"/>
      <point x="409" y="0" type="line"/>
      <point x="189" y="270" type="line"/>
    </contour>
    <contour>
      <point x="257" y="-60" type="line"/>
      <point x="430" y="-93" type="line"/>
      <point x="299" y="-343" type="line"/>
      <point x="169" y="-319" type="line"/>
    </contour>
  </outline>
</glyph>
<glyph name="kgreenlandic" format="1">
  <advance width="617"/>
  <unicode hex="0138"/>
  <outline>
    <contour>
      <point x="54" y="460" type="line"/>
      <point x="219" y="460" type="line"/>
      <point x="219" y="0" type="line"/>
      <point x="54" y="0" type="line"/>
    </contour>
    <contour>
      <point x="385" y="460" type="line"/>
      <point x="590" y="460" type="line"/>
      <point x="394" y="270" type="line"/>
      <point x="610" y="0" type="line"/>
      <point x="409" y="0" type="line"/>
      <point x="189" y="270" type="line"/>
    </contour>
  </outline>
</glyph>
<glyph name="uni013B" format="1">
  <advance width="550"/>
  <unicode hex="013B"/>
  <outline>
    <contour>
      <point x="72" y="700" type="line"/>
      <point x="266" y="700" type="line"/>
      <point x="266" y="165" type="line"/>
      <point x="549" y="165" type="line"/>
      <point x="549" y="0" type="line"/>
      <point x="72" y="0" type="line"/>
    </contour>
    <contour>
      <point x="268" y="-60" type="line"/>
      <point x="441" y="-93" type="line"/>
      <point x="311" y="-343" type="line"/>
      <point x="180" y="-319" type="line"/>
    </contour>
  </outline>
</glyph>
<glyph name="uni013C" format="1">
  <advance width="282"/>
  <unicode hex="013C"/>
  <outline>
    <contour>
      <point x="55" y="780" type="line"/>
      <point x="228" y="780" type="line"/>
      <point x="228" y="0" type="line"/>
      <point x="55" y="0" type="line"/>
    </contour>
    <contour>
      <point x="99" y="-60" type="line"/>
      <point x="272" y="-93" type="line"/>
      <point x="141" y="-343" type="line"/>
      <point x="11" y="-319" type="line"/>
    </contour>
  </outline>
</glyph>
<glyph name="Lcaron" format="1">
  <advance width="551"/>
  <unicode hex="013D"/>
  <outline>
    <contour>
      <point x="204" y="0" type="line"/>
      <point x="204" y="166" type="line"/>
      <point x="550" y="166" type="line"/>
      <point x="550" y="0" type="line"/>
    </contour>
    <contour>
      <point x="72" y="700" type="line"/>
      <point x="266" y="700" type="line"/>
      <point x="266" y="0" type="line"/>
      <point x="72" y="0" type="line"/>
    </contour>
    <contour>
      <point x="412" y="718" type="line"/>
      <point x="585" y="685" type="line"/>
      <point x="454" y="435" type="line"/>
      <point x="324" y="460" type="line"/>
    </contour>
  </outline>
</glyph>
<glyph name="ldot" format="1">
  <advance width="508"/>
  <unicode hex="0140"/>
  <outline>
    <contour>
      <point x="55" y="780" type="line"/>
      <point x="228" y="780" type="line"/>
      <point x="228" y="0" type="line"/>
      <point x="55" y="0" type="line"/>
    </contour>
    <contour>
      <point x="263" y="407" type="curve" smooth="yes"/>
      <point x="263" y="464"/>
      <point x="307" y="510"/>
      <point x="369" y="510" type="curve" smooth="yes"/>
      <point x="431" y="510"/>
      <point x="475" y="464"/>
      <point x="475" y="407" type="curve" smooth="yes"/>
      <point x="475" y="350"/>
      <point x="431" y="304"/>
      <point x="369" y="304" type="curve" smooth="yes"/>
      <point x="307" y="304"/>
      <point x="263" y="350"/>
    </contour>
  </outline>
</glyph>
<glyph name="Lslash" format="1">
  <advance width="558"/>
  <unicode hex="0141"/>
  <outline>
    <contour>
      <point x="5" y="300" type="line"/>
      <point x="-39" y="379" type="line"/>
      <point x="352" y="646" type="line"/>
      <point x="396" y="566" type="line"/>
    </contour>
    <contour>
      <point x="72" y="700" type="line"/>
      <point x="266" y="700" type="line"/>
      <point x="266" y="165" type="line"/>
      <point x="549" y="165" type="line"/>
      <point x="549" y="0" type="line"/>
      <point x="72" y="0" type="line"/>
    </contour>
  </outline>
</glyph>
<glyph name="Nacute" format="1">
  <advance width="798"/>
  <unicode hex="0143"/>
  <outline>
    <contour>
      <point x="541" y="700" type="line"/>
      <point x="727" y="700" type="line"/>
      <point x="727" y="-35" type="line"/>
      <point x="258" y="356" type="line"/>
      <point x="258" y="0" type="line"/>
      <point x="72" y="0" type="line"/>
      <point x="72" y="735" type="line"/>
      <point x="541" y="344" type="line"/>
    </contour>
    <contour>
      <point x="544" y="913" type="line"/>
      <point x="364" y="763" type="line"/>
      <point x="266" y="809" type="line"/>
      <point x="416" y="969" type="line"/>
    </contour>
  </outline>
</glyph>
<glyph name="uni0145" format="1">
  <advance width="798"/>
  <unicode hex="0145"/>
  <outline>
    <contour>
      <point x="353" y="-59" type="line"/>
      <point x="525" y="-93" type="line"/>
      <point x="396" y="-343" type="line"/>
      <point x="265" y="-318" type="line"/>
    </contour>
    <contour>
      <point x="541" y="700" type="line"/>
      <point x="727" y="700" type="line"/>
      <point x="727" y="-35" type="line"/>
      <point x="258" y="356" type="line"/>
      <point x="258" y="0" type="line"/>
      <point x="72" y="0" type="line"/>
      <point x="72" y="735" type="line"/>
      <point x="541" y="344" type="line"/>
    </contour>
  </outline>
</glyph>
<glyph name="Ncaron" format="1">
  <advance width="798"/>
  <unicode hex="0147"/>
  <outline>
    <contour>
      <point x="368" y="908" type="line"/>
      <point x="454" y="991" type="line"/>
      <point x="576" y="911" type="line"/>
      <point x="368" y="771" type="line"/>
      <point x="159" y="911" type="line"/>
      <point x="282" y="991" type="line"/>
    </contour>
    <contour>
      <point x="541" y="700" type="line"/>
      <point x="727" y="700" type="line"/>
      <point x="727" y="-35" type="line"/>
      <point x="258" y="356" type="line"/>
      <point x="258" y="0" type="line"/>
      <point x="72" y="0" type="line"/>
      <point x="72" y="735" type="line"/>
      <point x="541" y="344" type="line"/>
    </contour>
  </outline>
</glyph>
<glyph name="ncaron" format="1">
  <advance width="589"/>
  <unicode hex="0148"/>
  <outline>
    <contour>
      <point x="228" y="460" type="line"/>
      <point x="228" y="0" type="line"/>
      <point x="55" y="0" type="line"/>
      <point x="55" y="460" type="line"/>
    </contour>
    <contour>
      <point x="354" y="280" type="line" smooth="yes"/>
      <point x="354" y="328"/>
      <point x="341" y="356"/>
      <point x="296" y="356" type="curve" smooth="yes"/>
      <point x="254" y="356"/>
      <point x="228" y="330"/>
      <point x="228" y="280" type="curve"/>
      <point x="200" y="272" type="line"/>
      <point x="200" y="381"/>
      <point x="250" y="471"/>
      <point x="369" y="471" type="curve" smooth="yes"/>
      <point x="488" y="471"/>
      <point x="535" y="409"/>
      <point x="535" y="298" type="curve" smooth="yes"/>
      <point x="535" y="0" type="line"/>
      <point x="354" y="0" type="line"/>
    </contour>
    <contour>
      <point x="294" y="668" type="line"/>
      <point x="380" y="751" type="line"/>
      <point x="503" y="671" type="line"/>
      <point x="294" y="531" type="line"/>
      <point x="86" y="671" type="line"/>
      <point x="208" y="751" type="line"/>
    </contour>
  </outline>
</glyph>
<glyph name="napostrophe" format="1">
  <advance width="781"/>
  <unicode hex="0149"/>
  <outline>
    <contour>
      <point x="420" y="460" type="line"/>
      <point x="420" y="0" type="line"/>
      <point x="246" y="0" type="line"/>
      <point x="246" y="460" type="line"/>
    </contour>
    <contour>
      <point x="545" y="280" type="line" smooth="yes"/>
      <point x="545" y="328"/>
      <point x="533" y="355"/>
      <point x="488" y="355" type="curve" smooth="yes"/>
      <point x="446" y="355"/>
      <point x="420" y="330"/>
      <point x="420" y="280" type="curve"/>
      <point x="392" y="272" type="line"/>
      <point x="392" y="381"/>
      <point x="440" y="470"/>
      <point x="560" y="470" type="curve" smooth="yes"/>
      <point x="680" y="470"/>
      <point x="726" y="408"/>
      <point x="726" y="298" type="curve" smooth="yes"/>
      <point x="726" y="0" type="line"/>
      <point x="545" y="0" type="line"/>
    </contour>
    <contour>
      <point x="106" y="700" type="line"/>
      <point x="282" y="700" type="line"/>
      <point x="178" y="438" type="line"/>
      <point x="54" y="438" type="line"/>
    </contour>
  </outline>
</glyph>
<glyph name="omacron" format="1">
  <advance width="602"/>
  <unicode hex="014D"/>
  <outline>
    <contour>
      <point x="31" y="230" type="curve" smooth="yes"/>
      <point x="31" y="378"/>
      <point x="147" y="470"/>
      <point x="302" y="470" type="curve" smooth="yes"/>
      <point x="457" y="470"/>
      <point x="572" y="378"/>
      <point x="572" y="230" type="curve" smooth="yes"/>
      <point x="572" y="82"/>
      <point x="457" y="-10"/>
      <point x="302" y="-10" type="curve" smooth="yes"/>
      <point x="147" y="-10"/>
      <point x="31" y="82"/>
    </contour>
    <contour>
      <point x="210" y="230" type="curve" smooth="yes"/>
      <point x="210" y="166"/>
      <point x="252" y="130"/>
      <point x="302" y="130" type="curve" smooth="yes"/>
      <point x="352" y="130"/>
      <point x="394" y="166"/>
      <point x="394" y="230" type="curve" smooth="yes"/>
      <point x="394" y="294"/>
      <point x="352" y="331"/>
      <point x="302" y="331" type="curve" smooth="yes"/>
      <point x="252" y="331"/>
      <point x="210" y="294"/>
    </contour>
    <contour>
      <point x="112" y="530" type="line"/>
      <point x="112" y="679" type="line"/>
      <point x="490" y="679" type="line"/>
      <point x="490" y="530" type="line"/>
    </contour>
  </outline>
</glyph>
<glyph name="obreve" format="1">
  <advance width="602"/>
  <unicode hex="014F"/>
  <outline>
    <contour>
      <point x="31" y="230" type="curve" smooth="yes"/>
      <point x="31" y="377"/>
      <point x="146" y="471"/>
      <point x="301" y="471" type="curve" smooth="yes"/>
      <point x="456" y="471"/>
      <point x="571" y="377"/>
      <point x="571" y="230" type="curve" smooth="yes"/>
      <point x="571" y="83"/>
      <point x="456" y="-10"/>
      <point x="301" y="-10" type="curve" smooth="yes"/>
      <point x="146" y="-10"/>
      <point x="31" y="83"/>
    </contour>
    <contour>
      <point x="209" y="230" type="curve" smooth="yes"/>
      <point x="209" y="166"/>
      <point x="251" y="130"/>
      <point x="301" y="130" type="curve" smooth="yes"/>
      <point x="351" y="130"/>
      <point x="394" y="166"/>
      <point x="394" y="230" type="curve" smooth="yes"/>
      <point x="394" y="294"/>
      <point x="351" y="331"/>
      <point x="301" y="331" type="curve" smooth="yes"/>
      <point x="251" y="331"/>
      <point x="209" y="294"/>
    </contour>
    <contour>
      <point x="135" y="679" type="curve"/>
      <point x="242" y="679" type="line"/>
      <point x="242" y="641"/>
      <point x="271" y="624"/>
      <point x="301" y="624" type="curve" smooth="yes"/>
      <point x="331" y="624"/>
      <point x="360" y="641"/>
      <point x="360" y="679" type="curve"/>
      <point x="467" y="679" type="line"/>
      <point x="467" y="594"/>
      <point x="406" y="531"/>
      <point x="301" y="531" type="curve" smooth="yes"/>
      <point x="196" y="531"/>
      <point x="135" y="594"/>
    </contour>
  </outline>
</glyph>
<glyph name="OE" format="1">
  <advance width="985"/>
  <unicode hex="0152"/>
  <outline>
    <contour>
      <point x="562" y="288" type="line"/>
      <point x="562" y="440" type="line"/>
      <point x="939" y="440" type="line"/>
      <point x="939" y="288" type="line"/>
    </contour>
    <contour>
      <point x="475" y="670" type="line"/>
      <point x="660" y="670" type="line"/>
      <point x="660" y="30" type="line"/>
      <point x="475" y="30" type="line"/>
    </contour>
    <contour>
      <point x="960" y="157" type="line"/>
      <point x="960" y="0" type="line"/>
      <point x="390" y="0" type="line" smooth="yes"/>
      <point x="187" y="0"/>
      <point x="32" y="141"/>
      <point x="32" y="350" type="curve" smooth="yes"/>
      <point x="32" y="559"/>
      <point x="186" y="700"/>
      <point x="390" y="700" type="curve" smooth="yes"/>
      <point x="959" y="700" type="line"/>
      <point x="959" y="543" type="line"/>
      <point x="568" y="543" type="line"/>
      <point x="551" y="531" type="line"/>
      <point x="430" y="531" type="line" smooth="yes"/>
      <point x="296" y="531"/>
      <point x="234" y="473"/>
      <point x="234" y="350" type="curve" smooth="yes"/>
      <point x="234" y="227"/>
      <point x="297" y="169"/>
      <point x="430" y="169" type="curve" smooth="yes"/>
      <point x="548" y="169" type="line"/>
      <point x="572" y="157" type="line"/>
    </contour>
  </outline>
</glyph>
<glyph name="oe" format="1">
  <advance width="900"/>
  <unicode hex="0153"/>
  <outline>
    <contour>
      <point x="683" y="250" type="line" smooth="yes"/>
      <point x="683" y="320"/>
      <point x="658" y="360"/>
      <point x="608" y="360" type="curve" smooth="yes"/>
      <point x="560" y="360"/>
      <point x="519" y="330"/>
      <point x="519" y="260" type="curve"/>
      <point x="517" y="230" type="line"/>
      <point x="517" y="148"/>
      <point x="553" y="105"/>
      <point x="611" y="105" type="curve" smooth="yes"/>
      <point x="662" y="105"/>
      <point x="689" y="129"/>
      <point x="714" y="163" type="curve"/>
      <point x="869" y="131" type="line"/>
      <point x="831" y="53"/>
      <point x="739" y="-10"/>
      <point x="640" y="-10" type="curve" smooth="yes"/>
      <point x="515" y="-10"/>
      <point x="430" y="91"/>
      <point x="430" y="230" type="curve" smooth="yes"/>
      <point x="430" y="247"/>
      <point x="431" y="263"/>
      <point x="434" y="279" type="curve" smooth="yes"/>
      <point x="453" y="392"/>
      <point x="539" y="470"/>
      <point x="658" y="470" type="curve" smooth="yes"/>
      <point x="768" y="470"/>
      <point x="865" y="379"/>
      <point x="865" y="234" type="curve" smooth="yes"/>
      <point x="865" y="226"/>
      <point x="863" y="202"/>
      <point x="862" y="194" type="curve"/>
      <point x="683" y="230" type="line"/>
    </contour>
    <contour>
      <point x="481" y="194" type="line"/>
      <point x="481" y="282" type="line"/>
      <point x="844" y="282" type="line"/>
      <point x="862" y="194" type="line"/>
    </contour>
    <contour>
      <point x="35" y="230" type="curve" smooth="yes"/>
      <point x="35" y="379"/>
      <point x="138" y="470"/>
      <point x="263" y="470" type="curve" smooth="yes"/>
      <point x="388" y="470"/>
      <point x="466" y="379"/>
      <point x="466" y="230" type="curve" smooth="yes"/>
      <point x="466" y="81"/>
      <point x="388" y="-10"/>
      <point x="263" y="-10" type="curve" smooth="yes"/>
      <point x="138" y="-10"/>
      <point x="35" y="81"/>
    </contour>
    <contour>
      <point x="205" y="230" type="curve" smooth="yes"/>
      <point x="205" y="164"/>
      <point x="244" y="130"/>
      <point x="297" y="130" type="curve" smooth="yes"/>
      <point x="351" y="130"/>
      <point x="386" y="164"/>
      <point x="386" y="230" type="curve" smooth="yes"/>
      <point x="386" y="296"/>
      <point x="351" y="330"/>
      <point x="297" y="330" type="curve" smooth="yes"/>
      <point x="244" y="330"/>
      <point x="205" y="296"/>
    </contour>
  </outline>
</glyph>
<glyph name="Racute" format="1">
  <advance width="672"/>
  <unicode hex="0154"/>
  <outline>
    <contour>
      <point x="261" y="309" type="line"/>
      <point x="462" y="309" type="line"/>
      <point x="671" y="0" type="line"/>
      <point x="445" y="0" type="line"/>
    </contour>
    <contour>
      <point x="72" y="700" type="line"/>
      <point x="266" y="700" type="line"/>
      <point x="266" y="0" type="line"/>
      <point x="72" y="0" type="line"/>
    </contour>
    <contour>
      <point x="196" y="536" type="line"/>
      <point x="196" y="700" type="line"/>
      <point x="347" y="700" type="line" smooth="yes"/>
      <point x="538" y="700"/>
      <point x="629" y="603"/>
      <point x="629" y="466" type="curve" smooth="yes"/>
      <point x="629" y="329"/>
      <point x="538" y="232"/>
      <point x="347" y="232" type="curve" smooth="yes"/>
      <point x="196" y="232" type="line"/>
      <point x="196" y="379" type="line"/>
      <point x="330" y="379" type="line" smooth="yes"/>
      <point x="392" y="379"/>
      <point x="427" y="408"/>
      <point x="427" y="458" type="curve" smooth="yes"/>
      <point x="427" y="508"/>
      <point x="392" y="536"/>
      <point x="330" y="536" type="curve" smooth="yes"/>
    </contour>
    <contour>
      <point x="488" y="928" type="line"/>
      <point x="308" y="778" type="line"/>
      <point x="211" y="824" type="line"/>
      <point x="361" y="984" type="line"/>
    </contour>
  </outline>
</glyph>
<glyph name="Scedilla" format="1">
  <advance width="647"/>
  <unicode hex="015E"/>
  <outline>
    <contour>
      <point x="165" y="258" type="line"/>
      <point x="215" y="178"/>
      <point x="260" y="141"/>
      <point x="331" y="141" type="curve" smooth="yes"/>
      <point x="379" y="141"/>
      <point x="406" y="158"/>
      <point x="406" y="196" type="curve" smooth="yes"/>
      <point x="406" y="246"/>
      <point x="348" y="259"/>
      <point x="268" y="291" type="curve" smooth="yes"/>
      <point x="200" y="318"/>
      <point x="74" y="370"/>
      <point x="74" y="514" type="curve" smooth="yes"/>
      <point x="74" y="636"/>
      <point x="178" y="718"/>
      <point x="334" y="718" type="curve" smooth="yes"/>
      <point x="495" y="718"/>
      <point x="572" y="636"/>
      <point x="602" y="563" type="curve"/>
      <point x="457" y="482" type="line"/>
      <point x="427" y="532"/>
      <point x="388" y="556"/>
      <point x="341" y="556" type="curve" smooth="yes"/>
      <point x="299" y="556"/>
      <point x="272" y="538"/>
      <point x="272" y="509" type="curve" smooth="yes"/>
      <point x="272" y="467"/>
      <point x="349" y="448"/>
      <point x="432" y="418" type="curve" smooth="yes"/>
      <point x="537" y="381"/>
      <point x="611" y="317"/>
      <point x="611" y="198" type="curve" smooth="yes"/>
      <point x="611" y="48"/>
      <point x="496" y="-26"/>
      <point x="327" y="-26" type="curve" smooth="yes"/>
      <point x="196" y="-26"/>
      <point x="76" y="48"/>
      <point x="32" y="163" type="curve"/>
    </contour>
    <contour>
      <point x="289" y="61" type="line"/>
      <point x="413" y="57" type="line"/>
      <point x="321" y="-68" type="line"/>
      <point x="334" y="-65"/>
      <point x="349" y="-64"/>
      <point x="365" y="-64" type="curve" smooth="yes"/>
      <point x="407" y="-64"/>
      <point x="462" y="-97"/>
      <point x="462" y="-168" type="curve" smooth="yes"/>
      <point x="462" y="-244"/>
      <point x="390" y="-281"/>
      <point x="324" y="-281" type="curve" smooth="yes"/>
      <point x="263" y="-281"/>
      <point x="215" y="-272"/>
      <point x="163" y="-242" type="curve"/>
      <point x="213" y="-165" type="line"/>
      <point x="240" y="-184"/>
      <point x="280" y="-191"/>
      <point x="298" y="-191" type="curve" smooth="yes"/>
      <point x="332" y="-191"/>
      <point x="354" y="-181"/>
      <point x="354" y="-157" type="curve" smooth="yes"/>
      <point x="354" y="-130"/>
      <point x="320" y="-126"/>
      <point x="290" y="-126" type="curve" smooth="yes"/>
      <point x="280" y="-126"/>
      <point x="239" y="-127"/>
      <point x="200" y="-141" type="curve"/>
    </contour>
  </outline>
</glyph>
<glyph name="scedilla" format="1">
  <advance width="472"/>
  <unicode hex="015F"/>
  <outline>
    <contour>
      <point x="80" y="178" type="line"/>
      <point x="165" y="117"/>
      <point x="218" y="108"/>
      <point x="242" y="108" type="curve" smooth="yes"/>
      <point x="262" y="108"/>
      <point x="278" y="112"/>
      <point x="278" y="130" type="curve" smooth="yes"/>
      <point x="278" y="160"/>
      <point x="204" y="166"/>
      <point x="150" y="192" type="curve" smooth="yes"/>
      <point x="90" y="221"/>
      <point x="38" y="251"/>
      <point x="38" y="332" type="curve" smooth="yes"/>
      <point x="38" y="424"/>
      <point x="126" y="470"/>
      <point x="232" y="470" type="curve" smooth="yes"/>
      <point x="314" y="470"/>
      <point x="380" y="442"/>
      <point x="438" y="408" type="curve"/>
      <point x="387" y="293" type="line"/>
      <point x="347" y="330"/>
      <point x="281" y="350"/>
      <point x="244" y="350" type="curve" smooth="yes"/>
      <point x="214" y="350"/>
      <point x="203" y="344"/>
      <point x="203" y="328" type="curve" smooth="yes"/>
      <point x="203" y="304"/>
      <point x="264" y="291"/>
      <point x="324" y="269" type="curve" smooth="yes"/>
      <point x="389" y="245"/>
      <point x="450" y="214"/>
      <point x="450" y="130" type="curve" smooth="yes"/>
      <point x="450" y="22"/>
      <point x="386" y="-22"/>
      <point x="270" y="-22" type="curve" smooth="yes"/>
      <point x="168" y="-22"/>
      <point x="87" y="10"/>
      <point x="16" y="60" type="curve"/>
    </contour>
    <contour>
      <point x="214" y="74" type="line"/>
      <point x="340" y="68" type="line"/>
      <point x="222" y="-88" type="line"/>
      <point x="127" y="-129" type="line"/>
    </contour>
    <contour>
      <point x="389" y="-156" type="curve"/>
      <point x="280" y="-144" type="line"/>
      <point x="280" y="-117"/>
      <point x="246" y="-114"/>
      <point x="216" y="-114" type="curve" smooth="yes"/>
      <point x="206" y="-114"/>
      <point x="167" y="-115"/>
      <point x="127" y="-129" type="curve"/>
      <point x="198" y="-84" type="line"/>
      <point x="226" y="-56"/>
      <point x="254" y="-52"/>
      <point x="292" y="-52" type="curve" smooth="yes"/>
      <point x="334" y="-52"/>
      <point x="389" y="-85"/>
    </contour>
    <contour>
      <point x="389" y="-156" type="line"/>
      <point x="389" y="-232"/>
      <point x="316" y="-270"/>
      <point x="250" y="-270" type="curve" smooth="yes"/>
      <point x="188" y="-270"/>
      <point x="142" y="-260"/>
      <point x="90" y="-230" type="curve"/>
      <point x="139" y="-152" type="line"/>
      <point x="167" y="-171"/>
      <point x="206" y="-178"/>
      <point x="224" y="-178" type="curve" smooth="yes"/>
      <point x="258" y="-178"/>
      <point x="280" y="-168"/>
      <point x="280" y="-144" type="curve"/>
    </contour>
  </outline>
</glyph>
<glyph name="Tcaron" format="1">
  <advance width="590"/>
  <unicode hex="0164"/>
  <outline>
    <contour>
      <point x="2" y="527" type="line"/>
      <point x="2" y="700" type="line"/>
      <point x="588" y="700" type="line"/>
      <point x="588" y="527" type="line"/>
      <point x="392" y="527" type="line"/>
      <point x="392" y="0" type="line"/>
      <point x="198" y="0" type="line"/>
      <point x="198" y="527" type="line"/>
    </contour>
    <contour>
      <point x="295" y="915" type="line"/>
      <point x="381" y="998" type="line"/>
      <point x="503" y="918" type="line"/>
      <point x="295" y="778" type="line"/>
      <point x="87" y="918" type="line"/>
      <point x="209" y="998" type="line"/>
    </contour>
  </outline>
</glyph>
<glyph name="Utilde" format="1">
  <advance width="722"/>
  <unicode hex="0168"/>
  <outline>
    <contour>
      <point x="67" y="700" type="line"/>
      <point x="261" y="700" type="line"/>
      <point x="261" y="246" type="line" smooth="yes"/>
      <point x="261" y="182"/>
      <point x="293" y="139"/>
      <point x="361" y="139" type="curve" smooth="yes"/>
      <point x="429" y="139"/>
      <point x="462" y="182"/>
      <point x="462" y="246" type="curve" smooth="yes"/>
      <point x="462" y="700" type="line"/>
      <point x="656" y="700" type="line"/>
      <point x="656" y="230" type="line" smooth="yes"/>
      <point x="656" y="43"/>
      <point x="522" y="-34"/>
      <point x="361" y="-34" type="curve" smooth="yes"/>
      <point x="200" y="-34"/>
      <point x="67" y="43"/>
      <point x="67" y="230" type="curve" smooth="yes"/>
    </contour>
    <contour>
      <point x="156" y="852" type="line"/>
      <point x="166" y="901"/>
      <point x="211" y="950"/>
      <point x="280" y="950" type="curve" smooth="yes"/>
      <point x="347" y="950"/>
      <point x="363" y="897"/>
      <point x="420" y="897" type="curve" smooth="yes"/>
      <point x="447" y="897"/>
      <point x="468" y="919"/>
      <point x="488" y="951" type="curve"/>
      <point x="567" y="868" type="line"/>
      <point x="551" y="831"/>
      <point x="490" y="779"/>
      <point x="424" y="779" type="curve" smooth="yes"/>
      <point x="369" y="779"/>
      <point x="330" y="834"/>
      <point x="279" y="834" type="curve" smooth="yes"/>
      <point x="242" y="834"/>
      <point x="233" y="798"/>
      <point x="233" y="783" type="curve"/>
    </contour>
  </outline>
</glyph>
<glyph name="Uring" format="1">
  <advance width="722"/>
  <unicode hex="016E"/>
  <outline>
    <contour>
      <point x="67" y="700" type="line"/>
      <point x="261" y="700" type="line"/>
      <point x="261" y="246" type="line" smooth="yes"/>
      <point x="261" y="182"/>
      <point x="293" y="139"/>
      <point x="361" y="139" type="curve" smooth="yes"/>
      <point x="429" y="139"/>
      <point x="462" y="182"/>
      <point x="462" y="246" type="curve" smooth="yes"/>
      <point x="462" y="700" type="line"/>
      <point x="656" y="700" type="line"/>
      <point x="656" y="230" type="line" smooth="yes"/>
      <point x="656" y="43"/>
      <point x="522" y="-34"/>
      <point x="361" y="-34" type="curve" smooth="yes"/>
      <point x="200" y="-34"/>
      <point x="67" y="43"/>
      <point x="67" y="230" type="curve" smooth="yes"/>
    </contour>
    <contour>
      <point x="230" y="898" type="curve" smooth="yes"/>
      <point x="230" y="969"/>
      <point x="286" y="1018"/>
      <point x="361" y="1018" type="curve" smooth="yes"/>
      <point x="436" y="1018"/>
      <point x="493" y="969"/>
      <point x="493" y="898" type="curve" smooth="yes"/>
      <point x="493" y="827"/>
      <point x="436" y="778"/>
      <point x="361" y="778" type="curve" smooth="yes"/>
      <point x="286" y="778"/>
      <point x="230" y="827"/>
    </contour>
    <contour>
      <point x="316" y="898" type="curve" smooth="yes"/>
      <point x="316" y="869"/>
      <point x="336" y="852"/>
      <point x="361" y="852" type="curve" smooth="yes"/>
      <point x="386" y="852"/>
      <point x="406" y="869"/>
      <point x="406" y="898" type="curve" smooth="yes"/>
      <point x="406" y="927"/>
      <point x="386" y="945"/>
      <point x="361" y="945" type="curve" smooth="yes"/>
      <point x="336" y="945"/>
      <point x="316" y="927"/>
    </contour>
  </outline>
</glyph>
<glyph name="wcircumflex" format="1">
  <advance width="784"/>
  <unicode hex="0175"/>
  <outline>
    <contour>
      <point x="-11" y="460" type="line"/>
      <point x="168" y="460" type="line"/>
      <point x="258" y="243" type="line"/>
      <point x="391" y="495" type="line"/>
      <point x="527" y="243" type="line"/>
      <point x="617" y="460" type="line"/>
      <point x="796" y="460" type="line"/>
      <point x="548" y="-27" type="line"/>
      <point x="392" y="228" type="line"/>
      <point x="237" y="-27" type="line"/>
    </contour>
    <contour>
      <point x="391" y="638" type="line"/>
      <point x="306" y="555" type="line"/>
      <point x="183" y="635" type="line"/>
      <point x="391" y="775" type="line"/>
      <point x="600" y="635" type="line"/>
      <point x="477" y="555" type="line"/>
    </contour>
  </outline>
</glyph>
<glyph name="Ycircumflex" format="1">
  <advance width="689"/>
  <unicode hex="0176"/>
  <outline>
    <contour>
      <point x="468" y="700" type="line"/>
      <point x="692" y="700" type="line"/>
      <point x="444" y="280" type="line"/>
      <point x="444" y="0" type="line"/>
      <point x="246" y="0" type="line"/>
      <point x="246" y="278" type="line"/>
      <point x="-3" y="700" type="line"/>
      <point x="221" y="700" type="line"/>
      <point x="345" y="455" type="line"/>
    </contour>
    <contour>
      <point x="345" y="861" type="line"/>
      <point x="259" y="778" type="line"/>
      <point x="136" y="858" type="line"/>
      <point x="345" y="998" type="line"/>
      <point x="553" y="858" type="line"/>
      <point x="430" y="778" type="line"/>
    </contour>
  </outline>
</glyph>
<glyph name="Ydieresis" format="1">
  <advance width="689"/>
  <unicode hex="0178"/>
  <outline>
    <contour>
      <point x="94" y="881" type="curve" smooth="yes"/>
      <point x="94" y="935"/>
      <point x="138" y="971"/>
      <point x="192" y="971" type="curve" smooth="yes"/>
      <point x="246" y="971"/>
      <point x="290" y="935"/>
      <point x="290" y="881" type="curve" smooth="yes"/>
      <point x="290" y="827"/>
      <point x="246" y="792"/>
      <point x="192" y="792" type="curve" smooth="yes"/>
      <point x="138" y="792"/>
      <point x="94" y="827"/>
    </contour>
    <contour>
      <point x="399" y="881" type="curve" smooth="yes"/>
      <point x="399" y="935"/>
      <point x="443" y="971"/>
      <point x="497" y="971" type="curve" smooth="yes"/>
      <point x="551" y="971"/>
      <point x="595" y="935"/>
      <point x="595" y="881" type="curve" smooth="yes"/>
      <point x="595" y="827"/>
      <point x="551" y="792"/>
      <point x="497" y="792" type="curve" smooth="yes"/>
      <point x="443" y="792"/>
      <point x="399" y="827"/>
    </contour>
    <contour>
      <point x="468" y="700" type="line"/>
      <point x="692" y="700" type="line"/>
      <point x="444" y="280" type="line"/>
      <point x="444" y="0" type="line"/>
      <point x="246" y="0" type="line"/>
      <point x="246" y="278" type="line"/>
      <point x="-3" y="700" type="line"/>
      <point x="221" y="700" type="line"/>
      <point x="345" y="455" type="line"/>
    </contour>
  </outline>
</glyph>
<glyph name="zacute" format="1">
  <advance width="540"/>
  <unicode hex="017A"/>
  <outline>
    <contour>
      <point x="244" y="304" type="line"/>
      <point x="61" y="304" type="line"/>
      <point x="61" y="460" type="line"/>
      <point x="526" y="460" type="line"/>
      <point x="313" y="156" type="line"/>
      <point x="490" y="156" type="line"/>
      <point x="490" y="0" type="line"/>
      <point x="15" y="0" type="line"/>
    </contour>
    <contour>
      <point x="470" y="685" type="line"/>
      <point x="290" y="535" type="line"/>
      <point x="192" y="581" type="line"/>
      <point x="342" y="741" type="line"/>
    </contour>
  </outline>
</glyph>
<glyph name="zdotaccent" format="1">
  <advance width="540"/>
  <unicode hex="017C"/>
  <outline>
    <contour>
      <point x="244" y="304" type="line"/>
      <point x="61" y="304" type="line"/>
      <point x="61" y="460" type="line"/>
      <point x="526" y="460" type="line"/>
      <point x="313" y="156" type="line"/>
      <point x="490" y="156" type="line"/>
      <point x="490" y="0" type="line"/>
      <point x="15" y="0" type="line"/>
    </contour>
    <contour>
      <point x="196" y="626" type="curve" smooth="yes"/>
      <point x="196" y="680"/>
      <point x="239" y="716"/>
      <point x="293" y="716" type="curve" smooth="yes"/>
      <point x="347" y="716"/>
      <point x="391" y="680"/>
      <point x="391" y="626" type="curve" smooth="yes"/>
      <point x="391" y="572"/>
      <point x="347" y="536"/>
      <point x="293" y="536" type="curve" smooth="yes"/>
      <point x="239" y="536"/>
      <point x="196" y="572"/>
    </contour>
  </outline>
</glyph>
<glyph name="Zcaron" format="1">
  <advance width="641"/>
  <unicode hex="017D"/>
  <outline>
    <contour>
      <point x="63" y="527" type="line"/>
      <point x="63" y="700" type="line"/>
      <point x="630" y="700" type="line"/>
      <point x="310" y="165" type="line"/>
      <point x="590" y="165" type="line"/>
      <point x="590" y="0" type="line"/>
      <point x="7" y="0" type="line"/>
      <point x="321" y="527" type="line"/>
    </contour>
    <contour>
      <point x="346" y="915" type="line"/>
      <point x="432" y="998" type="line"/>
      <point x="554" y="918" type="line"/>
      <point x="346" y="778" type="line"/>
      <point x="138" y="918" type="line"/>
      <point x="260" y="998" type="line"/>
    </contour>
  </outline>
</glyph>
<glyph name="uni0212" format="1">
  <advance width="672"/>
  <unicode hex="0212"/>
  <outline>
    <contour>
      <point x="261" y="309" type="line"/>
      <point x="462" y="309" type="line"/>
      <point x="671" y="0" type="line"/>
      <point x="445" y="0" type="line"/>
    </contour>
    <contour>
      <point x="72" y="700" type="line"/>
      <point x="266" y="700" type="line"/>
      <point x="266" y="0" type="line"/>
      <point x="72" y="0" type="line"/>
    </contour>
    <contour>
      <point x="196" y="536" type="line"/>
      <point x="196" y="700" type="line"/>
      <point x="347" y="700" type="line" smooth="yes"/>
      <point x="538" y="700"/>
      <point x="629" y="603"/>
      <point x="629" y="466" type="curve" smooth="yes"/>
      <point x="629" y="329"/>
      <point x="538" y="232"/>
      <point x="347" y="232" type="curve" smooth="yes"/>
      <point x="196" y="232" type="line"/>
      <point x="196" y="379" type="line"/>
      <point x="330" y="379" type="line" smooth="yes"/>
      <point x="392" y="379"/>
      <point x="427" y="408"/>
      <point x="427" y="458" type="curve" smooth="yes"/>
      <point x="427" y="508"/>
      <point x="392" y="536"/>
      <point x="330" y="536" type="curve" smooth="yes"/>
    </contour>
    <contour>
      <point x="176" y="778" type="curve"/>
      <point x="283" y="778" type="line"/>
      <point x="283" y="816"/>
      <point x="312" y="833"/>
      <point x="342" y="833" type="curve" smooth="yes"/>
      <point x="372" y="833"/>
      <point x="401" y="816"/>
      <point x="401" y="778" type="curve"/>
      <point x="508" y="778" type="line"/>
      <point x="508" y="863"/>
      <point x="447" y="926"/>
      <point x="342" y="926" type="curve" smooth="yes"/>
      <point x="237" y="926"/>
      <point x="176" y="863"/>
    </contour>
  </outline>
</glyph>
<glyph name="uni0237" format="1">
  <advance width="278"/>
  <unicode hex="0237"/>
  <outline>
    <contour>
      <point x="-38" y="-66" type="line"/>
      <point x="-24" y="-82"/>
      <point x="-10" y="-91"/>
      <point x="8" y="-91" type="curve" smooth="yes"/>
      <point x="38" y="-91"/>
      <point x="56" y="-72"/>
      <point x="56" y="-30" type="curve" smooth="yes"/>
      <point x="56" y="460" type="line"/>
      <point x="221" y="460" type="line"/>
      <point x="221" y="-76" type="line" smooth="yes"/>
      <point x="221" y="-176"/>
      <point x="160" y="-244"/>
      <point x="36" y="-244" type="curve" smooth="yes"/>
      <point x="-40" y="-244"/>
      <point x="-80" y="-210"/>
      <point x="-104" y="-190" type="curve"/>
    </contour>
  </outline>
</glyph>
<glyph name="circumflex" format="1">
  <advance width="480"/>
  <unicode hex="02C6"/>
  <outline>
    <contour>
      <point x="240" y="625" type="line"/>
      <point x="154" y="542" type="line"/>
      <point x="31" y="622" type="line"/>
      <point x="240" y="762" type="line"/>
      <point x="449" y="622" type="line"/>
      <point x="326" y="542" type="line"/>
    </contour>
  </outline>
</glyph>
<glyph name="caron" format="1">
  <advance width="480"/>
  <unicode hex="02C7"/>
  <outline>
    <contour>
      <point x="240" y="682" type="line"/>
      <point x="326" y="766" type="line"/>
      <point x="449" y="684" type="line"/>
      <point x="240" y="544" type="line"/>
      <point x="31" y="684" type="line"/>
      <point x="154" y="766" type="line"/>
    </contour>
  </outline>
</glyph>
<glyph name="ring" format="1">
  <advance width="343"/>
  <unicode hex="02DA"/>
  <outline>
    <contour>
      <point x="40" y="765" type="curve" smooth="yes"/>
      <point x="40" y="837"/>
      <point x="96" y="885"/>
      <point x="171" y="885" type="curve" smooth="yes"/>
      <point x="246" y="885"/>
      <point x="304" y="837"/>
      <point x="304" y="765" type="curve" smooth="yes"/>
      <point x="304" y="693"/>
      <point x="246" y="644"/>
      <point x="171" y="644" type="curve" smooth="yes"/>
      <point x="96" y="644"/>
      <point x="40" y="693"/>
    </contour>
    <contour>
      <point x="126" y="765" type="curve" smooth="yes"/>
      <point x="126" y="736"/>
      <point x="146" y="719"/>
      <point x="171" y="719" type="curve" smooth="yes"/>
      <point x="196" y="719"/>
      <point x="216" y="736"/>
      <point x="216" y="765" type="curve" smooth="yes"/>
      <point x="216" y="794"/>
      <point x="196" y="812"/>
      <point x="171" y="812" type="curve" smooth="yes"/>
      <point x="146" y="812"/>
      <point x="126" y="794"/>
    </contour>
  </outline>
</glyph>
<glyph name="uni0400" format="1">
  <advance width="550"/>
  <unicode hex="0400"/>
  <outline>
    <contour>
      <point x="204" y="0" type="line"/>
      <point x="204" y="157" type="line"/>
      <point x="557" y="157" type="line"/>
      <point x="557" y="0" type="line"/>
    </contour>
    <contour>
      <point x="204" y="543" type="line"/>
      <point x="204" y="700" type="line"/>
      <point x="557" y="700" type="line"/>
      <point x="557" y="543" type="line"/>
    </contour>
    <contour>
      <point x="204" y="288" type="line"/>
      <point x="204" y="440" type="line"/>
      <point x="537" y="440" type="line"/>
      <point x="537" y="288" type="line"/>
    </contour>
    <contour>
      <point x="72" y="700" type="line"/>
      <point x="258" y="700" type="line"/>
      <point x="258" y="0" type="line"/>
      <point x="72" y="0" type="line"/>
    </contour>
    <contour>
      <point x="134" y="928" type="line"/>
      <point x="262" y="984" type="line"/>
      <point x="412" y="824" type="line"/>
      <point x="314" y="778" type="line"/>
    </contour>
  </outline>
</glyph>
<glyph name="uni040C" format="1">
  <advance width="565"/>
  <unicode hex="040C"/>
  <outline>
    <contour>
      <point x="72" y="700" type="line"/>
      <point x="274" y="700" type="line"/>
      <point x="274" y="0" type="line"/>
      <point x="72" y="0" type="line"/>
    </contour>
    <contour>
      <point x="500" y="700" type="line"/>
      <point x="727" y="700" type="line"/>
      <point x="449" y="372" type="line"/>
      <point x="742" y="0" type="line"/>
      <point x="507" y="0" type="line"/>
      <point x="218" y="366" type="line"/>
    </contour>
    <contour>
      <point x="517" y="912" type="line"/>
      <point x="337" y="762" type="line"/>
      <point x="239" y="808" type="line"/>
      <point x="389" y="968" type="line"/>
    </contour>
  </outline>
</glyph>
<glyph name="uni0411" format="1">
  <advance width="709"/>
  <unicode hex="0411"/>
  <outline>
    <contour>
      <point x="127" y="288" type="line"/>
      <point x="127" y="440" type="line"/>
      <point x="432" y="440" type="line" smooth="yes"/>
      <point x="567" y="440"/>
      <point x="670" y="351"/>
      <point x="670" y="222" type="curve" smooth="yes"/>
      <point x="670" y="93"/>
      <point x="567" y="0"/>
      <point x="432" y="0" type="curve" smooth="yes"/>
      <point x="127" y="0" type="line"/>
      <point x="127" y="157" type="line"/>
      <point x="383" y="157" type="line" smooth="yes"/>
      <point x="441" y="157"/>
      <point x="471" y="176"/>
      <point x="471" y="222" type="curve" smooth="yes"/>
      <point x="471" y="268"/>
      <point x="441" y="288"/>
      <point x="383" y="288" type="curve" smooth="yes"/>
    </contour>
    <contour>
      <point x="80" y="700" type="line"/>
      <point x="617" y="700" type="line"/>
      <point x="617" y="543" type="line"/>
      <point x="278" y="543" type="line"/>
      <point x="278" y="0" type="line"/>
      <point x="80" y="0" type="line"/>
    </contour>
  </outline>
</glyph>
<glyph name="uni0412" format="1">
  <advance width="695"/>
  <unicode hex="0412"/>
  <outline>
    <contour>
      <point x="216" y="342" type="line"/>
      <point x="216" y="423" type="line"/>
      <point x="329" y="423" type="line" smooth="yes"/>
      <point x="383" y="423"/>
      <point x="411" y="448"/>
      <point x="411" y="490" type="curve" smooth="yes"/>
      <point x="411" y="532"/>
      <point x="383" y="552"/>
      <point x="329" y="552" type="curve" smooth="yes"/>
      <point x="266" y="552" type="line"/>
      <point x="266" y="148" type="line"/>
      <point x="347" y="148" type="line" smooth="yes"/>
      <point x="405" y="148"/>
      <point x="451" y="162"/>
      <point x="451" y="224" type="curve" smooth="yes"/>
      <point x="451" y="278"/>
      <point x="405" y="292"/>
      <point x="347" y="292" type="curve" smooth="yes"/>
      <point x="216" y="292" type="line"/>
      <point x="216" y="398" type="line"/>
      <point x="371" y="398" type="line" smooth="yes"/>
      <point x="506" y="398"/>
      <point x="653" y="339"/>
      <point x="653" y="194" type="curve" smooth="yes"/>
      <point x="653" y="55"/>
      <point x="546" y="0"/>
      <point x="371" y="0" type="curve" smooth="yes"/>
      <point x="72" y="0" type="line"/>
      <point x="72" y="700" type="line"/>
      <point x="353" y="700" type="line" smooth="yes"/>
      <point x="502" y="700"/>
      <point x="613" y="640"/>
      <point x="613" y="521" type="curve" smooth="yes"/>
      <point x="613" y="406"/>
      <point x="502" y="342"/>
      <point x="353" y="342" type="curve" smooth="yes"/>
    </contour>
  </outline>
</glyph>
<glyph name="uni0414" format="1">
  <advance width="907"/>
  <unicode hex="0414"/>
  <outline>
    <contour>
      <point x="451" y="397" type="line"/>
      <point x="321" y="30" type="line"/>
      <point x="94" y="30" type="line"/>
      <point x="451" y="735" type="line"/>
      <point x="809" y="30" type="line"/>
      <point x="582" y="30" type="line"/>
    </contour>
    <contour>
      <point x="667" y="0" type="line"/>
      <point x="236" y="0" type="line"/>
      <point x="236" y="-110" type="line"/>
      <point x="40" y="-110" type="line"/>
      <point x="40" y="165" type="line"/>
      <point x="863" y="165" type="line"/>
      <point x="863" y="-110" type="line"/>
      <point x="667" y="-110" type="line"/>
    </contour>
  </outline>
</glyph>
<glyph name="uni0415" format="1">
  <advance width="618"/>
  <unicode hex="0415"/>
  <outline>
    <contour>
      <point x="204" y="0" type="line"/>
      <point x="204" y="157" type="line"/>
      <point x="557" y="157" type="line"/>
      <point x="557" y="0" type="line"/>
    </contour>
    <contour>
      <point x="204" y="543" type="line"/>
      <point x="204" y="700" type="line"/>
      <point x="557" y="700" type="line"/>
      <point x="557" y="543" type="line"/>
    </contour>
    <contour>
      <point x="204" y="288" type="line"/>
      <point x="204" y="440" type="line"/>
      <point x="537" y="440" type="line"/>
      <point x="537" y="288" type="line"/>
    </contour>
    <contour>
      <point x="72" y="700" type="line"/>
      <point x="258" y="700" type="line"/>
      <point x="258" y="0" type="line"/>
      <point x="72" y="0" type="line"/>
    </contour>
  </outline>
</glyph>
